<?xml version="1.0" encoding="UTF-8"?>
<!DOCTYPE svg PUBLIC "-//W3C//DTD SVG 1.1//EN" "http://www.w3.org/Graphics/SVG/1.1/DTD/svg11.dtd">
<svg xmlns="http://www.w3.org/2000/svg" version="1.1" width="200px" height="200px" style="shape-rendering:geometricPrecision; text-rendering:geometricPrecision; image-rendering:optimizeQuality; fill-rule:evenodd; clip-rule:evenodd" xmlns:xlink="http://www.w3.org/1999/xlink">
<g><path style="opacity:1" fill="#fdfefc" d="M -0.5,-0.5 C 27.5,-0.5 55.5,-0.5 83.5,-0.5C 82.4928,0.828405 81.1595,1.82841 79.5,2.5C 75.9566,3.21342 72.6233,4.21342 69.5,5.5C 69.3893,6.11742 69.056,6.61742 68.5,7C 65.5755,7.98763 62.5755,8.6543 59.5,9C 58.6195,9.7083 57.9528,10.5416 57.5,11.5C 55.7085,11.366 54.0418,11.6993 52.5,12.5C 48.4133,14.0719 44.4133,15.9052 40.5,18C 37.8265,20.4147 35.1599,22.9147 32.5,25.5C 29.0361,22.6991 26.2028,23.3657 24,27.5C 23.4054,28.8989 23.5721,30.2322 24.5,31.5C 23.6086,32.5896 22.6086,32.5896 21.5,31.5C 21.1667,32 20.8333,32.5 20.5,33C 21.3295,34.4651 21.4962,35.9651 21,37.5C 18.3607,40.4495 16.5274,43.7829 15.5,47.5C 15.1667,47.5 14.8333,47.5 14.5,47.5C 13.0002,48.5875 11.6669,49.9208 10.5,51.5C 9.57131,50.3112 9.23798,48.9778 9.5,47.5C 7.83333,47.5 6.16667,47.5 4.5,47.5C 4.07379,50.9202 5.07379,53.7535 7.5,56C 7.4907,57.4038 6.9907,58.5704 6,59.5C 4.98873,58.6634 3.82207,58.33 2.5,58.5C 2.31845,60.5914 2.65178,62.5914 3.5,64.5C 2.40168,68.4233 1.73501,72.4233 1.5,76.5C 1.71481,78.1788 1.04814,79.1788 -0.5,79.5C -0.5,52.8333 -0.5,26.1667 -0.5,-0.5 Z"/></g>
<g><path style="opacity:1" fill="#f4e66f" d="M 135.5,9.5 C 138.498,11.1793 141.165,13.1793 143.5,15.5C 138.065,13.856 133.065,11.356 128.5,8C 122.926,6.54688 117.259,5.71354 111.5,5.5C 107.681,4.83443 103.681,4.5011 99.5,4.5C 92.6083,4.38972 85.9416,5.05639 79.5,6.5C 76.4816,6.33537 73.4816,6.50204 70.5,7C 66.2596,8.81701 61.9262,10.317 57.5,11.5C 57.9528,10.5416 58.6195,9.7083 59.5,9C 62.5755,8.6543 65.5755,7.98763 68.5,7C 69.056,6.61742 69.3893,6.11742 69.5,5.5C 90.3018,1.14788 110.968,1.64788 131.5,7C 132.858,7.93436 134.192,8.7677 135.5,9.5 Z"/></g>
<g><path style="opacity:1" fill="#fbfced" d="M 83.5,-0.5 C 102.833,-0.5 122.167,-0.5 141.5,-0.5C 140.659,1.3792 140.325,3.3792 140.5,5.5C 143.318,6.9697 146.318,7.9697 149.5,8.5C 150.167,10.8333 150.833,13.1667 151.5,15.5C 154.247,15.1866 156.914,15.52 159.5,16.5C 158.675,17.3857 157.675,17.719 156.5,17.5C 156.5,18.5 156.5,19.5 156.5,20.5C 154.947,18.615 152.947,17.615 150.5,17.5C 150.572,14.4783 149.238,12.3116 146.5,11C 142.83,10.4518 139.163,9.95178 135.5,9.5C 134.192,8.7677 132.858,7.93436 131.5,7C 110.968,1.64788 90.3018,1.14788 69.5,5.5C 72.6233,4.21342 75.9566,3.21342 79.5,2.5C 81.1595,1.82841 82.4928,0.828405 83.5,-0.5 Z"/></g>
<g><path style="opacity:1" fill="#fcfac6" d="M 135.5,9.5 C 139.163,9.95178 142.83,10.4518 146.5,11C 149.238,12.3116 150.572,14.4783 150.5,17.5C 152.947,17.615 154.947,18.615 156.5,20.5C 163.316,21.6434 167.649,25.6434 169.5,32.5C 165.654,29.7695 161.987,26.6029 158.5,23C 157.552,22.5172 156.552,22.3505 155.5,22.5C 153.36,19.7225 150.693,17.5559 147.5,16C 146.207,15.51 144.873,15.3433 143.5,15.5C 141.165,13.1793 138.498,11.1793 135.5,9.5 Z"/></g>
<g><path style="opacity:1" fill="#ecd637" d="M 79.5,6.5 C 77.0521,7.47307 74.3854,7.8064 71.5,7.5C 71.5,8.5 71.5,9.5 71.5,10.5C 68.1016,10.1796 64.7683,10.513 61.5,11.5C 59.9412,13.1307 57.9412,13.964 55.5,14C 54.6634,15.0113 54.33,16.1779 54.5,17.5C 53.209,17.2627 52.209,17.596 51.5,18.5C 48.3836,19.9697 45.7169,21.9697 43.5,24.5C 41.5767,25.3078 39.5767,25.8078 37.5,26C 36.7402,27.4411 36.0736,28.9411 35.5,30.5C 33.6587,31.2304 31.8254,31.8971 30,32.5C 30.6116,34.752 30.9449,37.0853 31,39.5C 29.0047,36.1942 26.838,35.8609 24.5,38.5C 24.1667,38.5 23.8333,38.5 23.5,38.5C 26.087,35.5136 28.7537,32.5136 31.5,29.5C 33.9433,28.8913 35.61,27.3913 36.5,25C 38.1667,24.6667 39.8333,24.3333 41.5,24C 42.4533,22.0448 43.7866,20.3782 45.5,19C 49.9392,17.0325 53.9392,14.5325 57.5,11.5C 61.9262,10.317 66.2596,8.81701 70.5,7C 73.4816,6.50204 76.4816,6.33537 79.5,6.5 Z"/></g>
<g><path style="opacity:1" fill="#fce50c" d="M 111.5,5.5 C 111.338,7.5273 111.505,9.5273 112,11.5C 112.997,7.11238 115.163,6.44572 118.5,9.5C 120.05,12.1293 119.384,13.9626 116.5,15C 117.784,15.6838 118.951,15.5171 120,14.5C 122.988,17.0807 124.154,20.414 123.5,24.5C 124.552,24.3505 125.552,24.5172 126.5,25C 125.284,26.594 123.951,28.094 122.5,29.5C 123.376,30.2508 124.376,30.7508 125.5,31C 122.881,31.1515 120.547,31.9848 118.5,33.5C 114.5,32.8333 110.5,32.1667 106.5,31.5C 103.649,31.963 102.649,33.2964 103.5,35.5C 103.5,35.8333 103.5,36.1667 103.5,36.5C 100.15,36.665 96.8168,36.4983 93.5,36C 90.961,32.7194 87.6277,31.7194 83.5,33C 77.5568,34.4431 71.8901,36.6098 66.5,39.5C 63.8929,40.3184 61.2263,40.8184 58.5,41C 56.2236,42.0302 55.5569,43.5302 56.5,45.5C 55.675,46.3857 54.675,46.719 53.5,46.5C 53.2846,43.8721 53.9513,41.2054 55.5,38.5C 52.9327,37.1465 50.5994,37.4798 48.5,39.5C 47.984,36.7494 46.8173,34.4161 45,32.5C 44.5065,30.8659 44.3398,29.1992 44.5,27.5C 45.5,27.5 46.5,27.5 47.5,27.5C 47.5,26.5 47.5,25.5 47.5,24.5C 50.5184,24.6646 53.5184,24.498 56.5,24C 55.3945,22.2645 53.7278,20.4312 51.5,18.5C 52.209,17.596 53.209,17.2627 54.5,17.5C 54.33,16.1779 54.6634,15.0113 55.5,14C 57.9412,13.964 59.9412,13.1307 61.5,11.5C 64.7683,10.513 68.1016,10.1796 71.5,10.5C 71.5,9.5 71.5,8.5 71.5,7.5C 74.3854,7.8064 77.0521,7.47307 79.5,6.5C 85.9416,5.05639 92.6083,4.38972 99.5,4.5C 103.681,4.5011 107.681,4.83443 111.5,5.5 Z"/></g>
<g><path style="opacity:1" fill="#fae018" d="M 111.5,5.5 C 117.259,5.71354 122.926,6.54688 128.5,8C 133.065,11.356 138.065,13.856 143.5,15.5C 144.873,15.3433 146.207,15.51 147.5,16C 150.693,17.5559 153.36,19.7225 155.5,22.5C 157.86,23.865 159.527,25.865 160.5,28.5C 159.262,29.4124 157.928,29.5791 156.5,29C 154.254,27.7432 152.921,25.9099 152.5,23.5C 148.596,24.07 146.262,26.4033 145.5,30.5C 146.489,31.4682 147.156,32.6349 147.5,34C 146.834,35.6687 146.834,37.1687 147.5,38.5C 146.311,39.4287 144.978,39.762 143.5,39.5C 143.483,41.5648 143.15,43.5648 142.5,45.5C 140.167,44.8333 137.833,44.1667 135.5,43.5C 132.515,42.6743 129.849,41.341 127.5,39.5C 127.423,38.2502 126.756,37.4169 125.5,37C 122.522,36.304 119.522,35.804 116.5,35.5C 116.389,34.8826 116.056,34.3826 115.5,34C 111.198,32.994 107.198,33.494 103.5,35.5C 102.649,33.2964 103.649,31.963 106.5,31.5C 110.5,32.1667 114.5,32.8333 118.5,33.5C 120.547,31.9848 122.881,31.1515 125.5,31C 124.376,30.7508 123.376,30.2508 122.5,29.5C 123.951,28.094 125.284,26.594 126.5,25C 125.552,24.5172 124.552,24.3505 123.5,24.5C 124.154,20.414 122.988,17.0807 120,14.5C 118.951,15.5171 117.784,15.6838 116.5,15C 119.384,13.9626 120.05,12.1293 118.5,9.5C 115.163,6.44572 112.997,7.11238 112,11.5C 111.505,9.5273 111.338,7.5273 111.5,5.5 Z"/></g>
<g><path style="opacity:1" fill="#eadd6a" d="M 57.5,11.5 C 53.9392,14.5325 49.9392,17.0325 45.5,19C 43.7866,20.3782 42.4533,22.0448 41.5,24C 39.8333,24.3333 38.1667,24.6667 36.5,25C 35.61,27.3913 33.9433,28.8913 31.5,29.5C 32.9454,27.867 34.2787,26.0337 35.5,24C 41.3442,20.3037 47.0109,16.4703 52.5,12.5C 54.0418,11.6993 55.7085,11.366 57.5,11.5 Z"/></g>
<g><path style="opacity:1" fill="#e6cd58" d="M 155.5,22.5 C 156.552,22.3505 157.552,22.5172 158.5,23C 161.987,26.6029 165.654,29.7695 169.5,32.5C 169.833,33.1667 170.167,33.8333 170.5,34.5C 168.821,34.1077 167.154,33.6077 165.5,33C 164.672,31.0077 163.339,29.5077 161.5,28.5C 161.167,28.5 160.833,28.5 160.5,28.5C 159.527,25.865 157.86,23.865 155.5,22.5 Z"/></g>
<g><path style="opacity:1" fill="#fcf7d7" d="M 52.5,12.5 C 47.0109,16.4703 41.3442,20.3037 35.5,24C 34.2787,26.0337 32.9454,27.867 31.5,29.5C 28.7537,32.5136 26.087,35.5136 23.5,38.5C 20.4908,41.177 17.8242,44.177 15.5,47.5C 16.5274,43.7829 18.3607,40.4495 21,37.5C 21.4962,35.9651 21.3295,34.4651 20.5,33C 20.8333,32.5 21.1667,32 21.5,31.5C 22.6086,32.5896 23.6086,32.5896 24.5,31.5C 23.5721,30.2322 23.4054,28.8989 24,27.5C 26.2028,23.3657 29.0361,22.6991 32.5,25.5C 35.1599,22.9147 37.8265,20.4147 40.5,18C 44.4133,15.9052 48.4133,14.0719 52.5,12.5 Z"/></g>
<g><path style="opacity:1" fill="#dccf63" d="M 116.5,35.5 C 113.193,34.9492 109.86,34.6159 106.5,34.5C 106.567,35.9587 106.234,37.2921 105.5,38.5C 100.833,38.5 96.1667,38.5 91.5,38.5C 91.5,38.1667 91.5,37.8333 91.5,37.5C 95.7016,37.8168 99.7016,37.4834 103.5,36.5C 103.5,36.1667 103.5,35.8333 103.5,35.5C 107.198,33.494 111.198,32.994 115.5,34C 116.056,34.3826 116.389,34.8826 116.5,35.5 Z"/></g>
<g><path style="opacity:1" fill="#e1d037" d="M 103.5,36.5 C 99.7016,37.4834 95.7016,37.8168 91.5,37.5C 90.7561,35.5466 89.2561,34.5466 87,34.5C 68.5629,38.1337 53.7295,47.4671 42.5,62.5C 42.8333,59.8333 43.1667,57.1667 43.5,54.5C 44.8333,54.5 46.1667,54.5 47.5,54.5C 47.8333,51.5 49.5,49.8333 52.5,49.5C 52.2627,48.209 52.596,47.209 53.5,46.5C 54.675,46.719 55.675,46.3857 56.5,45.5C 55.5569,43.5302 56.2236,42.0302 58.5,41C 61.2263,40.8184 63.8929,40.3184 66.5,39.5C 71.8901,36.6098 77.5568,34.4431 83.5,33C 87.6277,31.7194 90.961,32.7194 93.5,36C 96.8168,36.4983 100.15,36.665 103.5,36.5 Z"/></g>
<g><path style="opacity:1" fill="#cdb73a" d="M 116.5,35.5 C 119.522,35.804 122.522,36.304 125.5,37C 126.756,37.4169 127.423,38.2502 127.5,39.5C 123.605,38.5376 119.939,37.2043 116.5,35.5 Z"/></g>
<g><path style="opacity:1" fill="#fad60d" d="M 160.5,28.5 C 160.833,28.5 161.167,28.5 161.5,28.5C 161.421,29.9305 161.754,31.2638 162.5,32.5C 161.675,33.3857 160.675,33.719 159.5,33.5C 159.5,34.8333 159.5,36.1667 159.5,37.5C 160.5,37.5 161.5,37.5 162.5,37.5C 162.5,39.5 162.5,41.5 162.5,43.5C 166.724,43.0525 168.391,44.7191 167.5,48.5C 163.699,50.0464 161.699,48.713 161.5,44.5C 160.178,44.67 159.011,44.3366 158,43.5C 157.64,45.4211 156.806,47.0878 155.5,48.5C 153.174,49.1447 151.507,50.478 150.5,52.5C 147.721,50.1394 145.054,47.806 142.5,45.5C 143.15,43.5648 143.483,41.5648 143.5,39.5C 144.978,39.762 146.311,39.4287 147.5,38.5C 146.834,37.1687 146.834,35.6687 147.5,34C 147.156,32.6349 146.489,31.4682 145.5,30.5C 146.262,26.4033 148.596,24.07 152.5,23.5C 152.921,25.9099 154.254,27.7432 156.5,29C 157.928,29.5791 159.262,29.4124 160.5,28.5 Z"/></g>
<g><path style="opacity:1" fill="#fcfcfb" d="M 141.5,-0.5 C 160.833,-0.5 180.167,-0.5 199.5,-0.5C 199.5,66.1667 199.5,132.833 199.5,199.5C 132.833,199.5 66.1667,199.5 -0.5,199.5C -0.5,172.167 -0.5,144.833 -0.5,117.5C 0.166667,117.5 0.833333,117.5 1.5,117.5C 2.21628,122.462 3.54961,127.129 5.5,131.5C 7.8084,139.44 11.1417,146.773 15.5,153.5C 15.5,153.833 15.5,154.167 15.5,154.5C 17.2733,157.06 19.2733,159.393 21.5,161.5C 22.1534,162.807 22.8201,164.14 23.5,165.5C 44.1559,166.5 64.8226,166.833 85.5,166.5C 85.5,165.5 85.5,164.5 85.5,163.5C 85.4208,162.07 85.7542,160.736 86.5,159.5C 67.7942,153.834 53.7942,142.501 44.5,125.5C 44.5,125.167 44.5,124.833 44.5,124.5C 33.5594,92.8223 41.8927,67.6556 69.5,49C 76.4288,45.3635 83.7621,43.1968 91.5,42.5C 91.5,41.1667 91.5,39.8333 91.5,38.5C 96.1667,38.5 100.833,38.5 105.5,38.5C 105.5,39.8333 105.5,41.1667 105.5,42.5C 129.752,45.578 146.252,58.578 155,81.5C 162.538,113.243 152.372,137.41 124.5,154C 120.637,155.732 116.637,157.066 112.5,158C 111.556,160.719 111.223,163.552 111.5,166.5C 132.5,166.5 153.5,166.5 174.5,166.5C 175.268,164.285 175.935,161.952 176.5,159.5C 179.277,157.049 181.277,154.049 182.5,150.5C 186.463,145.569 189.129,139.903 190.5,133.5C 191.167,132.167 191.833,130.833 192.5,129.5C 193.496,129.586 194.329,129.252 195,128.5C 197.636,116.797 198.136,105.13 196.5,93.5C 196.5,92.8333 196.5,92.1667 196.5,91.5C 196.662,85.4449 196.162,79.4449 195,73.5C 192.314,66.4057 189.481,59.4057 186.5,52.5C 185.675,51.6143 184.675,51.281 183.5,51.5C 181.858,48.1806 180.191,44.8472 178.5,41.5C 177.643,40.5748 176.643,39.9081 175.5,39.5C 174.167,37.5 172.5,35.8333 170.5,34.5C 170.167,33.8333 169.833,33.1667 169.5,32.5C 167.649,25.6434 163.316,21.6434 156.5,20.5C 156.5,19.5 156.5,18.5 156.5,17.5C 157.675,17.719 158.675,17.3857 159.5,16.5C 156.914,15.52 154.247,15.1866 151.5,15.5C 150.833,13.1667 150.167,10.8333 149.5,8.5C 146.318,7.9697 143.318,6.9697 140.5,5.5C 140.325,3.3792 140.659,1.3792 141.5,-0.5 Z"/></g>
<g><path style="opacity:1" fill="#eacf84" d="M 175.5,39.5 C 176.643,39.9081 177.643,40.5748 178.5,41.5C 180.191,44.8472 181.858,48.1806 183.5,51.5C 184.6,52.6049 185.267,53.9382 185.5,55.5C 182.989,52.603 180.655,49.603 178.5,46.5C 177.242,44.3131 176.242,41.9798 175.5,39.5 Z"/></g>
<g><path style="opacity:1" fill="#fad114" d="M 51.5,18.5 C 53.7278,20.4312 55.3945,22.2645 56.5,24C 53.5184,24.498 50.5184,24.6646 47.5,24.5C 47.5,25.5 47.5,26.5 47.5,27.5C 46.5,27.5 45.5,27.5 44.5,27.5C 44.3398,29.1992 44.5065,30.8659 45,32.5C 46.8173,34.4161 47.984,36.7494 48.5,39.5C 50.5994,37.4798 52.9327,37.1465 55.5,38.5C 53.9513,41.2054 53.2846,43.8721 53.5,46.5C 52.596,47.209 52.2627,48.209 52.5,49.5C 49.5,49.8333 47.8333,51.5 47.5,54.5C 46.1667,54.5 44.8333,54.5 43.5,54.5C 43.1667,57.1667 42.8333,59.8333 42.5,62.5C 40.5956,62.7376 39.2623,63.7376 38.5,65.5C 37.7109,65.2172 37.0442,64.7172 36.5,64C 38.154,61.5034 38.9874,59.0034 39,56.5C 40.0674,55.8095 41.2341,55.3095 42.5,55C 41.3563,50.1743 38.8563,49.341 35,52.5C 34.0615,55.1209 33.2281,57.7875 32.5,60.5C 31.5258,58.2573 31.1924,55.924 31.5,53.5C 29.1667,53.5 26.8333,53.5 24.5,53.5C 23.9371,51.09 23.4371,48.7567 23,46.5C 24.7067,47.1383 26.54,47.1383 28.5,46.5C 28.6621,44.4727 28.4955,42.4727 28,40.5C 26.6976,39.9152 25.531,39.2485 24.5,38.5C 26.838,35.8609 29.0047,36.1942 31,39.5C 30.9449,37.0853 30.6116,34.752 30,32.5C 31.8254,31.8971 33.6587,31.2304 35.5,30.5C 36.0736,28.9411 36.7402,27.4411 37.5,26C 39.5767,25.8078 41.5767,25.3078 43.5,24.5C 45.7169,21.9697 48.3836,19.9697 51.5,18.5 Z"/></g>
<g><path style="opacity:1" fill="#f5c71c" d="M 161.5,28.5 C 163.339,29.5077 164.672,31.0077 165.5,33C 167.154,33.6077 168.821,34.1077 170.5,34.5C 172.5,35.8333 174.167,37.5 175.5,39.5C 176.242,41.9798 177.242,44.3131 178.5,46.5C 178.678,47.6948 179.011,48.8615 179.5,50C 177.813,54.2835 176.813,58.7835 176.5,63.5C 170.634,60.8196 165.301,61.8196 160.5,66.5C 159.817,66.1373 159.15,65.8039 158.5,65.5C 158.167,64.8333 157.833,64.1667 157.5,63.5C 155.707,58.7673 153.374,55.1007 150.5,52.5C 151.507,50.478 153.174,49.1447 155.5,48.5C 156.806,47.0878 157.64,45.4211 158,43.5C 159.011,44.3366 160.178,44.67 161.5,44.5C 161.699,48.713 163.699,50.0464 167.5,48.5C 168.391,44.7191 166.724,43.0525 162.5,43.5C 162.5,41.5 162.5,39.5 162.5,37.5C 161.5,37.5 160.5,37.5 159.5,37.5C 159.5,36.1667 159.5,34.8333 159.5,33.5C 160.675,33.719 161.675,33.3857 162.5,32.5C 161.754,31.2638 161.421,29.9305 161.5,28.5 Z"/></g>
<g><path style="opacity:1" fill="#fbf9e6" d="M 14.5,47.5 C 9.70298,56.4214 6.03631,65.7548 3.5,75.5C 2.83333,75.8333 2.16667,76.1667 1.5,76.5C 1.73501,72.4233 2.40168,68.4233 3.5,64.5C 2.65178,62.5914 2.31845,60.5914 2.5,58.5C 3.82207,58.33 4.98873,58.6634 6,59.5C 6.9907,58.5704 7.4907,57.4038 7.5,56C 5.07379,53.7535 4.07379,50.9202 4.5,47.5C 6.16667,47.5 7.83333,47.5 9.5,47.5C 9.23798,48.9778 9.57131,50.3112 10.5,51.5C 11.6669,49.9208 13.0002,48.5875 14.5,47.5 Z"/></g>
<g><path style="opacity:1" fill="#ddc03c" d="M 135.5,43.5 C 137.833,44.1667 140.167,44.8333 142.5,45.5C 145.054,47.806 147.721,50.1394 150.5,52.5C 153.374,55.1007 155.707,58.7673 157.5,63.5C 156.833,63.5 156.167,63.5 155.5,63.5C 153.53,61.3533 151.697,59.02 150,56.5C 144.972,52.3011 140.139,47.9678 135.5,43.5 Z"/></g>
<g><path style="opacity:1" fill="#feefcc" d="M 183.5,51.5 C 184.675,51.281 185.675,51.6143 186.5,52.5C 189.481,59.4057 192.314,66.4057 195,73.5C 196.162,79.4449 196.662,85.4449 196.5,91.5C 195.672,86.6428 194.838,81.6428 194,76.5C 192,71.9987 190.5,67.332 189.5,62.5C 188.421,60.2143 187.087,58.2143 185.5,56.5C 185.5,56.1667 185.5,55.8333 185.5,55.5C 185.267,53.9382 184.6,52.6049 183.5,51.5 Z"/></g>
<g><path style="opacity:1" fill="#d7a85d" d="M 14.5,47.5 C 14.8333,47.5 15.1667,47.5 15.5,47.5C 14.1916,53.1258 12.0249,58.4591 9,63.5C 8.1785,66.1168 7.6785,68.7835 7.5,71.5C 5.83474,74.2502 4.16808,76.9169 2.5,79.5C 2.83333,78.1667 3.16667,76.8333 3.5,75.5C 6.03631,65.7548 9.70298,56.4214 14.5,47.5 Z"/></g>
<g><path style="opacity:1" fill="#f6bd1a" d="M 23.5,38.5 C 23.8333,38.5 24.1667,38.5 24.5,38.5C 25.531,39.2485 26.6976,39.9152 28,40.5C 28.4955,42.4727 28.6621,44.4727 28.5,46.5C 26.54,47.1383 24.7067,47.1383 23,46.5C 23.4371,48.7567 23.9371,51.09 24.5,53.5C 26.8333,53.5 29.1667,53.5 31.5,53.5C 31.1924,55.924 31.5258,58.2573 32.5,60.5C 33.2281,57.7875 34.0615,55.1209 35,52.5C 38.8563,49.341 41.3563,50.1743 42.5,55C 41.2341,55.3095 40.0674,55.8095 39,56.5C 38.9874,59.0034 38.154,61.5034 36.5,64C 37.0442,64.7172 37.7109,65.2172 38.5,65.5C 38.2648,66.0967 37.7648,66.4301 37,66.5C 35.0501,65.7175 33.2168,64.7175 31.5,63.5C 29.1918,65.4707 26.8585,67.4707 24.5,69.5C 15.7906,60.6127 15.2906,51.2794 23,41.5C 23.4828,40.552 23.6495,39.552 23.5,38.5 Z"/></g>
<g><path style="opacity:1" fill="#0f0909" d="M 91.5,37.5 C 91.5,37.8333 91.5,38.1667 91.5,38.5C 91.5,39.8333 91.5,41.1667 91.5,42.5C 83.7621,43.1968 76.4288,45.3635 69.5,49C 41.8927,67.6556 33.5594,92.8223 44.5,124.5C 42.822,125.747 41.4887,127.414 40.5,129.5C 38.0859,124.459 36.4192,119.126 35.5,113.5C 35.1237,111.197 34.1237,110.863 32.5,112.5C 32.5,111.833 32.1667,111.5 31.5,111.5C 31.0715,102.39 31.7381,93.39 33.5,84.5C 34.6502,78.5331 36.6502,72.8664 39.5,67.5C 40.7368,66.0351 41.7368,64.3684 42.5,62.5C 53.7295,47.4671 68.5629,38.1337 87,34.5C 89.2561,34.5466 90.7561,35.5466 91.5,37.5 Z"/></g>
<g><path style="opacity:1" fill="#f1ab22" d="M 178.5,46.5 C 180.655,49.603 182.989,52.603 185.5,55.5C 185.5,55.8333 185.5,56.1667 185.5,56.5C 185.167,57.1667 184.833,57.8333 184.5,58.5C 183.005,58.4148 182.005,59.0815 181.5,60.5C 183.266,64.6742 182.266,68.0076 178.5,70.5C 177.754,71.7362 177.421,73.0695 177.5,74.5C 176.167,74.5 174.833,74.5 173.5,74.5C 173.5,76.1667 173.5,77.8333 173.5,79.5C 172.167,79.5 170.833,79.5 169.5,79.5C 169.306,82.3297 168.639,84.9963 167.5,87.5C 165.896,86.713 165.229,85.3797 165.5,83.5C 165.778,78.7188 164.278,74.7188 161,71.5C 159.878,69.5932 159.045,67.5932 158.5,65.5C 159.15,65.8039 159.817,66.1373 160.5,66.5C 165.301,61.8196 170.634,60.8196 176.5,63.5C 176.813,58.7835 177.813,54.2835 179.5,50C 179.011,48.8615 178.678,47.6948 178.5,46.5 Z"/></g>
<g><path style="opacity:1" fill="#ecab27" d="M 23.5,38.5 C 23.6495,39.552 23.4828,40.552 23,41.5C 15.2906,51.2794 15.7906,60.6127 24.5,69.5C 26.8585,67.4707 29.1918,65.4707 31.5,63.5C 33.2168,64.7175 35.0501,65.7175 37,66.5C 37.7648,66.4301 38.2648,66.0967 38.5,65.5C 39.2623,63.7376 40.5956,62.7376 42.5,62.5C 41.7368,64.3684 40.7368,66.0351 39.5,67.5C 37.5237,70.0886 35.5237,72.7553 33.5,75.5C 33.4921,72.4552 33.1587,69.4552 32.5,66.5C 28.5,67.1667 26.1667,69.5 25.5,73.5C 20.566,72.2306 17.2327,69.2306 15.5,64.5C 14.3717,63.7379 13.2051,63.0712 12,62.5C 10.1987,65.3996 8.69874,68.3996 7.5,71.5C 7.6785,68.7835 8.1785,66.1168 9,63.5C 12.0249,58.4591 14.1916,53.1258 15.5,47.5C 17.8242,44.177 20.4908,41.177 23.5,38.5 Z"/></g>
<g><path style="opacity:1" fill="#ec9c25" d="M 184.5,58.5 C 186.293,65.2586 189.127,71.5919 193,77.5C 193.495,79.4727 193.662,81.4727 193.5,83.5C 193.167,83.5 192.833,83.5 192.5,83.5C 191.58,82.9326 191.246,83.5992 191.5,85.5C 188.712,85.9231 186.712,84.9231 185.5,82.5C 187.185,78.3393 187.852,74.006 187.5,69.5C 186.167,69.5 184.833,69.5 183.5,69.5C 183.998,73.2194 183.164,76.5527 181,79.5C 177.863,80.1614 175.03,81.4948 172.5,83.5C 171.914,83.2907 171.414,82.9574 171,82.5C 170.187,84.4357 169.687,86.4357 169.5,88.5C 168.833,88.8333 168.167,89.1667 167.5,89.5C 167.5,88.8333 167.5,88.1667 167.5,87.5C 168.639,84.9963 169.306,82.3297 169.5,79.5C 170.833,79.5 172.167,79.5 173.5,79.5C 173.5,77.8333 173.5,76.1667 173.5,74.5C 174.833,74.5 176.167,74.5 177.5,74.5C 177.421,73.0695 177.754,71.7362 178.5,70.5C 182.266,68.0076 183.266,64.6742 181.5,60.5C 182.005,59.0815 183.005,58.4148 184.5,58.5 Z"/></g>
<g><path style="opacity:1" fill="#d3a056" d="M 185.5,56.5 C 187.087,58.2143 188.421,60.2143 189.5,62.5C 190.5,67.332 192,71.9987 194,76.5C 194.838,81.6428 195.672,86.6428 196.5,91.5C 196.5,92.1667 196.5,92.8333 196.5,93.5C 196.5,94.1667 196.5,94.8333 196.5,95.5C 195.833,95.5 195.167,95.5 194.5,95.5C 194.763,91.3998 194.43,87.3998 193.5,83.5C 193.662,81.4727 193.495,79.4727 193,77.5C 189.127,71.5919 186.293,65.2586 184.5,58.5C 184.833,57.8333 185.167,57.1667 185.5,56.5 Z"/></g>
<g><path style="opacity:1" fill="#d9a95b" d="M 39.5,67.5 C 36.6502,72.8664 34.6502,78.5331 33.5,84.5C 32.8333,84.8333 32.1667,85.1667 31.5,85.5C 31.5465,82.0314 32.2132,78.698 33.5,75.5C 35.5237,72.7553 37.5237,70.0886 39.5,67.5 Z"/></g>
<g><path style="opacity:1" fill="#0f0808" d="M 116.5,35.5 C 119.939,37.2043 123.605,38.5376 127.5,39.5C 129.849,41.341 132.515,42.6743 135.5,43.5C 140.139,47.9678 144.972,52.3011 150,56.5C 151.697,59.02 153.53,61.3533 155.5,63.5C 158.949,69.5146 161.615,75.848 163.5,82.5C 164.425,86.7902 165.091,91.1235 165.5,95.5C 166.373,110.988 162.873,125.321 155,138.5C 149.292,144.075 143.792,149.742 138.5,155.5C 136.91,155.628 135.577,156.295 134.5,157.5C 148.15,158.499 161.817,158.833 175.5,158.5C 175.5,158.833 175.5,159.167 175.5,159.5C 174.532,161.607 174.198,163.941 174.5,166.5C 153.5,166.5 132.5,166.5 111.5,166.5C 111.223,163.552 111.556,160.719 112.5,158C 116.637,157.066 120.637,155.732 124.5,154C 152.372,137.41 162.538,113.243 155,81.5C 146.252,58.578 129.752,45.578 105.5,42.5C 105.5,41.1667 105.5,39.8333 105.5,38.5C 106.234,37.2921 106.567,35.9587 106.5,34.5C 109.86,34.6159 113.193,34.9492 116.5,35.5 Z"/></g>
<g><path style="opacity:1" fill="#ee9e22" d="M 33.5,75.5 C 32.2132,78.698 31.5465,82.0314 31.5,85.5C 31.1667,86.8333 30.8333,88.1667 30.5,89.5C 26.9524,89.0507 23.619,88.0507 20.5,86.5C 20.7135,84.8561 20.3802,83.3561 19.5,82C 17.5448,81.0467 15.8782,79.7134 14.5,78C 11.9398,77.6162 9.60645,76.7829 7.5,75.5C 7.5,74.1667 7.5,72.8333 7.5,71.5C 8.69874,68.3996 10.1987,65.3996 12,62.5C 13.2051,63.0712 14.3717,63.7379 15.5,64.5C 17.2327,69.2306 20.566,72.2306 25.5,73.5C 26.1667,69.5 28.5,67.1667 32.5,66.5C 33.1587,69.4552 33.4921,72.4552 33.5,75.5 Z"/></g>
<g><path style="opacity:1" fill="#e1ab51" d="M 155.5,63.5 C 156.167,63.5 156.833,63.5 157.5,63.5C 157.833,64.1667 158.167,64.8333 158.5,65.5C 159.045,67.5932 159.878,69.5932 161,71.5C 164.278,74.7188 165.778,78.7188 165.5,83.5C 164.833,83.1667 164.167,82.8333 163.5,82.5C 161.615,75.848 158.949,69.5146 155.5,63.5 Z"/></g>
<g><path style="opacity:1" fill="#fce0be" d="M 3.5,75.5 C 3.16667,76.8333 2.83333,78.1667 2.5,79.5C 1.31549,84.4246 0.648825,89.4246 0.5,94.5C 0.308936,102.201 0.64227,109.868 1.5,117.5C 0.833333,117.5 0.166667,117.5 -0.5,117.5C -0.5,104.833 -0.5,92.1667 -0.5,79.5C 1.04814,79.1788 1.71481,78.1788 1.5,76.5C 2.16667,76.1667 2.83333,75.8333 3.5,75.5 Z"/></g>
<g><path style="opacity:1" fill="#e18a30" d="M 7.5,71.5 C 7.5,72.8333 7.5,74.1667 7.5,75.5C 6.56552,76.5676 6.23219,77.901 6.5,79.5C 7.5,79.5 8.5,79.5 9.5,79.5C 9.66568,83.8461 9.49902,88.1794 9,92.5C 6.38627,90.9435 5.05293,88.6102 5,85.5C 3.68424,88.6883 3.18424,92.0217 3.5,95.5C 3.16667,95.5 2.83333,95.5 2.5,95.5C 1.83333,95.1667 1.16667,94.8333 0.5,94.5C 0.648825,89.4246 1.31549,84.4246 2.5,79.5C 4.16808,76.9169 5.83474,74.2502 7.5,71.5 Z"/></g>
<g><path style="opacity:1" fill="#ea8c22" d="M 192.5,83.5 C 192.5,84.8333 192.5,86.1667 192.5,87.5C 184.894,86.2035 177.227,86.5369 169.5,88.5C 169.687,86.4357 170.187,84.4357 171,82.5C 171.414,82.9574 171.914,83.2907 172.5,83.5C 175.03,81.4948 177.863,80.1614 181,79.5C 183.164,76.5527 183.998,73.2194 183.5,69.5C 184.833,69.5 186.167,69.5 187.5,69.5C 187.852,74.006 187.185,78.3393 185.5,82.5C 186.712,84.9231 188.712,85.9231 191.5,85.5C 191.246,83.5992 191.58,82.9326 192.5,83.5 Z"/></g>
<g><path style="opacity:1" fill="#e78023" d="M 7.5,75.5 C 9.60645,76.7829 11.9398,77.6162 14.5,78C 15.8782,79.7134 17.5448,81.0467 19.5,82C 20.3802,83.3561 20.7135,84.8561 20.5,86.5C 23.619,88.0507 26.9524,89.0507 30.5,89.5C 30.5,91.5 30.5,93.5 30.5,95.5C 26.1524,95.9093 21.819,96.0759 17.5,96C 16.2298,95.1004 15.2298,93.9337 14.5,92.5C 13.6143,93.325 13.281,94.325 13.5,95.5C 10.1667,95.5 6.83333,95.5 3.5,95.5C 3.18424,92.0217 3.68424,88.6883 5,85.5C 5.05293,88.6102 6.38627,90.9435 9,92.5C 9.49902,88.1794 9.66568,83.8461 9.5,79.5C 8.5,79.5 7.5,79.5 6.5,79.5C 6.23219,77.901 6.56552,76.5676 7.5,75.5 Z"/></g>
<g><path style="opacity:1" fill="#e37c26" d="M 192.5,83.5 C 192.833,83.5 193.167,83.5 193.5,83.5C 194.43,87.3998 194.763,91.3998 194.5,95.5C 192.411,94.1086 190.078,93.4419 187.5,93.5C 180.751,95.134 174.085,95.8007 167.5,95.5C 167.5,93.5 167.5,91.5 167.5,89.5C 168.167,89.1667 168.833,88.8333 169.5,88.5C 177.227,86.5369 184.894,86.2035 192.5,87.5C 192.5,86.1667 192.5,84.8333 192.5,83.5 Z"/></g>
<g><path style="opacity:1" fill="#c77840" d="M 163.5,82.5 C 164.167,82.8333 164.833,83.1667 165.5,83.5C 165.229,85.3797 165.896,86.713 167.5,87.5C 167.5,88.1667 167.5,88.8333 167.5,89.5C 167.5,91.5 167.5,93.5 167.5,95.5C 167.5,100.833 167.5,106.167 167.5,111.5C 167.167,111.5 166.833,111.5 166.5,111.5C 166.821,105.974 166.488,100.64 165.5,95.5C 165.091,91.1235 164.425,86.7902 163.5,82.5 Z"/></g>
<g><path style="opacity:1" fill="#dc6027" d="M 194.5,95.5 C 194.5,98.1667 194.5,100.833 194.5,103.5C 194.167,103.5 193.833,103.5 193.5,103.5C 187.23,104.218 181.397,106.218 176,109.5C 175.047,107.408 173.714,107.075 172,108.5C 171.29,107.027 170.124,106.36 168.5,106.5C 168.784,108.415 168.451,110.081 167.5,111.5C 167.5,106.167 167.5,100.833 167.5,95.5C 174.085,95.8007 180.751,95.134 187.5,93.5C 190.078,93.4419 192.411,94.1086 194.5,95.5 Z"/></g>
<g><path style="opacity:1" fill="#dd6527" d="M 30.5,95.5 C 30.5,98.8333 30.5,102.167 30.5,105.5C 29.0609,106.509 27.7276,106.176 26.5,104.5C 25.1667,105.833 23.8333,107.167 22.5,108.5C 19.3452,107.21 17.3452,104.877 16.5,101.5C 15.7836,102.311 14.9503,102.978 14,103.5C 11.3836,102.532 9.3836,100.865 8,98.5C 7.61211,99.428 6.94544,100.095 6,100.5C 4.86151,100.011 3.69484,99.6775 2.5,99.5C 2.5,98.1667 2.5,96.8333 2.5,95.5C 2.83333,95.5 3.16667,95.5 3.5,95.5C 6.83333,95.5 10.1667,95.5 13.5,95.5C 13.281,94.325 13.6143,93.325 14.5,92.5C 15.2298,93.9337 16.2298,95.1004 17.5,96C 21.819,96.0759 26.1524,95.9093 30.5,95.5 Z"/></g>
<g><path style="opacity:1" fill="#be723e" d="M 33.5,84.5 C 31.7381,93.39 31.0715,102.39 31.5,111.5C 30.5386,109.735 30.2053,107.735 30.5,105.5C 30.5,102.167 30.5,98.8333 30.5,95.5C 30.5,93.5 30.5,91.5 30.5,89.5C 30.8333,88.1667 31.1667,86.8333 31.5,85.5C 32.1667,85.1667 32.8333,84.8333 33.5,84.5 Z"/></g>
<g><path style="opacity:1" fill="#d74327" d="M 193.5,103.5 C 193.893,109.678 193.06,115.678 191,121.5C 186.823,123.163 184.323,121.83 183.5,117.5C 180.833,117.167 178.167,116.833 175.5,116.5C 175.5,119.167 175.5,121.833 175.5,124.5C 175.565,124.938 175.399,125.272 175,125.5C 171.779,122.272 170.279,122.938 170.5,127.5C 168.833,127.5 167.167,127.5 165.5,127.5C 165.843,125.517 165.176,124.183 163.5,123.5C 165.005,119.647 166.005,115.647 166.5,111.5C 166.833,111.5 167.167,111.5 167.5,111.5C 168.451,110.081 168.784,108.415 168.5,106.5C 170.124,106.36 171.29,107.027 172,108.5C 173.714,107.075 175.047,107.408 176,109.5C 181.397,106.218 187.23,104.218 193.5,103.5 Z"/></g>
<g><path style="opacity:1" fill="#b3533e" d="M 0.5,94.5 C 1.16667,94.8333 1.83333,95.1667 2.5,95.5C 2.5,96.8333 2.5,98.1667 2.5,99.5C 3.16213,103.466 3.49546,107.466 3.5,111.5C 3.06944,117.028 3.7361,122.361 5.5,127.5C 5.5,128.833 5.5,130.167 5.5,131.5C 3.54961,127.129 2.21628,122.462 1.5,117.5C 0.64227,109.868 0.308936,102.201 0.5,94.5 Z"/></g>
<g><path style="opacity:1" fill="#d64726" d="M 30.5,105.5 C 30.2053,107.735 30.5386,109.735 31.5,111.5C 31.3347,115.182 31.5014,118.848 32,122.5C 32.3826,123.056 32.8826,123.389 33.5,123.5C 33.6567,124.873 33.49,126.207 33,127.5C 31.7267,125.286 30.7267,122.953 30,120.5C 29.0094,121.939 27.676,122.939 26,123.5C 24.6796,123.201 23.1796,123.034 21.5,123C 22.9733,122.29 23.6399,121.124 23.5,119.5C 21.7231,119.214 20.0564,118.547 18.5,117.5C 17.5581,117.608 16.7247,117.941 16,118.5C 14.3596,114.555 12.3596,110.888 10,107.5C 9.32735,110.687 8.82735,114.021 8.5,117.5C 7.45928,115.009 6.62595,115.009 6,117.5C 5.66667,117.167 5.33333,116.833 5,116.5C 4.80192,114.618 4.30192,112.952 3.5,111.5C 3.49546,107.466 3.16213,103.466 2.5,99.5C 3.69484,99.6775 4.86151,100.011 6,100.5C 6.94544,100.095 7.61211,99.428 8,98.5C 9.3836,100.865 11.3836,102.532 14,103.5C 14.9503,102.978 15.7836,102.311 16.5,101.5C 17.3452,104.877 19.3452,107.21 22.5,108.5C 23.8333,107.167 25.1667,105.833 26.5,104.5C 27.7276,106.176 29.0609,106.509 30.5,105.5 Z"/></g>
<g><path style="opacity:1" fill="#ad5548" d="M 194.5,95.5 C 195.167,95.5 195.833,95.5 196.5,95.5C 196.97,107.076 195.636,118.409 192.5,129.5C 191.833,130.833 191.167,132.167 190.5,133.5C 190.718,127.96 191.885,122.627 194,117.5C 194.499,112.845 194.666,108.179 194.5,103.5C 194.5,100.833 194.5,98.1667 194.5,95.5 Z"/></g>
<g><path style="opacity:1" fill="#fde2de" d="M 196.5,93.5 C 198.136,105.13 197.636,116.797 195,128.5C 194.329,129.252 193.496,129.586 192.5,129.5C 195.636,118.409 196.97,107.076 196.5,95.5C 196.5,94.8333 196.5,94.1667 196.5,93.5 Z"/></g>
<g><path style="opacity:1" fill="#bb4f3f" d="M 31.5,111.5 C 32.1667,111.5 32.5,111.833 32.5,112.5C 33.5442,117.585 34.8776,122.585 36.5,127.5C 35.0221,126.552 34.0221,125.219 33.5,123.5C 32.8826,123.389 32.3826,123.056 32,122.5C 31.5014,118.848 31.3347,115.182 31.5,111.5 Z"/></g>
<g><path style="opacity:1" fill="#230504" d="M 44.5,124.5 C 44.5,124.833 44.5,125.167 44.5,125.5C 44.116,128.915 43.7827,132.581 43.5,136.5C 42.3569,136.092 41.3569,135.425 40.5,134.5C 39.5236,131.837 38.1903,129.504 36.5,127.5C 34.8776,122.585 33.5442,117.585 32.5,112.5C 34.1237,110.863 35.1237,111.197 35.5,113.5C 36.4192,119.126 38.0859,124.459 40.5,129.5C 41.4887,127.414 42.822,125.747 44.5,124.5 Z"/></g>
<g><path style="opacity:1" fill="#d62e27" d="M 163.5,123.5 C 165.176,124.183 165.843,125.517 165.5,127.5C 167.167,127.5 168.833,127.5 170.5,127.5C 170.279,122.938 171.779,122.272 175,125.5C 175.399,125.272 175.565,124.938 175.5,124.5C 178.285,123.916 179.952,124.916 180.5,127.5C 178.822,132.655 177.822,138.155 177.5,144C 171.569,145.471 165.569,145.804 159.5,145C 159,144.5 158.5,144 158,143.5C 156.196,145.981 154.696,145.981 153.5,143.5C 155.842,140.316 158.008,136.983 160,133.5C 160.898,130.045 162.065,126.711 163.5,123.5 Z"/></g>
<g><path style="opacity:1" fill="#c7312d" d="M 193.5,103.5 C 193.833,103.5 194.167,103.5 194.5,103.5C 194.666,108.179 194.499,112.845 194,117.5C 191.885,122.627 190.718,127.96 190.5,133.5C 189.129,139.903 186.463,145.569 182.5,150.5C 181.833,150.833 181.167,151.167 180.5,151.5C 180.596,145.062 181.43,138.729 183,132.5C 182.783,145.552 184.283,145.719 187.5,133C 187.272,129.739 185.772,128.572 183,129.5C 182.583,128.244 181.75,127.577 180.5,127.5C 179.952,124.916 178.285,123.916 175.5,124.5C 175.5,121.833 175.5,119.167 175.5,116.5C 178.167,116.833 180.833,117.167 183.5,117.5C 184.323,121.83 186.823,123.163 191,121.5C 193.06,115.678 193.893,109.678 193.5,103.5 Z"/></g>
<g><path style="opacity:1" fill="#a63834" d="M 165.5,95.5 C 166.488,100.64 166.821,105.974 166.5,111.5C 166.005,115.647 165.005,119.647 163.5,123.5C 162.065,126.711 160.898,130.045 160,133.5C 158.008,136.983 155.842,140.316 153.5,143.5C 149.943,147.951 145.943,151.951 141.5,155.5C 153.148,156.499 164.814,156.832 176.5,156.5C 176.5,155.5 176.5,154.5 176.5,153.5C 178.483,153.843 179.817,153.176 180.5,151.5C 181.167,151.167 181.833,150.833 182.5,150.5C 181.277,154.049 179.277,157.049 176.5,159.5C 176.167,159.5 175.833,159.5 175.5,159.5C 175.5,159.167 175.5,158.833 175.5,158.5C 162.966,158.16 150.633,157.16 138.5,155.5C 143.792,149.742 149.292,144.075 155,138.5C 162.873,125.321 166.373,110.988 165.5,95.5 Z"/></g>
<g><path style="opacity:1" fill="#b53c38" d="M 5.5,127.5 C 6.75124,129.382 7.9179,131.382 9,133.5C 11.2284,140.081 13.3951,146.747 15.5,153.5C 11.1417,146.773 7.8084,139.44 5.5,131.5C 5.5,130.167 5.5,128.833 5.5,127.5 Z"/></g>
<g><path style="opacity:1" fill="#d32d28" d="M 33.5,123.5 C 34.0221,125.219 35.0221,126.552 36.5,127.5C 36.3379,129.527 36.5045,131.527 37,133.5C 39.1976,136.597 41.3642,139.597 43.5,142.5C 43.428,144.311 42.5947,145.644 41,146.5C 39.5349,145.67 38.0349,145.504 36.5,146C 35.2713,147.529 33.7713,148.696 32,149.5C 31.8253,153.211 31.3253,156.878 30.5,160.5C 29.0488,162.559 27.0488,163.559 24.5,163.5C 24.0269,162.094 23.0269,161.427 21.5,161.5C 21.5902,157.335 19.5902,155.002 15.5,154.5C 15.5,154.167 15.5,153.833 15.5,153.5C 13.3951,146.747 11.2284,140.081 9,133.5C 7.9179,131.382 6.75124,129.382 5.5,127.5C 3.7361,122.361 3.06944,117.028 3.5,111.5C 4.30192,112.952 4.80192,114.618 5,116.5C 5.33333,116.833 5.66667,117.167 6,117.5C 6.62595,115.009 7.45928,115.009 8.5,117.5C 8.82735,114.021 9.32735,110.687 10,107.5C 12.3596,110.888 14.3596,114.555 16,118.5C 16.7247,117.941 17.5581,117.608 18.5,117.5C 20.0564,118.547 21.7231,119.214 23.5,119.5C 23.6399,121.124 22.9733,122.29 21.5,123C 23.1796,123.034 24.6796,123.201 26,123.5C 27.676,122.939 29.0094,121.939 30,120.5C 30.7267,122.953 31.7267,125.286 33,127.5C 33.49,126.207 33.6567,124.873 33.5,123.5 Z"/></g>
<g><path style="opacity:1" fill="#a4322d" d="M 36.5,127.5 C 38.1903,129.504 39.5236,131.837 40.5,134.5C 41.3569,135.425 42.3569,136.092 43.5,136.5C 44.5114,138.372 45.3448,140.372 46,142.5C 48.705,145.036 51.205,147.703 53.5,150.5C 51.2843,149.797 49.451,148.464 48,146.5C 47.586,146.957 47.086,147.291 46.5,147.5C 45.9348,145.456 44.9348,143.79 43.5,142.5C 41.3642,139.597 39.1976,136.597 37,133.5C 36.5045,131.527 36.3379,129.527 36.5,127.5 Z"/></g>
<g><path style="opacity:1" fill="#ce2629" d="M 180.5,127.5 C 181.75,127.577 182.583,128.244 183,129.5C 185.772,128.572 187.272,129.739 187.5,133C 184.283,145.719 182.783,145.552 183,132.5C 181.43,138.729 180.596,145.062 180.5,151.5C 179.817,153.176 178.483,153.843 176.5,153.5C 176.5,154.5 176.5,155.5 176.5,156.5C 164.814,156.832 153.148,156.499 141.5,155.5C 145.943,151.951 149.943,147.951 153.5,143.5C 154.696,145.981 156.196,145.981 158,143.5C 158.5,144 159,144.5 159.5,145C 165.569,145.804 171.569,145.471 177.5,144C 177.822,138.155 178.822,132.655 180.5,127.5 Z"/></g>
<g><path style="opacity:1" fill="#b2464a" d="M 15.5,154.5 C 19.5902,155.002 21.5902,157.335 21.5,161.5C 19.2733,159.393 17.2733,157.06 15.5,154.5 Z"/></g>
<g><path style="opacity:1" fill="#110909" d="M 44.5,125.5 C 53.7942,142.501 67.7942,153.834 86.5,159.5C 85.7542,160.736 85.4208,162.07 85.5,163.5C 81.9426,166.005 78.2759,166.005 74.5,163.5C 69.3413,161.088 64.3413,158.421 59.5,155.5C 57.5,153.833 55.5,152.167 53.5,150.5C 51.205,147.703 48.705,145.036 46,142.5C 45.3448,140.372 44.5114,138.372 43.5,136.5C 43.7827,132.581 44.116,128.915 44.5,125.5 Z"/></g>
<g><path style="opacity:1" fill="#833235" d="M 138.5,155.5 C 150.633,157.16 162.966,158.16 175.5,158.5C 161.817,158.833 148.15,158.499 134.5,157.5C 135.577,156.295 136.91,155.628 138.5,155.5 Z"/></g>
<g><path style="opacity:1" fill="#c9262a" d="M 43.5,142.5 C 44.9348,143.79 45.9348,145.456 46.5,147.5C 47.086,147.291 47.586,146.957 48,146.5C 49.451,148.464 51.2843,149.797 53.5,150.5C 55.5,152.167 57.5,153.833 59.5,155.5C 59.5394,156.583 59.8728,157.583 60.5,158.5C 62.5096,159.065 64.1763,160.065 65.5,161.5C 65.0233,162.478 64.3567,163.311 63.5,164C 51.6595,164.169 39.9928,164.669 28.5,165.5C 26.6203,165.771 25.287,165.104 24.5,163.5C 27.0488,163.559 29.0488,162.559 30.5,160.5C 31.3253,156.878 31.8253,153.211 32,149.5C 33.7713,148.696 35.2713,147.529 36.5,146C 38.0349,145.504 39.5349,145.67 41,146.5C 42.5947,145.644 43.428,144.311 43.5,142.5 Z"/></g>
<g><path style="opacity:1" fill="#b3393a" d="M 59.5,155.5 C 64.3413,158.421 69.3413,161.088 74.5,163.5C 59.5364,165.484 44.2031,166.151 28.5,165.5C 39.9928,164.669 51.6595,164.169 63.5,164C 64.3567,163.311 65.0233,162.478 65.5,161.5C 64.1763,160.065 62.5096,159.065 60.5,158.5C 59.8728,157.583 59.5394,156.583 59.5,155.5 Z"/></g>
<g><path style="opacity:1" fill="#5d4f52" d="M 175.5,159.5 C 175.833,159.5 176.167,159.5 176.5,159.5C 175.935,161.952 175.268,164.285 174.5,166.5C 174.198,163.941 174.532,161.607 175.5,159.5 Z"/></g>
<g><path style="opacity:1" fill="#9b5752" d="M 21.5,161.5 C 23.0269,161.427 24.0269,162.094 24.5,163.5C 25.287,165.104 26.6203,165.771 28.5,165.5C 44.2031,166.151 59.5364,165.484 74.5,163.5C 78.2759,166.005 81.9426,166.005 85.5,163.5C 85.5,164.5 85.5,165.5 85.5,166.5C 64.8226,166.833 44.1559,166.5 23.5,165.5C 22.8201,164.14 22.1534,162.807 21.5,161.5 Z"/></g>
<g><path style="opacity:1" fill="#757372" d="M 71.5,172.5 C 75.9113,172.021 80.078,172.688 84,174.5C 83.7525,180.422 83.9191,186.422 84.5,192.5C 82.8333,192.5 81.1667,192.5 79.5,192.5C 79.5,189.833 79.5,187.167 79.5,184.5C 78.5,184.5 77.5,184.5 76.5,184.5C 76.5,187.167 76.5,189.833 76.5,192.5C 74.8333,192.5 73.1667,192.5 71.5,192.5C 71.5,185.833 71.5,179.167 71.5,172.5 Z"/></g>
<g><path style="opacity:1" fill="#727270" d="M 87.5,172.5 C 89.1667,172.5 90.8333,172.5 92.5,172.5C 92.5,179.167 92.5,185.833 92.5,192.5C 90.8333,192.5 89.1667,192.5 87.5,192.5C 87.5,185.833 87.5,179.167 87.5,172.5 Z"/></g>
<g><path style="opacity:1" fill="#dfdcda" d="M 76.5,176.5 C 77.5,176.5 78.5,176.5 79.5,176.5C 79.5,177.833 79.5,179.167 79.5,180.5C 78.5,180.5 77.5,180.5 76.5,180.5C 76.5,179.167 76.5,177.833 76.5,176.5 Z"/></g>
<g><path style="opacity:1" fill="#777374" d="M 124.5,176.5 C 126.256,177.552 126.923,179.219 126.5,181.5C 125.178,181.33 124.011,181.663 123,182.5C 122.502,185.817 122.335,189.15 122.5,192.5C 120.833,192.5 119.167,192.5 117.5,192.5C 117.5,187.5 117.5,182.5 117.5,177.5C 120.059,177.802 122.393,177.468 124.5,176.5 Z"/></g>
<g><path style="opacity:1" fill="#7a7979" d="M 104.5,172.5 C 107.187,172.336 109.854,172.503 112.5,173C 114.607,174.264 115.607,176.097 115.5,178.5C 113.833,178.5 112.167,178.5 110.5,178.5C 110.5,177.5 110.5,176.5 110.5,175.5C 109.5,175.5 108.5,175.5 107.5,175.5C 107.5,179.833 107.5,184.167 107.5,188.5C 108.5,188.5 109.5,188.5 110.5,188.5C 109.551,186.263 108.884,183.929 108.5,181.5C 110.833,181.5 113.167,181.5 115.5,181.5C 115.5,185.167 115.5,188.833 115.5,192.5C 111.818,192.665 108.152,192.499 104.5,192C 103.692,191.692 103.025,191.192 102.5,190.5C 101.386,185.554 101.219,180.554 102,175.5C 103.045,174.627 103.878,173.627 104.5,172.5 Z"/></g>
<g><path style="opacity:1" fill="#757574" d="M 156.5,177.5 C 160.767,177.203 164.934,177.536 169,178.5C 169.667,182.167 169.667,185.833 169,189.5C 167.174,193.037 164.84,193.371 162,190.5C 161.503,192.81 161.337,195.143 161.5,197.5C 159.833,197.5 158.167,197.5 156.5,197.5C 156.5,190.833 156.5,184.167 156.5,177.5 Z"/></g>
<g><path style="opacity:1" fill="#7f7b7a" d="M 141.5,177.5 C 143.5,177.5 145.5,177.5 147.5,177.5C 148.167,192.167 148.833,192.167 149.5,177.5C 151.5,177.5 153.5,177.5 155.5,177.5C 155.5,182.5 155.5,187.5 155.5,192.5C 152.252,191.868 149.085,191.868 146,192.5C 144.289,192.561 142.956,191.894 142,190.5C 141.501,186.179 141.334,181.846 141.5,177.5 Z"/></g>
<g><path style="opacity:1" fill="#e2e2e2" d="M 161.5,181.5 C 162.5,181.5 163.5,181.5 164.5,181.5C 164.5,183.833 164.5,186.167 164.5,188.5C 163.5,188.5 162.5,188.5 161.5,188.5C 161.5,186.167 161.5,183.833 161.5,181.5 Z"/></g>
<g><path style="opacity:1" fill="#797676" d="M 24.5,172.5 C 27.8499,172.335 31.1832,172.502 34.5,173C 35,173.5 35.5,174 36,174.5C 36.3825,180.339 36.5492,186.006 36.5,191.5C 39.0475,185.442 40.7141,179.109 41.5,172.5C 44.1667,172.5 46.8333,172.5 49.5,172.5C 53.6232,197.457 55.2899,197.457 54.5,172.5C 67.9839,170.757 72.4839,176.423 68,189.5C 67.5,190.667 66.6667,191.5 65.5,192C 59.5092,192.499 53.5092,192.666 47.5,192.5C 47.5,191.5 47.5,190.5 47.5,189.5C 46.1667,189.5 44.8333,189.5 43.5,189.5C 43.5,190.5 43.5,191.5 43.5,192.5C 40.0941,192.302 37.0941,193.302 34.5,195.5C 31.644,193.124 28.3107,191.79 24.5,191.5C 21.8364,185.146 21.8364,178.813 24.5,172.5 Z"/></g>
<g><path style="opacity:1" fill="#edeae9" d="M 60.5,176.5 C 61.5,176.5 62.5,176.5 63.5,176.5C 63.6653,180.182 63.4986,183.848 63,187.5C 62.586,187.957 62.086,188.291 61.5,188.5C 60.5091,184.555 60.1758,180.555 60.5,176.5 Z"/></g>
<g><path style="opacity:1" fill="#e1dddc" d="M 45.5,177.5 C 46.8003,180.024 46.8003,182.691 45.5,185.5C 44.3855,182.844 44.3855,180.177 45.5,177.5 Z"/></g>
<g><path style="opacity:1" fill="#ebebeb" d="M 28.5,175.5 C 29.4959,175.414 30.3292,175.748 31,176.5C 31.6667,180.167 31.6667,183.833 31,187.5C 30.586,187.957 30.086,188.291 29.5,188.5C 28.5078,184.217 28.1744,179.884 28.5,175.5 Z"/></g>
<g><path style="opacity:1" fill="#797574" d="M 131.5,176.5 C 140.123,176.713 142.956,181.047 140,189.5C 139.626,190.416 139.126,191.25 138.5,192C 129.194,194.496 125.694,190.996 128,181.5C 128.257,179.093 129.424,177.427 131.5,176.5 Z"/></g>
<g><path style="opacity:1" fill="#dbd7d6" d="M 133.5,180.5 C 134.765,181.514 135.431,183.014 135.5,185C 135.167,186.5 134.833,188 134.5,189.5C 132.215,186.822 131.882,183.822 133.5,180.5 Z"/></g>
</svg>
