<?xml version="1.0" standalone="no"?>
<!DOCTYPE svg PUBLIC "-//W3C//DTD SVG 20010904//EN"
 "http://www.w3.org/TR/2001/REC-SVG-20010904/DTD/svg10.dtd">
<svg version="1.0" xmlns="http://www.w3.org/2000/svg"
 width="472.000000pt" height="638.000000pt" viewBox="0 0 472.000000 638.000000"
 preserveAspectRatio="xMidYMid meet">

<g transform="translate(0.000000,638.000000) scale(0.100000,-0.100000)"
fill="#000000" stroke="none">
<path d="M4360 6208 c-124 -38 -281 -87 -350 -108 -69 -21 -200 -61 -292 -89
-548 -167 -797 -242 -968 -292 -58 -17 -143 -42 -190 -56 -84 -25 -518 -162
-990 -313 -135 -43 -326 -104 -425 -135 -99 -31 -205 -65 -235 -75 -30 -10
-136 -44 -235 -75 -309 -97 -345 -109 -345 -116 0 -7 7 -9 290 -107 175 -61
461 -160 855 -297 116 -41 267 -93 336 -116 l125 -43 250 176 c137 97 263 186
279 198 17 12 185 131 375 265 190 134 374 265 410 290 36 26 236 167 445 315
209 147 394 279 412 292 18 12 54 38 80 56 201 139 424 302 412 301 -8 0 -115
-32 -239 -71z"/>
<path d="M3268 4597 c-87 -62 -264 -186 -393 -277 -129 -91 -318 -223 -420
-295 -101 -71 -236 -166 -300 -210 -69 -48 -117 -88 -119 -100 -2 -11 -12
-508 -21 -1105 -8 -597 -20 -1274 -26 -1505 -5 -231 -9 -469 -7 -530 l3 -110
38 110 c88 252 334 959 437 1255 43 124 121 342 175 485 53 142 121 336 152
430 85 264 266 802 448 1340 214 627 213 626 198 625 -5 -1 -79 -51 -165 -113z"/>
</g>
</svg>
