<?xml version="1.0" encoding="UTF-8"?>
<!DOCTYPE svg PUBLIC "-//W3C//DTD SVG 1.1//EN" "http://www.w3.org/Graphics/SVG/1.1/DTD/svg11.dtd">
<svg xmlns="http://www.w3.org/2000/svg" version="1.1" width="472px" height="638px" style="shape-rendering:geometricPrecision; text-rendering:geometricPrecision; image-rendering:optimizeQuality; fill-rule:evenodd; clip-rule:evenodd" xmlns:xlink="http://www.w3.org/1999/xlink">
<g><path style="opacity:1" fill="#fefefe" d="M -0.5,-0.5 C 156.833,-0.5 314.167,-0.5 471.5,-0.5C 471.5,212.167 471.5,424.833 471.5,637.5C 314.167,637.5 156.833,637.5 -0.5,637.5C -0.5,424.833 -0.5,212.167 -0.5,-0.5 Z"/></g>
<g><path style="opacity:1" fill="#6061ab" d="M 456.5,12.5 C 456.265,11.9033 455.765,11.5699 455,11.5C 452.276,12.6868 449.443,13.3535 446.5,13.5C 450.788,11.019 455.454,9.85233 460.5,10C 459.016,10.6622 457.683,11.4955 456.5,12.5 Z"/></g>
<g><path style="opacity:1" fill="#2f3291" d="M 456.5,12.5 C 427.833,32.8333 399.167,53.1667 370.5,73.5C 368.246,74.1237 366.579,75.457 365.5,77.5C 308.379,117.447 251.379,157.614 194.5,198C 192.5,198.667 190.5,198.667 188.5,198C 186.257,196.864 183.924,196.03 181.5,195.5C 179.824,193.166 177.491,192.166 174.5,192.5C 159.675,187.744 145.009,182.744 130.5,177.5C 128.064,176.129 125.397,175.129 122.5,174.5C 120.784,174.371 119.117,174.038 117.5,173.5C 115.824,171.166 113.491,170.166 110.5,170.5C 108.167,169.833 105.833,169.167 103.5,168.5C 101.824,166.166 99.491,165.166 96.5,165.5C 92.8772,164.344 89.2106,163.344 85.5,162.5C 82.9466,160.416 79.9466,159.083 76.5,158.5C 69.8676,157.288 63.5342,155.288 57.5,152.5C 55.8243,150.166 53.491,149.166 50.5,149.5C 46.9495,148.122 43.2829,147.122 39.5,146.5C 36.7498,144.835 34.0831,143.168 31.5,141.5C 32.1667,141.5 32.8333,141.5 33.5,141.5C 38.1755,140.939 42.5089,139.606 46.5,137.5C 48.7014,136.434 51.0347,135.767 53.5,135.5C 55.403,135.204 57.0697,134.537 58.5,133.5C 62.6346,131.79 66.9679,130.457 71.5,129.5C 74.8851,129.154 78.2184,128.488 81.5,127.5C 82.7133,127.253 83.38,126.586 83.5,125.5C 83.8333,125.5 84.1667,125.5 84.5,125.5C 86.403,125.204 88.0697,124.537 89.5,123.5C 93.8333,122.167 98.1667,120.833 102.5,119.5C 105.885,119.154 109.218,118.488 112.5,117.5C 113.713,117.253 114.38,116.586 114.5,115.5C 121.019,113.201 127.685,111.201 134.5,109.5C 138.862,108.715 143.196,107.715 147.5,106.5C 148.713,106.253 149.38,105.586 149.5,104.5C 154.611,102.287 159.944,100.62 165.5,99.5C 168.746,98.9459 171.746,97.9459 174.5,96.5C 177.762,95.248 181.095,94.248 184.5,93.5C 187.746,92.9459 190.746,91.9459 193.5,90.5C 200.876,87.6001 208.542,85.2667 216.5,83.5C 220.351,82.2589 224.351,81.2589 228.5,80.5C 229.713,80.2528 230.38,79.5862 230.5,78.5C 231.959,78.5674 233.292,78.2341 234.5,77.5C 237.916,77.4725 240.916,76.4725 243.5,74.5C 244.167,74.5 244.833,74.5 245.5,74.5C 249.767,73.7444 253.767,72.411 257.5,70.5C 260.152,70.5905 262.485,69.9238 264.5,68.5C 265.209,67.596 266.209,67.2627 267.5,67.5C 271.417,67.0244 275.084,66.0244 278.5,64.5C 280.515,63.0762 282.848,62.4095 285.5,62.5C 289.162,62.2766 292.495,61.2766 295.5,59.5C 298.642,58.2097 301.975,57.2097 305.5,56.5C 308.855,56.3104 311.855,55.3104 314.5,53.5C 316.657,52.5933 318.99,51.9267 321.5,51.5C 324.746,50.9459 327.746,49.9459 330.5,48.5C 334.011,47.3359 337.677,46.3359 341.5,45.5C 344.746,44.9459 347.746,43.9459 350.5,42.5C 353.54,42.1301 356.207,40.9634 358.5,39C 362.584,38.4782 366.584,37.6449 370.5,36.5C 373.706,35.9215 376.706,34.9215 379.5,33.5C 384.093,31.9699 388.759,30.6366 393.5,29.5C 396.152,29.5905 398.485,28.9238 400.5,27.5C 415.529,22.2715 430.863,17.6048 446.5,13.5C 449.443,13.3535 452.276,12.6868 455,11.5C 455.765,11.5699 456.265,11.9033 456.5,12.5 Z"/></g>
<g><path style="opacity:1" fill="#7475b5" d="M 400.5,27.5 C 398.485,28.9238 396.152,29.5905 393.5,29.5C 395.515,28.0762 397.848,27.4095 400.5,27.5 Z"/></g>
<g><path style="opacity:1" fill="#8381bc" d="M 379.5,33.5 C 376.706,34.9215 373.706,35.9215 370.5,36.5C 372.923,34.1449 375.923,33.1449 379.5,33.5 Z"/></g>
<g><path style="opacity:1" fill="#9596c7" d="M 350.5,42.5 C 347.746,43.9459 344.746,44.9459 341.5,45.5C 344.008,43.446 347.008,42.446 350.5,42.5 Z"/></g>
<g><path style="opacity:1" fill="#a2a3ce" d="M 330.5,48.5 C 327.746,49.9459 324.746,50.9459 321.5,51.5C 324.008,49.446 327.008,48.446 330.5,48.5 Z"/></g>
<g><path style="opacity:1" fill="#8283bd" d="M 314.5,53.5 C 311.855,55.3104 308.855,56.3104 305.5,56.5C 308.084,54.5275 311.084,53.5275 314.5,53.5 Z"/></g>
<g><path style="opacity:1" fill="#6c6cb1" d="M 295.5,59.5 C 292.495,61.2766 289.162,62.2766 285.5,62.5C 288.505,60.7234 291.838,59.7234 295.5,59.5 Z"/></g>
<g><path style="opacity:1" fill="#9b9bca" d="M 278.5,64.5 C 275.084,66.0244 271.417,67.0244 267.5,67.5C 267.611,66.8826 267.944,66.3826 268.5,66C 271.827,65.3897 275.161,64.8897 278.5,64.5 Z"/></g>
<g><path style="opacity:1" fill="#7576b6" d="M 264.5,68.5 C 262.485,69.9238 260.152,70.5905 257.5,70.5C 259.515,69.0762 261.848,68.4095 264.5,68.5 Z"/></g>
<g><path style="opacity:1" fill="#5f5ea9" d="M 257.5,70.5 C 253.767,72.411 249.767,73.7444 245.5,74.5C 249.085,72.1939 253.085,70.8606 257.5,70.5 Z"/></g>
<g><path style="opacity:1" fill="#7576b6" d="M 243.5,74.5 C 240.916,76.4725 237.916,77.4725 234.5,77.5C 237.145,75.6896 240.145,74.6896 243.5,74.5 Z"/></g>
<g><path style="opacity:1" fill="#b5b6d8" d="M 370.5,73.5 C 369.461,75.5311 367.795,76.8645 365.5,77.5C 366.579,75.457 368.246,74.1237 370.5,73.5 Z"/></g>
<g><path style="opacity:1" fill="#6968af" d="M 230.5,78.5 C 230.38,79.5862 229.713,80.2528 228.5,80.5C 224.351,81.2589 220.351,82.2589 216.5,83.5C 220.707,80.9351 225.374,79.2685 230.5,78.5 Z"/></g>
<g><path style="opacity:1" fill="#9e9fcc" d="M 193.5,90.5 C 190.746,91.9459 187.746,92.9459 184.5,93.5C 187.008,91.446 190.008,90.446 193.5,90.5 Z"/></g>
<g><path style="opacity:1" fill="#a5a5d0" d="M 174.5,96.5 C 171.746,97.9459 168.746,98.9459 165.5,99.5C 168.008,97.446 171.008,96.446 174.5,96.5 Z"/></g>
<g><path style="opacity:1" fill="#6969af" d="M 149.5,104.5 C 149.38,105.586 148.713,106.253 147.5,106.5C 143.196,107.715 138.862,108.715 134.5,109.5C 139.146,107.081 144.146,105.414 149.5,104.5 Z"/></g>
<g><path style="opacity:1" fill="#7676b6" d="M 114.5,115.5 C 114.38,116.586 113.713,117.253 112.5,117.5C 109.218,118.488 105.885,119.154 102.5,119.5C 106.195,117.568 110.195,116.235 114.5,115.5 Z"/></g>
<g><path style="opacity:1" fill="#9798c8" d="M 89.5,123.5 C 88.0697,124.537 86.403,125.204 84.5,125.5C 85.6354,123.787 87.302,123.12 89.5,123.5 Z"/></g>
<g><path style="opacity:1" fill="#6a69af" d="M 83.5,125.5 C 83.38,126.586 82.7133,127.253 81.5,127.5C 78.2184,128.488 74.8851,129.154 71.5,129.5C 75.1945,127.568 79.1945,126.235 83.5,125.5 Z"/></g>
<g><path style="opacity:1" fill="#8687bf" d="M 58.5,133.5 C 57.0697,134.537 55.403,135.204 53.5,135.5C 54.6354,133.787 56.302,133.12 58.5,133.5 Z"/></g>
<g><path style="opacity:1" fill="#7a7ab8" d="M 46.5,137.5 C 42.5089,139.606 38.1755,140.939 33.5,141.5C 37.403,139.102 41.7363,137.769 46.5,137.5 Z"/></g>
<g><path style="opacity:1" fill="#aeaed4" d="M 31.5,141.5 C 34.0831,143.168 36.7498,144.835 39.5,146.5C 36.5979,145.422 33.5979,144.756 30.5,144.5C 30.2627,143.209 30.596,142.209 31.5,141.5 Z"/></g>
<g><path style="opacity:1" fill="#7778b7" d="M 50.5,149.5 C 53.491,149.166 55.8243,150.166 57.5,152.5C 54.8427,152.065 52.5093,151.065 50.5,149.5 Z"/></g>
<g><path style="opacity:1" fill="#aaabd2" d="M 76.5,158.5 C 79.9466,159.083 82.9466,160.416 85.5,162.5C 81.9789,161.901 78.9789,160.568 76.5,158.5 Z"/></g>
<g><path style="opacity:1" fill="#7877b7" d="M 96.5,165.5 C 99.491,165.166 101.824,166.166 103.5,168.5C 100.843,168.065 98.5093,167.065 96.5,165.5 Z"/></g>
<g><path style="opacity:1" fill="#ec1e25" d="M 342.5,166.5 C 343.097,166.735 343.43,167.235 343.5,168C 342.726,170.154 342.059,172.321 341.5,174.5C 340.629,177.112 339.963,179.779 339.5,182.5C 337.755,184.033 336.755,186.033 336.5,188.5C 335.918,193.083 334.585,197.417 332.5,201.5C 331.054,204.254 330.054,207.254 329.5,210.5C 327.266,215.64 325.599,220.973 324.5,226.5C 322.01,229.626 320.677,233.292 320.5,237.5C 319.302,240.426 318.302,243.426 317.5,246.5C 315.568,250.195 314.235,254.195 313.5,258.5C 312.89,259.391 312.557,260.391 312.5,261.5C 310.416,264.801 309.082,268.468 308.5,272.5C 304.63,284.482 300.63,296.482 296.5,308.5C 294.416,311.801 293.082,315.468 292.5,319.5C 292.5,319.833 292.5,320.167 292.5,320.5C 291.883,320.611 291.383,320.944 291,321.5C 289.69,325.07 288.857,328.737 288.5,332.5C 287.596,333.209 287.263,334.209 287.5,335.5C 285.603,337.698 284.603,340.364 284.5,343.5C 282.095,352.625 279.428,361.625 276.5,370.5C 274.598,374.655 272.931,378.989 271.5,383.5C 268.386,389.838 266.053,396.505 264.5,403.5C 263.883,403.611 263.383,403.944 263,404.5C 262.261,407.546 261.428,410.546 260.5,413.5C 257.774,419.343 255.441,425.343 253.5,431.5C 251.721,435.595 250.388,439.928 249.5,444.5C 247.345,446.617 246.345,449.284 246.5,452.5C 245.633,455.443 244.633,458.443 243.5,461.5C 241.935,463.509 240.935,465.843 240.5,468.5C 237.824,476.86 235.157,485.193 232.5,493.5C 230.935,495.509 229.935,497.843 229.5,500.5C 226.669,507.635 224.335,514.969 222.5,522.5C 220.755,524.033 219.755,526.033 219.5,528.5C 218.752,532.578 217.752,536.578 216.5,540.5C 214.271,543.354 212.938,546.687 212.5,550.5C 211.89,551.391 211.557,552.391 211.5,553.5C 209.935,555.509 208.935,557.843 208.5,560.5C 207.297,564.11 206.297,567.777 205.5,571.5C 203.935,573.509 202.935,575.843 202.5,578.5C 201.833,580.833 201.167,583.167 200.5,585.5C 199.833,585.5 199.5,585.833 199.5,586.5C 198.757,556.334 198.757,526.001 199.5,495.5C 199.806,464.166 200.139,432.833 200.5,401.5C 200.851,362.16 201.518,322.826 202.5,283.5C 202.17,276.8 202.503,270.134 203.5,263.5C 249.593,230.727 295.926,198.393 342.5,166.5 Z"/></g>
<g><path style="opacity:1" fill="#f79496" d="M 341.5,174.5 C 342.059,172.321 342.726,170.154 343.5,168C 343.43,167.235 343.097,166.735 342.5,166.5C 343.14,164.668 344.14,164.335 345.5,165.5C 344.906,168.957 343.573,171.957 341.5,174.5 Z"/></g>
<g><path style="opacity:1" fill="#8686bf" d="M 110.5,170.5 C 113.491,170.166 115.824,171.166 117.5,173.5C 114.843,173.065 112.509,172.065 110.5,170.5 Z"/></g>
<g><path style="opacity:1" fill="#a9a9d1" d="M 122.5,174.5 C 125.397,175.129 128.064,176.129 130.5,177.5C 127.189,177.693 124.522,176.693 122.5,174.5 Z"/></g>
<g><path style="opacity:1" fill="#f68284" d="M 339.5,182.5 C 339.245,184.967 338.245,186.967 336.5,188.5C 336.755,186.033 337.755,184.033 339.5,182.5 Z"/></g>
<g><path style="opacity:1" fill="#6e6eb2" d="M 174.5,192.5 C 177.491,192.166 179.824,193.166 181.5,195.5C 178.843,195.065 176.509,194.065 174.5,192.5 Z"/></g>
<g><path style="opacity:1" fill="#fcbbbc" d="M 332.5,201.5 C 332.41,203.696 332.077,205.863 331.5,208C 331.316,209.376 330.649,210.209 329.5,210.5C 330.054,207.254 331.054,204.254 332.5,201.5 Z"/></g>
<g><path style="opacity:1" fill="#f99d9d" d="M 324.5,226.5 C 323.557,230.332 322.223,233.999 320.5,237.5C 320.677,233.292 322.01,229.626 324.5,226.5 Z"/></g>
<g><path style="opacity:1" fill="#fdc9ca" d="M 317.5,246.5 C 317.154,249.885 316.488,253.218 315.5,256.5C 315.253,257.713 314.586,258.38 313.5,258.5C 314.235,254.195 315.568,250.195 317.5,246.5 Z"/></g>
<g><path style="opacity:1" fill="#faacad" d="M 312.5,261.5 C 312.283,264.435 311.617,267.269 310.5,270C 310.316,271.376 309.649,272.209 308.5,272.5C 309.082,268.468 310.416,264.801 312.5,261.5 Z"/></g>
<g><path style="opacity:1" fill="#faa7a8" d="M 296.5,308.5 C 296.283,311.435 295.617,314.269 294.5,317C 294.316,318.376 293.649,319.209 292.5,319.5C 293.082,315.468 294.416,311.801 296.5,308.5 Z"/></g>
<g><path style="opacity:1" fill="#fbcfd0" d="M 202.5,283.5 C 201.518,322.826 200.851,362.16 200.5,401.5C 200.167,401.5 199.833,401.5 199.5,401.5C 199.786,367.498 200.286,333.498 201,299.5C 201.173,293.984 201.673,288.651 202.5,283.5 Z"/></g>
<g><path style="opacity:1" fill="#f78282" d="M 292.5,320.5 C 291.533,324.735 290.2,328.735 288.5,332.5C 288.857,328.737 289.69,325.07 291,321.5C 291.383,320.944 291.883,320.611 292.5,320.5 Z"/></g>
<g><path style="opacity:1" fill="#f46f72" d="M 287.5,335.5 C 287.097,338.486 286.097,341.152 284.5,343.5C 284.603,340.364 285.603,337.698 287.5,335.5 Z"/></g>
<g><path style="opacity:1" fill="#fbbbbc" d="M 276.5,370.5 C 276.184,375.464 274.517,379.797 271.5,383.5C 272.931,378.989 274.598,374.655 276.5,370.5 Z"/></g>
<g><path style="opacity:1" fill="#fbb3b4" d="M 264.5,403.5 C 263.94,405.801 263.44,408.134 263,410.5C 262.623,411.942 261.79,412.942 260.5,413.5C 261.428,410.546 262.261,407.546 263,404.5C 263.383,403.944 263.883,403.611 264.5,403.5 Z"/></g>
<g><path style="opacity:1" fill="#fcbbbb" d="M 253.5,431.5 C 253.093,435.203 252.426,438.87 251.5,442.5C 251.253,443.713 250.586,444.38 249.5,444.5C 250.388,439.928 251.721,435.595 253.5,431.5 Z"/></g>
<g><path style="opacity:1" fill="#f57a7c" d="M 249.5,444.5 C 248.871,447.397 247.871,450.064 246.5,452.5C 246.345,449.284 247.345,446.617 249.5,444.5 Z"/></g>
<g><path style="opacity:1" fill="#f9a1a2" d="M 199.5,401.5 C 199.833,401.5 200.167,401.5 200.5,401.5C 200.139,432.833 199.806,464.166 199.5,495.5C 199.167,495.5 198.833,495.5 198.5,495.5C 198.45,464.161 198.783,432.828 199.5,401.5 Z"/></g>
<g><path style="opacity:1" fill="#f9a0a1" d="M 243.5,461.5 C 243.834,464.491 242.834,466.824 240.5,468.5C 240.935,465.843 241.935,463.509 243.5,461.5 Z"/></g>
<g><path style="opacity:1" fill="#faabad" d="M 232.5,493.5 C 232.834,496.491 231.834,498.824 229.5,500.5C 229.935,497.843 230.935,495.509 232.5,493.5 Z"/></g>
<g><path style="opacity:1" fill="#f57c7e" d="M 222.5,522.5 C 222.245,524.967 221.245,526.967 219.5,528.5C 219.755,526.033 220.755,524.033 222.5,522.5 Z"/></g>
<g><path style="opacity:1" fill="#fdc7c7" d="M 216.5,540.5 C 215.9,543.332 215.233,546.165 214.5,549C 214.164,550.03 213.497,550.53 212.5,550.5C 212.938,546.687 214.271,543.354 216.5,540.5 Z"/></g>
<g><path style="opacity:1" fill="#f99d9e" d="M 211.5,553.5 C 211.834,556.491 210.834,558.824 208.5,560.5C 208.935,557.843 209.935,555.509 211.5,553.5 Z"/></g>
<g><path style="opacity:1" fill="#fbb7b8" d="M 205.5,571.5 C 205.834,574.491 204.834,576.824 202.5,578.5C 202.935,575.843 203.935,573.509 205.5,571.5 Z"/></g>
<g><path style="opacity:1" fill="#f25556" d="M 198.5,495.5 C 198.833,495.5 199.167,495.5 199.5,495.5C 198.757,526.001 198.757,556.334 199.5,586.5C 198.91,587.766 198.41,589.099 198,590.5C 197.501,586.179 197.334,581.846 197.5,577.5C 197.239,550.152 197.572,522.818 198.5,495.5 Z"/></g>
<g><path style="opacity:1" fill="#f8a6a9" d="M 197.5,577.5 C 197.334,581.846 197.501,586.179 198,590.5C 198.41,589.099 198.91,587.766 199.5,586.5C 199.5,585.833 199.833,585.5 200.5,585.5C 199.898,589.364 198.732,593.031 197,596.5C 196.18,589.986 196.347,583.653 197.5,577.5 Z"/></g>
</svg>
