<?xml version="1.0" encoding="utf-8"?>
<!-- Generator: Adobe Illustrator 14.0.0, SVG Export Plug-In . SVG Version: 6.00 Build 43363)  -->
<!DOCTYPE svg PUBLIC "-//W3C//DTD SVG 1.1//EN" "http://www.w3.org/Graphics/SVG/1.1/DTD/svg11.dtd">
<svg version="1.1" id="katman_1" xmlns="http://www.w3.org/2000/svg" xmlns:xlink="http://www.w3.org/1999/xlink" x="0px" y="0px"
	 width="120px" height="29.4px" viewBox="0 0 120 29.4" enable-background="new 0 0 120 29.4" xml:space="preserve">
<path id="path48" fill="#CC1526" d="M19.954,0.236l5.736,15.763c-1.961,2.039-6.109,5.026-10.748,6.769
	c-3.378,1.265-6.857,1.69-9.807,1.831L0,9.184c3.394-0.361,7.275-1.208,10.15-2.469c4.618-2.021,7.683-4.495,9.801-6.483
	L19.954,0.236"/>
<path id="path52" d="M97.695,23.31h-4.268l8.212-18.744h4.267L97.695,23.31z M103.611,0.01h4.332l-1.488,3.424h-4.333L103.611,0.01z
	 M96.019,0.01h4.267l-10.216,23.3h-4.267L96.019,0.01z M85.193,8.929c0-0.775-0.387-1.292-1.291-1.292
	c-1.229,0-3.202,1.519-5.013,4.136c-0.323,0.484-0.646,1.002-0.905,1.52C81.929,13.034,85.193,11.224,85.193,8.929z M76.305,17.977
	c0,1.325,0.549,1.938,1.744,1.938c1.553,0,3.459-1.098,5.787-3.359l1.486,3.263c-2.067,2.231-4.945,3.944-7.726,3.944
	c-3.426,0-5.302-1.874-5.302-5.075c0-2.325,0.938-5.072,2.748-7.852c2.554-3.942,6.013-6.722,9.601-6.722
	c2.782,0,4.527,1.679,4.527,4.331c0,4.653-4.882,7.918-12.609,8.209C76.401,17.203,76.305,17.688,76.305,17.977z M70.167,9.509
	c0-0.937-0.451-1.453-1.583-1.453c-1.358,0-3.169,1.325-4.752,3.491c-1.939,2.649-2.91,4.943-2.91,6.752
	c0,0.938,0.549,1.52,1.52,1.52c1.551,0,3.813-1.743,5.818-4.555l1.648,3.458c-1.876,2.521-4.688,5.042-8.211,5.042
	c-3.103,0-4.882-2.133-4.882-5.075c0-3.229,1.584-6.334,3.717-9.079c2.652-3.427,5.754-5.495,8.728-5.495
	c3.072,0,4.657,1.81,4.657,4.492c0,0.68-0.098,1.454-0.26,2.037l-3.814,0.548C70.038,10.642,70.167,10.027,70.167,9.509z
	 M59.181,4.275c0.775,0,1.422,0.227,2.134,0.648l-2.263,3.974c-0.357-0.098-0.55-0.163-1.165-0.163
	c-2.392,0-4.752,2.554-6.691,6.981l-3.331,7.594h-4.267L51.81,4.565h4.202l-1.55,3.523C56.077,5.568,57.208,4.275,59.181,4.275z
	 M33.643,18.657c0,1.001,0.485,1.58,1.552,1.58c1.714,0,3.686-1.841,5.076-4.392c0.193-0.357,0.387-0.743,0.549-1.099
	C35.55,15.068,33.643,16.717,33.643,18.657z M42.307,9.639c0-1.131-0.388-1.679-1.422-1.679c-1.455,0-3.686,1.39-5.754,3.425
	l-0.97-3.619c2.069-1.939,4.881-3.652,7.565-3.652c2.779,0,4.526,1.874,4.526,4.783c0,2.293-1.067,5.494-2.489,7.981
	c-2.102,3.717-5.108,6.885-8.955,6.885c-3.071,0-5.108-1.906-5.108-4.782c0-4.525,4.171-7.046,12.318-7.369
	C42.209,10.9,42.307,10.254,42.307,9.639z M61.406,24.601l1.126,3.091c-0.385,0.403-1.198,0.987-2.108,1.329
	c-0.661,0.249-1.344,0.333-1.923,0.358l-1.007-3.023c0.667-0.069,1.427-0.234,1.991-0.482
	C60.391,25.477,60.991,24.991,61.406,24.601z M105.319,23.31h-4.268l10.217-23.3h4.267l-4.558,10.341l8.049-6.528l1.066,3.62
	l-7.273,5.654l1.778,10.212h-3.912l-1.39-9.146L105.319,23.31"/>
</svg>
