<?xml version="1.0" standalone="no"?>
<!DOCTYPE svg PUBLIC "-//W3C//DTD SVG 20010904//EN"
 "http://www.w3.org/TR/2001/REC-SVG-20010904/DTD/svg10.dtd">
<svg version="1.0" xmlns="http://www.w3.org/2000/svg"
 width="302.000000pt" height="330.000000pt" viewBox="0 0 302.000000 330.000000"
 preserveAspectRatio="xMidYMid meet">

<g transform="translate(0.000000,330.000000) scale(0.100000,-0.100000)"
fill="#000000" stroke="none">
<path d="M1460 3286 c0 -2 9 -6 20 -9 11 -3 18 -1 14 4 -5 9 -34 13 -34 5z"/>
<path d="M1425 3270 c-3 -6 1 -7 9 -4 18 7 21 14 7 14 -6 0 -13 -4 -16 -10z"/>
<path d="M1449 3243 l-24 -28 28 24 c25 23 32 31 24 31 -2 0 -14 -12 -28 -27z"/>
<path d="M1382 3240 c-30 -29 -56 -69 -48 -77 3 -3 6 -1 6 5 0 7 16 30 36 52
39 43 42 53 6 20z"/>
<path d="M1620 3208 c0 -29 -5 -37 -32 -51 -21 -10 -27 -16 -16 -16 25 -1 58
30 58 53 0 18 1 18 18 3 10 -10 24 -17 30 -17 6 0 9 -7 6 -15 -4 -8 -1 -22 5
-29 10 -11 8 -15 -6 -18 -11 -3 -6 -6 15 -9 l32 -6 -20 22 c-24 26 -25 33 -2
58 17 19 16 19 -14 13 -27 -6 -35 -3 -53 20 l-21 27 0 -35z"/>
<path d="M1402 3145 c0 -16 2 -22 5 -12 2 9 2 23 0 30 -3 6 -5 -1 -5 -18z"/>
<path d="M1617 3119 c4 -13 8 -18 11 -10 2 7 -1 18 -6 23 -8 8 -9 4 -5 -13z"/>
<path d="M1313 3080 c0 -25 2 -35 4 -22 2 12 2 32 0 45 -2 12 -4 2 -4 -23z"/>
<path d="M1402 3090 c0 -14 2 -19 5 -12 2 6 2 18 0 25 -3 6 -5 1 -5 -13z"/>
<path d="M1640 3095 c-7 -9 -11 -17 -9 -20 3 -2 10 5 17 15 14 24 10 26 -8 5z"/>
<path d="M1410 3051 c0 -6 4 -13 10 -16 6 -3 7 1 4 9 -7 18 -14 21 -14 7z"/>
<path d="M1687 2988 c-21 -21 -31 -35 -23 -32 9 3 16 2 16 -4 0 -13 -60 -51
-98 -62 -19 -6 -21 -9 -8 -9 35 -2 105 48 132 95 15 25 25 46 23 47 -2 1 -21
-15 -42 -35z"/>
<path d="M1450 2995 c13 -14 26 -25 28 -25 3 0 -5 11 -18 25 -13 14 -26 25
-28 25 -3 0 5 -11 18 -25z"/>
<path d="M1330 2991 c0 -8 20 -34 45 -57 45 -44 96 -65 150 -63 19 1 10 5 -25
10 -64 11 -123 47 -150 92 -11 18 -20 26 -20 18z"/>
<path d="M1504 2955 c28 -21 80 -29 113 -17 25 10 24 10 -13 6 -25 -4 -55 0
-80 10 -32 13 -36 13 -20 1z"/>
<path d="M2286 2955 c-3 -9 -18 -15 -36 -15 -30 0 -30 0 -15 -24 15 -23 15
-26 -3 -44 -19 -19 -19 -20 -2 -25 10 -3 37 0 59 6 39 10 43 9 68 -16 35 -35
24 -44 -29 -24 l-43 17 45 -44 c25 -23 52 -46 60 -49 11 -5 12 -8 2 -13 -6 -3
-10 -10 -7 -15 3 -4 -3 -14 -15 -21 -24 -15 -26 -34 -4 -46 11 -6 15 -17 11
-31 -5 -20 -3 -22 23 -16 26 6 33 1 65 -43 20 -28 70 -80 112 -117 81 -71 143
-140 143 -158 0 -6 -24 12 -52 39 -52 50 -148 121 -148 109 0 -20 36 -68 76
-103 43 -39 50 -62 19 -62 -8 0 -22 11 -31 25 -9 14 -24 25 -33 25 -12 0 -9
-6 10 -23 15 -12 29 -32 32 -45 7 -30 -14 -24 -30 9 -12 23 -13 23 -13 3 0
-17 -8 -23 -35 -28 -59 -11 -54 -28 17 -50 16 -5 16 -8 3 -40 -21 -49 -20 -50
25 -25 l40 23 29 -28 28 -27 7 26 c6 23 9 25 22 14 11 -9 12 -14 3 -19 -14 -9
2 -43 41 -85 29 -30 53 -111 32 -104 -6 2 -42 39 -81 82 -39 42 -71 75 -71 72
0 -12 43 -90 77 -138 62 -88 71 -89 13 -2 -39 58 -42 65 -32 65 14 0 71 -76
88 -116 13 -31 13 -36 1 -31 -12 4 -12 -3 1 -48 l15 -53 -49 -101 c-27 -55
-52 -100 -56 -101 -12 0 -9 24 7 63 8 20 15 46 15 57 0 17 -4 19 -25 14 -47
-12 -28 22 26 44 28 12 48 26 44 32 -8 13 -85 13 -85 0 0 -5 -5 -10 -10 -10
-6 0 -8 10 -4 24 3 13 1 27 -5 30 -16 10 -13 27 10 65 16 27 23 31 30 20 7
-11 9 -9 9 9 0 19 -19 34 -20 15 -1 -5 -10 -19 -20 -32 l-20 -23 -41 42 c-22
23 -43 40 -45 37 -2 -2 0 -22 5 -43 8 -36 9 -37 10 -9 l1 30 24 -25 c13 -14
27 -35 31 -47 5 -20 3 -23 -18 -23 -14 0 -28 6 -31 13 -3 6 -3 2 0 -10 5 -20
2 -23 -28 -23 -55 0 -64 -13 -28 -44 17 -14 36 -26 41 -26 5 0 2 -14 -7 -32
-13 -26 -14 -38 -5 -70 7 -21 18 -38 25 -38 17 0 76 -87 76 -112 0 -29 -8 -22
-35 32 -29 56 -39 65 -23 19 7 -21 7 -34 0 -41 -5 -5 -7 -27 -5 -49 5 -32 3
-39 -11 -39 -19 0 -19 1 -6 35 7 18 7 24 -1 19 -6 -3 -26 9 -45 27 l-34 33 0
-52 c0 -50 -1 -52 -37 -68 -36 -15 -37 -16 -19 -30 11 -8 26 -14 33 -14 19 0
16 -15 -9 -55 -26 -40 -41 -43 -61 -15 -14 21 -14 21 -21 -2 -10 -39 -7 -73
10 -96 8 -12 13 -32 10 -45 -3 -12 1 -7 9 11 8 17 22 32 30 32 12 0 10 -8 -8
-37 -13 -21 -27 -37 -31 -35 -4 1 -21 -19 -39 -45 -33 -50 -59 -61 -65 -30 -2
11 9 31 27 49 17 17 31 34 31 39 0 4 -22 5 -50 2 -44 -5 -50 -4 -51 13 0 11
-5 5 -10 -13 -10 -34 -33 -44 -43 -18 -6 18 12 75 25 75 5 0 9 -5 9 -12 0 -6
2 -9 5 -6 3 3 2 15 -3 27 -7 21 -9 19 -31 -19 -24 -44 -33 -47 -73 -26 -34 18
-42 7 -29 -39 9 -33 8 -36 -18 -49 -30 -16 -55 -42 -57 -60 -4 -39 -54 -138
-71 -144 -22 -6 -14 22 21 81 19 32 31 55 26 52 -6 -3 -28 -36 -50 -74 -22
-37 -52 -76 -68 -87 -24 -18 -121 -50 -127 -42 -1 2 -7 12 -12 22 -10 18 -11
17 -24 -9 -20 -40 -36 -42 -35 -3 0 18 -3 43 -7 56 -11 29 6 29 34 0 13 -14
20 -17 17 -8 -2 8 -23 24 -46 35 -59 29 -68 40 -51 61 12 16 12 17 -4 11 -10
-4 -21 -7 -23 -7 -2 0 -4 -8 -4 -18 0 -10 15 -32 34 -50 48 -45 53 -66 24
-108 -12 -18 -27 -34 -32 -34 -4 0 -6 29 -4 65 5 82 -9 73 -47 -30 -15 -41
-33 -75 -40 -75 -19 0 -38 27 -46 68 l-7 37 -1 -34 c0 -20 6 -42 16 -53 18
-20 14 -32 -9 -23 -8 3 -21 23 -28 44 -13 41 -6 86 12 75 8 -5 9 1 5 17 -4 13
-7 27 -7 32 0 4 -4 7 -9 7 -5 0 -8 -6 -8 -13 2 -23 -15 -97 -22 -97 -12 0 -38
33 -46 58 -5 18 2 31 39 67 51 49 55 64 27 89 -17 16 -18 16 -14 -7 4 -20 -5
-33 -46 -67 -39 -33 -51 -50 -51 -72 0 -18 -5 -28 -15 -28 -23 0 -32 28 -27
83 l5 52 -25 -22 c-29 -28 -38 -29 -38 -5 0 9 16 31 36 47 23 19 38 43 44 68
4 20 6 37 3 37 -2 0 -20 -11 -41 -25 l-36 -25 -21 50 c-23 54 -35 71 -35 49 0
-8 -5 -31 -11 -52 -10 -37 -11 -38 -46 -31 l-36 7 33 -46 c18 -26 41 -49 52
-52 45 -15 58 -55 17 -55 -46 0 -6 -40 48 -49 20 -3 38 -12 41 -20 4 -11 -3
-13 -29 -7 -61 12 -105 50 -138 118 -31 66 -52 90 -111 126 -74 46 -75 47 -51
78 27 34 27 46 -2 40 -12 -3 -34 -7 -48 -10 -22 -5 -29 -1 -39 23 -6 16 -20
37 -31 47 -18 17 -19 16 -19 -23 0 -49 -18 -67 -59 -58 -26 6 -29 4 -24 -14 3
-11 16 -31 29 -44 21 -21 22 -26 10 -37 -12 -10 -21 -5 -48 25 -35 39 -68 93
-68 110 0 6 9 28 20 50 18 35 28 105 15 105 -3 0 -19 -15 -35 -32 -30 -32 -30
-33 -46 -13 -36 46 -36 52 1 74 19 11 35 25 35 30 0 5 -18 12 -41 16 -38 7
-40 8 -34 36 4 16 4 43 0 60 l-7 31 -34 -33 c-32 -31 -35 -32 -51 -16 -14 14
-15 21 -5 35 50 72 67 155 41 205 -9 16 -9 22 1 25 17 6 50 40 50 51 0 5 -16
12 -36 16 -35 6 -36 8 -31 42 3 19 3 49 0 65 l-6 30 -32 -38 -32 -38 -32 24
-33 23 4 -54 c2 -30 6 -61 9 -69 3 -11 -7 -16 -36 -20 l-40 -5 29 -22 c16 -13
37 -23 47 -23 20 0 23 -8 13 -34 -5 -12 -10 -13 -25 -5 -16 8 -19 6 -19 -16 0
-36 -11 -31 -44 18 -52 79 -26 171 85 307 54 66 60 78 55 108 -3 24 -2 32 7
29 7 -3 20 -8 29 -12 27 -11 21 10 -7 25 -14 7 -25 19 -25 27 0 23 32 11 43
-17 4 -11 6 -9 6 6 1 11 12 27 26 34 32 17 27 34 -9 38 -27 3 -28 5 -21 48 3
24 3 44 -1 44 -4 0 -22 -12 -41 -26 -22 -17 -40 -23 -53 -19 -32 10 -23 27 32
65 46 31 107 104 96 115 -2 2 -41 -21 -87 -51 -46 -31 -85 -53 -88 -50 -11 11
31 48 106 96 57 37 79 59 100 96 18 33 32 48 44 46 9 -2 17 2 17 8 0 5 11 10
25 10 18 0 25 5 25 20 0 11 7 20 15 20 22 0 18 16 -6 34 -13 9 -19 21 -16 30
4 10 1 16 -9 16 -20 0 -74 -28 -74 -39 0 -10 -51 -34 -57 -27 -10 10 53 59
117 91 36 18 76 45 90 60 l25 28 -28 -7 c-32 -7 -36 8 -8 26 13 8 17 16 11 23
-11 13 -2 55 11 55 5 0 9 -7 9 -15 0 -12 3 -13 19 -3 18 11 18 12 -6 25 -33
17 -42 10 -49 -38 -8 -47 -19 -50 -28 -6 l-7 32 -17 -30 c-16 -29 -17 -29 -20
-7 -2 15 -9 22 -18 18 -7 -3 -18 3 -24 12 -9 16 -11 16 -25 -2 -8 -11 -20 -16
-31 -12 -13 5 -15 2 -9 -21 3 -16 16 -38 27 -50 12 -12 17 -27 13 -34 -6 -9
-11 -8 -20 5 -11 14 -14 10 -24 -27 -7 -24 -13 -57 -14 -73 -2 -29 -26 -74
-39 -74 -14 0 -8 49 12 100 28 71 27 90 -4 61 -14 -13 -30 -36 -37 -52 -15
-39 -40 -34 -51 10 l-9 34 -27 -26 c-20 -19 -31 -24 -42 -17 -38 24 -70 -6
-39 -37 9 -9 6 -19 -9 -40 -17 -24 -19 -40 -15 -122 4 -97 13 -139 13 -61 0
24 3 41 6 38 10 -11 33 -123 34 -167 0 -57 -9 -47 -26 26 -8 35 -12 42 -8 18
2 -22 7 -73 11 -112 7 -86 -4 -94 -41 -30 -22 38 -24 46 -14 83 9 32 8 49 -2
74 l-13 32 -15 -36 c-15 -38 -25 -42 -68 -26 -15 6 -29 9 -31 6 -3 -2 6 -23
19 -46 l23 -41 -28 -22 c-45 -37 -34 -104 33 -202 25 -37 29 -48 20 -65 -13
-25 -15 -25 -56 1 l-34 21 0 -21 c0 -14 5 -19 15 -15 20 8 45 -13 45 -37 0
-26 -25 -24 -38 4 -11 22 -11 22 -11 1 -1 -14 -12 -26 -32 -35 l-32 -13 29
-23 c16 -13 28 -31 26 -41 -9 -57 -13 -64 -34 -59 -16 5 -12 -3 19 -36 38 -40
39 -43 26 -69 -19 -37 -8 -90 25 -120 21 -19 24 -20 19 -5 -4 10 -7 28 -8 40
0 12 -3 16 -6 10 -2 -7 -8 -13 -13 -13 -12 0 -23 57 -13 72 5 9 10 3 14 -17
l7 -30 1 28 c1 37 14 34 53 -10 18 -21 64 -68 103 -105 l70 -68 -32 0 c-18 0
-33 4 -33 10 0 15 -42 38 -85 46 l-40 7 23 -25 c12 -13 22 -27 22 -31 0 -3
-21 -27 -47 -52 -27 -26 -42 -44 -35 -40 7 4 34 4 58 0 39 -5 46 -10 50 -35
l6 -28 35 37 c23 24 37 32 40 23 11 -28 61 -78 133 -130 81 -59 150 -121 150
-134 0 -15 -64 24 -135 82 -38 32 -84 65 -102 74 -40 20 -106 21 -123 1 -18
-22 -23 -96 -8 -125 14 -26 115 -87 126 -75 4 3 -22 32 -57 64 -71 63 -77 91
-21 91 40 0 77 -20 117 -62 28 -29 31 -38 26 -75 -5 -40 -7 -42 -55 -53 l-49
-12 26 -29 27 -28 -23 -37 -23 -37 56 6 c55 7 56 6 68 -23 l13 -31 23 22 c13
13 24 28 24 35 0 10 21 13 83 11 61 -1 88 2 107 14 23 15 29 15 88 -3 34 -10
62 -22 62 -26 0 -4 -37 -6 -82 -5 l-83 3 55 -20 c90 -33 88 -31 55 -46 -41
-18 -75 -17 -97 3 -16 14 -18 14 -13 1 9 -23 -24 -31 -51 -13 -35 22 -30 38 8
31 33 -6 33 -6 5 5 -15 6 -39 8 -54 4 -25 -6 -25 -6 17 -38 39 -28 41 -32 25
-42 -27 -15 -95 -76 -95 -85 0 -4 27 1 61 11 33 10 65 19 70 19 5 0 9 -26 9
-57 l0 -56 24 22 c14 13 30 36 36 52 11 26 17 29 60 29 27 0 50 3 52 8 2 4 38
24 81 45 82 39 167 59 167 38 0 -6 -10 -11 -21 -11 -12 0 -58 -15 -103 -34
-45 -19 -88 -37 -96 -40 -8 -3 1 -4 21 -1 31 5 39 2 52 -19 9 -13 25 -27 36
-31 17 -5 19 -10 11 -31 -6 -14 -10 -34 -10 -45 0 -16 3 -18 19 -9 30 15 38
13 58 -20 l17 -30 17 42 c13 34 22 44 43 46 30 4 33 18 9 44 -15 17 -15 20 -3
28 24 15 60 12 60 -6 0 -8 16 -22 36 -30 31 -13 49 -14 126 -3 70 9 94 9 116
0 l26 -13 -24 -18 c-14 -11 -50 -33 -80 -49 -45 -25 -50 -31 -30 -31 15 0 31
-5 37 -11 8 -8 13 -5 18 11 7 24 89 80 116 80 9 0 37 -18 62 -41 35 -30 54
-40 73 -37 25 3 20 7 -44 48 -40 24 -72 49 -72 53 0 5 53 6 121 2 104 -6 126
-5 159 10 22 10 40 24 42 31 2 10 9 8 28 -6 l25 -19 -28 -29 c-24 -25 -26 -30
-12 -36 9 -3 26 -6 36 -6 13 0 24 -11 31 -32 l11 -31 29 31 c25 28 30 31 48
20 17 -11 22 -10 30 2 6 8 8 26 5 40 -4 20 2 33 24 54 29 28 33 29 69 18 73
-22 57 -12 -43 29 -55 22 -124 43 -152 46 -66 7 -59 23 10 23 41 0 73 -10 147
-45 52 -25 101 -45 108 -45 6 0 12 -4 12 -9 0 -5 -6 -12 -12 -15 -18 -8 43 0
63 8 11 5 20 -3 32 -29 24 -50 52 -48 61 6 6 37 9 40 29 35 101 -29 119 -20
67 36 -22 24 -40 46 -40 49 0 3 9 14 20 24 67 61 -41 60 -113 -1 -24 -21 -38
-24 -66 -20 l-36 5 35 -13 c19 -7 35 -18 34 -24 -1 -7 -2 -22 -2 -33 -2 -20
-6 -21 -47 -16 -24 4 -82 26 -127 49 l-83 42 60 7 c33 4 70 3 83 -2 33 -13 42
-11 36 6 -4 10 0 15 12 15 11 0 42 11 69 24 l50 24 -67 1 c-38 1 -68 5 -68 10
0 10 78 41 103 41 9 0 31 -9 49 -20 34 -21 150 -31 118 -10 -21 13 -2 42 33
51 34 9 37 -13 5 -35 -18 -13 -19 -16 -6 -16 12 0 19 -13 25 -41 4 -22 13 -40
18 -41 6 -1 20 16 32 38 20 35 26 38 57 36 35 -3 35 -3 29 31 -4 29 -2 36 15
41 10 4 27 15 36 25 17 18 15 19 -31 26 -27 3 -56 5 -64 3 -10 -2 -15 8 -17
37 -5 59 -17 62 -41 12 -22 -45 -22 -45 -56 -34 -19 6 -35 14 -35 18 0 11 172
126 224 150 73 33 130 20 84 -21 -72 -63 -98 -90 -98 -104 0 -12 4 -14 18 -7
9 6 34 17 54 26 43 19 64 66 54 120 -9 46 -28 59 -82 52 -40 -4 -75 -21 -166
-81 -27 -18 -28 -18 -27 0 0 11 26 39 59 64 56 43 120 122 120 148 0 6 5 12
10 12 6 0 10 -10 10 -23 0 -12 13 -38 29 -57 l28 -35 7 32 c6 27 13 33 41 39
19 3 38 3 44 -1 31 -18 -4 55 -39 82 -13 11 -13 15 2 42 10 18 13 33 7 36 -17
11 -75 -15 -104 -45 -27 -28 -55 -39 -55 -22 0 4 16 24 36 43 19 18 56 64 81
102 45 67 65 81 77 51 10 -25 7 -47 -9 -78 -20 -38 -13 -44 14 -10 29 36 35
67 22 104 -9 28 -7 36 19 72 33 45 37 60 16 52 -10 -4 -15 5 -18 31 -4 34 -1
39 29 53 31 15 32 17 16 34 -9 10 -22 18 -30 18 -7 0 -13 12 -14 28 l-1 27 -7
-25 c-8 -30 -36 -34 -36 -5 0 11 10 24 23 30 12 5 22 16 22 23 0 15 -49 -17
-50 -32 0 -12 -40 25 -40 37 0 6 9 20 19 31 22 24 49 100 58 162 5 40 4 43
-30 66 -35 23 -36 23 -17 43 10 11 22 32 25 47 l7 27 -38 -18 c-22 -11 -42
-17 -46 -15 -3 2 -9 23 -13 46 l-7 42 -15 -28 c-8 -15 -12 -33 -9 -39 2 -7 5
-4 5 6 2 28 18 19 23 -13 3 -16 1 -30 -3 -30 -4 0 -9 -8 -12 -17 -3 -15 -6
-14 -15 7 -15 34 -15 4 0 -37 7 -18 17 -33 24 -33 29 0 24 -35 -10 -69 -20
-19 -37 -33 -40 -30 -3 2 4 25 15 49 12 28 14 38 4 26 -8 -10 -16 -24 -18 -30
-11 -31 -22 15 -22 92 1 82 0 84 -10 42 -12 -51 -31 -39 -20 13 17 83 39 138
53 132 12 -4 14 4 9 50 -3 32 -1 57 5 61 5 4 -2 18 -18 35 -26 27 -26 30 -11
47 24 26 21 32 -16 32 -18 0 -38 5 -44 11 -7 7 -9 3 -6 -15 4 -19 1 -26 -11
-26 -10 0 -16 9 -17 28 -2 23 -2 24 -6 5 -7 -37 -38 -27 -80 26 -21 27 -48 54
-60 60 -20 9 -23 7 -34 -29 -7 -22 -15 -40 -19 -40 -18 0 -60 60 -68 96 -5 23
-17 52 -26 65 l-16 23 0 -33 c0 -32 -23 -41 -27 -10 -8 65 -16 89 -27 89 -8 0
-16 -7 -20 -15z m28 -27 c11 -42 8 -50 -16 -43 -13 4 -32 16 -43 27 l-20 20
28 -6 c20 -5 27 -3 27 9 0 23 17 18 24 -7z m-1734 -29 c0 -5 5 -7 10 -4 14 9
12 -7 -5 -28 -15 -21 -55 -15 -55 8 0 9 6 12 15 9 9 -4 15 0 15 10 0 9 5 16
10 16 6 0 10 -5 10 -11z m64 -67 c-24 -36 -30 -12 -8 30 14 26 19 29 22 15 2
-10 -4 -30 -14 -45z m1642 39 c-7 -11 -46 -21 -46 -12 0 13 13 21 32 21 11 0
17 -4 14 -9z m104 -22 c0 -11 -4 -17 -10 -14 -5 3 -10 13 -10 21 0 8 5 14 10
14 6 0 10 -9 10 -21z m-1780 -9 c0 -24 -21 -70 -32 -70 -12 0 -10 48 4 70 16
25 28 26 28 0z m80 -27 c0 -5 -18 -18 -40 -30 -45 -24 -53 -15 -14 16 27 21
54 28 54 14z m1736 -48 c31 -20 31 -39 2 -30 -35 11 -81 39 -85 52 -5 15 48 1
83 -22z m-1886 -9 c0 -27 -29 -71 -30 -45 0 9 3 30 6 48 7 34 24 33 24 -3z
m-70 19 c0 -12 -24 -55 -32 -55 -11 0 -10 4 4 35 9 21 28 35 28 20z m2106 -62
c15 -35 19 -103 6 -103 -5 0 -18 13 -30 30 -17 22 -22 43 -22 87 1 55 2 57 16
38 9 -11 22 -34 30 -52z m-2206 33 c0 -28 -17 -43 -32 -28 -6 6 -5 17 4 31 17
28 28 27 28 -3z m2150 -18 c0 -25 -3 -29 -10 -18 -13 20 -13 50 0 50 6 0 10
-15 10 -32z m-2206 -4 c9 -23 -25 -30 -40 -9 -7 10 -11 21 -9 26 8 11 43 -1
49 -17z m2200 -58 c9 -14 13 -26 9 -26 -20 0 -73 26 -73 36 0 6 -7 17 -15 24
-29 24 -15 30 23 11 22 -11 46 -31 56 -45z m-1884 44 c0 -6 -10 -15 -22 -20
-21 -8 -20 -9 9 -9 38 -1 56 -21 18 -21 -25 0 -25 -1 -9 -17 12 -13 13 -18 4
-21 -7 -3 -21 6 -31 19 l-19 24 0 -28 c0 -16 -4 -26 -10 -22 -20 13 -11 63 16
84 29 23 44 27 44 11z m-220 -10 c0 -5 -9 -10 -21 -10 -11 0 -17 5 -14 10 3 6
13 10 21 10 8 0 14 -4 14 -10z m2030 -21 c0 -6 -7 -6 -20 1 -11 6 -20 15 -20
21 0 6 7 6 20 -1 11 -6 20 -15 20 -21z m165 21 c3 -5 1 -10 -4 -10 -6 0 -11 5
-11 10 0 6 2 10 4 10 3 0 8 -4 11 -10z m155 0 c0 -12 -28 -25 -36 -17 -9 9 6
27 22 27 8 0 14 -5 14 -10z m-2410 -21 c0 -5 -7 -9 -15 -9 -15 0 -20 12 -9 23
8 8 24 -1 24 -14z m2326 -14 c9 -14 23 -25 30 -25 9 0 14 -11 14 -30 0 -36
-17 -39 -30 -5 -7 18 -14 23 -26 18 -13 -5 -16 -3 -11 10 4 11 -1 22 -13 29
-26 16 -25 28 0 28 11 0 27 -11 36 -25z m-2368 -2 c-2 -11 -14 -19 -33 -21
-30 -4 -30 -4 -11 17 23 26 49 28 44 4z m122 2 c0 -8 -2 -15 -4 -15 -2 0 -6 7
-10 15 -3 8 -1 15 4 15 6 0 10 -7 10 -15z m1971 0 c0 -5 -9 -11 -21 -13 -20
-3 -27 8 -13 22 10 9 34 3 34 -9z m-2001 -10 c16 -20 10 -26 -18 -18 -12 3
-22 12 -22 19 0 19 24 18 40 -1z m2310 5 c0 -5 -4 -10 -10 -10 -5 0 -10 5 -10
10 0 6 5 10 10 10 6 0 10 -4 10 -10z m-2158 -29 c2 -17 1 -37 -4 -45 -9 -17
-63 -51 -95 -61 -19 -5 -22 -3 -16 12 6 16 5 16 -10 4 -28 -22 -30 -6 -4 23
26 28 48 37 27 11 -24 -29 0 -29 30 0 34 33 38 45 13 45 -13 0 -9 6 12 20 39
26 42 25 47 -9z m2068 19 c0 -5 -4 -10 -10 -10 -5 0 -10 5 -10 10 0 6 5 10 10
10 6 0 10 -4 10 -10z m-2270 -13 c0 -7 -7 -22 -15 -33 -14 -18 -14 -18 -15 7
0 14 3 29 7 32 11 11 23 8 23 -6z m2110 -18 c0 -10 -4 -19 -10 -19 -5 0 -10
12 -10 26 0 14 4 23 10 19 6 -3 10 -15 10 -26z m308 19 c18 -18 15 -28 -8 -28
-11 0 -20 2 -20 4 0 2 -3 11 -6 20 -7 19 16 22 34 4z m-344 -13 c-6 -16 -34
-21 -34 -7 0 13 11 22 26 22 8 0 11 -6 8 -15z m95 -6 c31 -19 33 -22 17 -31
-16 -9 -13 -13 24 -35 38 -23 106 -110 95 -121 -2 -3 -25 13 -49 36 -24 22
-66 57 -93 76 -44 31 -49 39 -45 66 5 36 7 36 51 9z m-2214 -30 c6 -28 8 -29
24 -15 27 24 31 20 31 -31 0 -48 -39 -188 -49 -177 -3 3 -18 61 -32 130 l-26
124 23 0 c17 0 24 -7 29 -31z m95 4 c0 -34 -20 -70 -20 -38 0 11 -3 30 -6 43
-5 16 -2 22 10 22 11 0 16 -9 16 -27z m2286 -8 c27 -29 52 -33 50 -8 0 10 7
19 17 21 25 5 22 -38 -8 -123 -14 -38 -25 -78 -25 -87 0 -52 -45 22 -56 92 -4
22 -10 38 -14 35 -9 -6 -31 75 -24 87 10 15 37 8 60 -17z m-76 -1 c0 -8 -4
-12 -10 -9 -5 3 -10 10 -10 16 0 5 5 9 10 9 6 0 10 -7 10 -16z m-2099 -63
c-10 -19 -97 -81 -113 -81 -27 0 13 43 72 79 43 26 54 26 41 2z m2048 -26 c52
-41 110 -105 95 -105 -11 0 -152 121 -158 136 -8 22 2 17 63 -31z m-2351 -117
c-3 -34 -20 -42 -26 -13 -5 22 5 45 18 45 7 0 10 -14 8 -32z m241 6 c-13 -14
-39 -35 -59 -46 -19 -12 -45 -30 -57 -41 -39 -35 -26 2 13 40 34 32 99 72 118
73 5 0 -1 -12 -15 -26z m2157 -22 c46 -34 69 -60 60 -69 -11 -11 -56 20 -88
59 -35 45 -26 49 28 10z m-2471 6 c27 -12 32 -23 14 -33 -11 -7 -49 22 -49 37
0 11 4 10 35 -4z m2775 -11 c0 -7 -11 -23 -25 -35 -26 -23 -48 -31 -27 -10 15
15 16 32 2 23 -5 -3 -10 -1 -10 5 0 6 10 15 23 20 31 12 37 12 37 -3z m-2763
-74 c4 -11 -26 -27 -35 -19 -2 3 -2 12 2 21 6 18 27 16 33 -2z m323 12 c0 -15
-25 -55 -34 -52 -17 6 -18 24 -1 41 15 15 35 22 35 11z m2458 -43 c5 -15 -54
-16 -63 -2 -3 5 0 16 7 24 11 12 17 12 32 2 11 -7 22 -18 24 -24z m-2709 -8
c33 -56 24 -60 -28 -13 -26 25 -31 33 -20 40 22 14 26 11 48 -27z m2499 3 c22
-33 28 -57 15 -57 -10 0 -53 66 -53 80 0 19 15 10 38 -23z m-2372 -4 c6 -21 2
-30 -20 -46 l-27 -19 22 -24 c12 -13 28 -24 36 -24 7 0 13 -7 13 -15 0 -9 -9
-15 -21 -15 -12 0 -19 5 -17 12 5 14 -39 41 -53 32 -24 -15 0 77 28 108 22 25
31 22 39 -9z m44 12 c7 -8 9 -22 6 -31 -5 -13 -9 -14 -21 -4 -16 13 -21 50 -6
50 5 0 14 -7 21 -15z m2260 -14 c-5 -11 -15 -23 -20 -26 -14 -9 -12 19 2 33
19 19 30 14 18 -7z m-2479 -39 c26 -46 54 -140 46 -149 -3 -2 -14 11 -26 30
-11 19 -35 51 -52 73 -17 21 -37 51 -45 67 -14 27 -14 27 18 27 29 0 36 -6 59
-48z m2769 15 c0 -27 -123 -187 -136 -175 -8 9 11 89 36 146 18 39 21 42 59
42 26 0 41 -5 41 -13z m-2506 -12 c-6 -16 -24 -21 -24 -7 0 11 11 22 21 22 5
0 6 -7 3 -15z m62 0 c-22 -17 -46 -20 -46 -6 0 11 18 19 45 20 20 0 20 0 1
-14z m2082 -2 c2 -9 -9 -13 -37 -13 -42 0 -64 15 -34 23 30 8 66 3 71 -10z
m-2353 -23 c8 -16 15 -42 14 -57 -1 -25 -3 -23 -24 22 -27 57 -29 65 -15 65 5
0 16 -13 25 -30z m2459 20 c35 -13 33 -30 -3 -30 -31 0 -47 13 -36 30 8 12 8
12 39 0z m-2274 -54 c0 -17 -5 -26 -16 -26 -13 0 -15 7 -10 30 5 28 4 30 -15
19 -23 -12 -58 -4 -43 10 15 15 58 17 72 4 6 -6 12 -23 12 -37z m2210 50 c0
-3 -4 -8 -10 -11 -5 -3 -10 -1 -10 4 0 6 5 11 10 11 6 0 10 -2 10 -4z m-2471
-75 c43 -58 81 -126 81 -146 0 -16 -19 -1 -30 25 -7 16 -21 40 -32 52 -41 46
-90 138 -75 138 3 0 28 -31 56 -69z m2435 21 c-6 -9 -19 -19 -28 -20 -16 -4
-16 -2 -1 28 13 24 20 29 28 21 8 -8 9 -16 1 -29z m225 2 c-10 -23 -13 -25
-16 -11 -3 10 1 25 8 33 17 21 21 11 8 -22z m-165 0 c4 -15 4 -29 1 -33 -8 -7
-35 28 -35 46 0 24 28 13 34 -13z m114 -21 c20 -40 37 -173 23 -173 -9 0 -12
17 -26 122 -6 46 -25 74 -33 49 -3 -9 -9 -8 -23 5 -23 20 -16 34 16 34 18 0
29 -10 43 -37z m140 -34 c-13 -23 -31 -47 -40 -53 -34 -21 -28 3 14 58 48 62
62 59 26 -5z m-2598 17 c0 -8 -4 -18 -10 -21 -5 -3 -10 3 -10 14 0 12 5 21 10
21 6 0 10 -6 10 -14z m51 -82 c-39 -42 -71 -80 -71 -85 0 -5 -4 -9 -10 -9 -15
0 -12 57 5 90 9 17 24 30 34 30 10 0 24 7 32 16 13 16 71 44 78 38 2 -2 -28
-38 -68 -80z m2386 54 c-3 -8 -6 -5 -6 6 -1 11 2 17 5 13 3 -3 4 -12 1 -19z
m-2415 -10 c-7 -7 -12 -8 -12 -2 0 14 12 26 19 19 2 -3 -1 -11 -7 -17z m2402
-4 c9 -24 7 -28 -9 -14 -17 14 -20 30 -6 30 5 0 12 -7 15 -16z m-2548 -60 c-3
-9 -6 -24 -6 -35 0 -21 -15 -26 -23 -6 -6 17 10 57 24 57 6 0 8 -7 5 -16z
m157 -46 c-22 -29 -47 -64 -56 -78 -12 -17 -17 -19 -17 -9 0 29 96 156 108
144 3 -2 -13 -28 -35 -57z m2507 54 c0 -5 -7 -17 -15 -28 -15 -19 -20 -8 -9
20 6 17 24 22 24 8z m40 -49 c0 -37 -24 -22 -28 17 -3 30 -2 32 12 21 9 -8 16
-25 16 -38z m-40 -13 c0 -5 -4 -10 -10 -10 -5 0 -10 5 -10 10 0 6 5 10 10 10
6 0 10 -4 10 -10z m-2751 -24 c16 -19 -13 -30 -41 -15 -17 9 -18 13 -7 20 20
12 35 11 48 -5z m51 -1 c0 -8 -7 -15 -15 -15 -16 0 -20 12 -8 23 11 12 23 8
23 -8z m82 0 c2 -12 -49 -31 -58 -22 -4 3 -4 13 0 22 6 18 55 18 58 0z m2688
-11 c0 -16 -16 -19 -25 -4 -8 13 4 32 16 25 5 -4 9 -13 9 -21z m-66 10 c22 -9
20 -24 -3 -24 -21 0 -34 13 -24 24 8 7 8 7 27 0z m151 -4 c7 -12 -42 -33 -56
-24 -5 3 -9 12 -9 20 0 16 55 20 65 4z m-2523 -69 c-10 -32 -16 -38 -32 -34
-25 7 -25 20 1 62 28 46 47 29 31 -28z m-352 26 c0 -8 -9 -22 -19 -31 -23 -21
-37 -6 -21 24 12 23 40 27 40 7z m56 -12 c4 -14 4 -29 0 -32 -9 -10 -36 18
-36 38 0 28 29 23 36 -6z m64 -10 c0 -42 -14 -45 -34 -6 -17 31 -13 41 16 41
14 0 18 -8 18 -35z m160 -27 c0 -10 -4 -16 -10 -13 -5 3 -10 0 -10 -7 0 -9 -3
-9 -10 2 -5 8 -10 31 -10 50 l1 35 19 -24 c11 -13 20 -32 20 -43z m2435 52 c7
-11 -25 -70 -37 -70 -10 0 -10 8 -2 49 6 30 27 41 39 21z m53 -22 c-4 -45 -38
-53 -38 -10 0 27 9 39 33 41 5 1 7 -14 5 -31z m52 7 c0 -7 3 -20 6 -29 9 -24
-23 -20 -36 5 -7 11 -9 27 -6 35 6 16 36 8 36 -11z m-2790 -50 c21 -22 24 -23
35 -8 11 15 15 12 34 -25 27 -52 26 -54 -5 -42 -14 6 -39 10 -55 10 -17 0 -45
11 -65 26 l-35 27 28 18 c36 23 36 23 63 -6z m2692 -7 c4 -10 10 -10 31 -1 21
10 33 10 52 1 14 -6 25 -14 25 -17 0 -13 -90 -53 -130 -58 -41 -6 -42 -5 -35
18 9 27 37 68 47 69 3 0 8 -6 10 -12z m-2313 -24 c2 -2 -2 -10 -9 -19 -14 -16
-40 -20 -40 -6 0 5 -3 17 -6 26 -5 13 -2 15 22 9 16 -4 31 -8 33 -10z m-419
-36 c0 -12 -14 -10 -28 4 -19 19 -14 29 8 16 11 -7 20 -16 20 -20z m2452 12
c23 -25 23 -30 -4 -30 -20 0 -58 26 -58 39 0 15 46 8 62 -9z m-2192 -10 c0 -5
-9 -10 -20 -10 -11 0 -20 5 -20 10 0 6 9 10 20 10 11 0 20 -4 20 -10z m2580 1
c0 -10 -24 -21 -46 -21 -20 0 -17 18 4 23 29 8 42 7 42 -2z m-245 -11 c-3 -5
-10 -10 -16 -10 -5 0 -9 5 -9 10 0 6 7 10 16 10 8 0 12 -4 9 -10z m-2480 -23
c29 -16 49 -39 73 -85 35 -65 29 -87 -8 -27 -29 46 -95 102 -131 110 -16 4
-27 11 -23 16 9 15 47 10 89 -14z m230 13 c14 0 40 -38 32 -46 -7 -7 -61 16
-69 29 -13 20 -9 30 8 23 9 -3 22 -6 29 -6z m2210 -10 c-3 -5 -10 -10 -16 -10
-5 0 -9 5 -9 10 0 6 7 10 16 10 8 0 12 -4 9 -10z m247 -17 c8 -10 19 -25 23
-33 7 -12 5 -12 -11 1 -29 25 -58 31 -90 19 -48 -18 -75 -51 -117 -140 -46
-98 -60 -95 -22 5 48 128 83 164 161 165 27 0 46 -6 56 -17z m-312 -3 c0 -12
-25 -30 -42 -30 -20 0 -21 2 -12 23 5 14 54 19 54 7z m-2413 -22 c31 -34 77
-108 71 -114 -6 -6 -118 115 -118 128 0 16 27 8 47 -14z m233 7 c0 -8 -7 -15
-15 -15 -8 0 -15 7 -15 15 0 8 7 15 15 15 8 0 15 -7 15 -15z m2210 -5 c0 -19
-11 -26 -23 -14 -8 8 3 34 14 34 5 0 9 -9 9 -20z m-2136 -20 c10 -10 -3 -29
-65 -98 l-47 -52 -7 36 c-5 30 -2 41 18 63 14 14 30 36 36 49 9 17 18 21 34
16 12 -3 26 -10 31 -14z m2366 14 c0 -21 -96 -154 -112 -154 -8 0 51 116 75
148 9 12 37 17 37 6z m-2500 -35 c0 -11 -4 -17 -10 -14 -5 3 -10 15 -10 26 0
11 5 17 10 14 6 -3 10 -15 10 -26z m2240 2 c0 -11 12 -33 26 -50 19 -23 24
-39 22 -66 l-3 -35 -58 77 c-50 67 -55 79 -40 85 33 13 53 9 53 -11z m80 10
c0 -19 -12 -41 -20 -36 -10 6 -1 45 11 45 5 0 9 -4 9 -9z m-2280 -16 c-7 -9
-15 -13 -17 -11 -7 7 7 26 19 26 6 0 6 -6 -2 -15z m2240 -21 c0 -8 -4 -12 -10
-9 -5 3 -10 13 -10 21 0 8 5 12 10 9 6 -3 10 -13 10 -21z m125 -25 c-9 -17
-19 -29 -21 -26 -8 7 15 57 26 57 6 0 4 -13 -5 -31z m-2275 -4 c0 -9 -18 -35
-40 -59 -22 -24 -40 -48 -40 -55 0 -6 -4 -11 -10 -11 -26 0 -2 50 48 103 41
42 42 43 42 22z m-286 -71 c9 -3 14 -10 11 -15 -7 -10 -35 0 -35 12 0 11 3 11
24 3z m2656 -1 c-1 -18 -17 -31 -50 -38 l-35 -7 24 26 c23 24 61 36 61 19z
m-2329 -102 c-11 -23 -17 -41 -11 -41 5 0 12 5 15 10 8 12 35 13 55 0 22 -14
5 -23 -55 -30 -66 -7 -71 0 -45 71 23 61 41 78 54 49 6 -13 2 -31 -13 -59z
m-187 49 c18 -6 28 -21 36 -51 6 -22 9 -44 6 -47 -10 -10 -58 22 -84 56 -21
28 -23 35 -11 43 18 11 22 11 53 -1z m2166 -14 c11 -21 10 -27 -2 -40 -20 -19
-28 -11 -28 31 0 39 12 43 30 9z m-2310 3 c0 -5 5 -7 10 -4 17 11 11 -11 -9
-29 -13 -12 -27 -15 -47 -10 l-27 7 27 24 c29 25 46 29 46 12z m264 -5 c3 -9
6 -25 6 -37 -1 -22 -1 -22 -15 -3 -17 22 -20 56 -6 56 5 0 12 -7 15 -16z
m2260 10 c26 -10 18 -32 -29 -79 -71 -71 -86 -57 -35 33 31 53 36 57 64 46z
m-108 -40 c8 -44 -10 -110 -33 -118 -25 -10 -27 0 -10 55 10 28 17 62 17 75 0
37 18 28 26 -12z m266 19 c27 -24 23 -43 -9 -43 -34 0 -65 19 -45 27 10 4 9 8
-5 19 -17 12 -16 13 11 14 16 0 38 -7 48 -17z m-2437 -44 c9 -28 15 -53 12
-56 -9 -8 -36 40 -43 75 -10 51 12 38 31 -19z m-190 11 c-17 -33 -35 -40 -35
-14 0 16 27 43 43 44 4 0 1 -13 -8 -30z m2557 -25 c3 -14 2 -28 -2 -30 -13 -8
-31 21 -24 39 9 24 21 20 26 -9z m-322 -15 c0 -23 -1 -24 -35 -8 -34 15 -32
28 5 28 23 0 30 -4 30 -20z m-2096 -30 c55 -35 156 -128 156 -143 0 -6 -10 -1
-22 10 -13 11 -50 38 -83 61 -62 41 -126 102 -109 102 6 0 32 -14 58 -30z
m2246 -40 c-56 -50 -80 -61 -80 -36 0 13 104 84 125 85 6 0 -15 -22 -45 -49z
m-2080 21 c16 -31 12 -38 -22 -44 -42 -6 -72 17 -57 44 13 26 65 25 79 0z
m1968 3 c30 -21 28 -39 -7 -63 -38 -27 -54 -27 -46 0 6 19 4 21 -14 16 -28 -7
-27 1 6 35 31 33 32 33 61 12z m-2163 -65 c52 -37 85 -66 85 -73 0 -4 -10 -2
-22 4 -17 8 -15 4 7 -14 22 -19 26 -26 13 -26 -9 0 -43 23 -74 50 -56 49 -70
56 -124 62 l-25 3 30 17 c36 19 57 14 110 -23z m305 18 c0 -17 -29 -57 -41
-57 -15 0 -10 37 7 54 19 19 34 21 34 3z m2148 -14 c2 -9 -7 -13 -28 -13 -37
0 -90 -26 -188 -92 -76 -51 -192 -111 -201 -103 -2 3 -2 6 0 8 29 18 175 119
209 146 25 19 63 42 85 53 44 20 116 20 123 1z m-2278 -3 c0 -5 -2 -10 -4 -10
-3 0 -8 5 -11 10 -3 6 -1 10 4 10 6 0 11 -4 11 -10z m1850 -11 c7 -11 9 -32 5
-46 -5 -20 -8 -23 -20 -13 -17 14 -21 80 -5 80 5 0 14 -9 20 -21z m160 3 c0
-5 -29 -34 -65 -66 -79 -69 -86 -56 -11 20 51 50 76 66 76 46z m-1950 -17 c7
-9 10 -18 7 -22 -8 -7 -37 15 -37 28 0 14 16 11 30 -6z m1850 7 c0 -15 -28
-47 -35 -40 -8 8 13 48 25 48 6 0 10 -4 10 -8z m83 -63 c-16 -28 -110 -95
-119 -86 -6 6 113 117 126 117 7 0 4 -12 -7 -31z m-1927 13 c14 -9 47 -72 41
-78 -6 -6 -67 64 -67 76 0 12 11 13 26 2z m235 -29 c12 -31 6 -53 -16 -53 -11
0 -15 11 -15 40 0 46 16 53 31 13z m1962 -24 c-10 -10 -31 -21 -47 -25 -40
-10 -31 13 20 48 32 22 40 24 42 11 2 -8 -4 -24 -15 -34z m-2533 -7 c-12 -4
-50 26 -50 40 0 5 14 -2 31 -14 16 -12 25 -24 19 -26z m660 -12 c-9 -17 -40
-40 -53 -40 -3 0 -8 7 -11 16 -9 24 12 44 46 44 25 0 28 -2 18 -20z m-442 -9
c35 -14 41 -26 16 -35 -26 -10 -51 -7 -51 7 0 6 -4 20 -8 31 -5 11 -4 17 1 14
5 -2 24 -10 42 -17z m1653 9 c28 -15 25 -50 -4 -50 -28 0 -47 17 -47 42 0 20
21 23 51 8z m-1711 -14 c15 -20 9 -61 -10 -61 -10 0 -16 12 -18 38 -3 39 7 47
28 23z m370 -1 c9 -11 10 -19 3 -26 -15 -15 -51 -2 -63 22 -9 17 -7 19 18 19
16 0 35 -7 42 -15z m1487 -20 c-31 -28 -67 -33 -67 -10 0 19 29 34 65 34 l30
0 -28 -24z m329 -51 c-3 -9 -10 -12 -16 -9 -14 9 -13 48 3 64 10 10 13 7 15
-14 2 -15 1 -33 -2 -41z m-1768 39 c-4 -22 -22 -20 -26 1 -2 10 3 16 13 16 10
0 15 -7 13 -17z m1352 -19 c0 -8 -7 -14 -15 -14 -15 0 -21 21 -9 33 10 9 24
-2 24 -19z m-1675 6 c7 -12 -44 -62 -56 -54 -17 10 -9 45 14 54 29 12 35 12
42 0z m45 -9 c0 -11 3 -26 6 -35 5 -12 0 -16 -18 -16 -35 0 -40 9 -21 41 20
34 33 37 33 10z m368 1 c3 -10 -5 -13 -29 -10 -18 2 -34 9 -37 16 -3 10 5 13
29 10 18 -2 34 -9 37 -16z m272 -59 c7 -44 -4 -59 -15 -23 -4 11 -10 18 -15
15 -15 -9 -21 31 -10 61 11 28 12 28 23 9 6 -11 14 -39 17 -62z m940 52 c0
-18 -43 -37 -65 -29 -20 8 -19 21 3 33 26 16 62 13 62 -4z m338 -10 c17 -37
15 -42 -14 -49 -34 -9 -37 -5 -29 38 8 42 27 47 43 11z m-2081 2 c11 -12 -10
-27 -36 -27 -27 0 -51 16 -51 33 0 10 77 4 87 -6z m317 -27 c6 -6 4 -16 -4
-25 -12 -14 -17 -12 -47 17 -18 17 -33 36 -33 40 0 9 69 -18 84 -32z m89 33
c9 -9 -33 -53 -50 -53 -18 0 -16 20 4 42 17 19 35 23 46 11z m1721 -3 c16 -6
26 -17 26 -30 0 -35 -42 -22 -54 18 -8 25 -7 26 28 12z m-1658 -36 c11 -26 12
-40 5 -47 -15 -15 -40 20 -41 56 0 38 18 34 36 -9z m1393 4 c9 -15 12 -30 8
-34 -10 -10 -61 29 -65 50 -6 28 40 15 57 -16z m147 17 c-11 -8 -25 -15 -31
-15 -6 0 -22 -11 -34 -24 -20 -21 -26 -23 -42 -13 -29 18 -18 30 42 48 70 22
90 23 65 4z m-1785 -5 c10 -6 19 -15 19 -20 0 -17 -26 -11 -45 10 -20 22 -7
27 26 10z m2087 1 c18 -11 -4 -29 -46 -37 -25 -5 -33 -3 -38 11 -4 10 -1 21 7
26 18 11 60 11 77 0z m-2278 -16 c0 -8 -4 -15 -10 -15 -5 0 -10 7 -10 15 0 8
5 15 10 15 6 0 10 -7 10 -15z m552 -2 c20 -22 69 -125 63 -131 -14 -14 -155
112 -155 139 0 17 76 10 92 -8z m298 12 c0 -14 -31 -65 -39 -65 -18 0 -21 33
-5 51 16 18 44 26 44 14z m813 -13 l27 -4 -32 -37 c-40 -45 -97 -91 -113 -91
-10 0 -8 13 6 51 28 73 49 101 68 93 9 -4 28 -9 44 -12z m85 -14 c-2 -20 -9
-34 -19 -36 -12 -2 -14 5 -11 33 6 47 35 50 30 3z m-1146 5 c22 -25 70 -124
64 -130 -11 -11 -38 21 -67 79 -16 31 -29 60 -29 63 0 11 18 4 32 -12z m115
-19 c10 -26 -6 -28 -26 -3 -11 13 -20 28 -21 32 0 13 41 -13 47 -29z m1251 10
c-9 -9 -24 -14 -34 -12 -16 3 -14 7 11 20 35 19 46 15 23 -8z m202 12 c0 -8
-4 -17 -8 -20 -13 -8 -35 11 -28 23 10 16 36 14 36 -3z m-1790 -6 c0 -5 -4
-10 -10 -10 -5 0 -10 5 -10 10 0 6 5 10 10 10 6 0 10 -4 10 -10z m-410 -10 c0
-17 -39 -50 -60 -50 -11 0 -20 5 -20 10 0 17 39 50 60 50 11 0 20 -4 20 -10z
m96 -4 c28 -21 9 -32 -21 -12 l-25 16 0 -38 c0 -21 -3 -42 -7 -45 -12 -13 -33
15 -33 44 0 44 47 63 86 35z m65 4 c4 0 6 -7 3 -15 -5 -11 -10 -12 -25 -2 -23
14 -25 32 -3 23 9 -3 20 -6 25 -6z m1649 0 c0 -5 -4 -10 -10 -10 -5 0 -10 5
-10 10 0 6 5 10 10 10 6 0 10 -4 10 -10z m-1575 -10 c3 -5 -6 -12 -20 -16 -29
-7 -41 -1 -30 15 8 14 42 14 50 1z m152 -17 c-9 -8 -48 8 -42 18 4 5 14 5 26
-2 12 -6 18 -13 16 -16z m138 -10 c33 -37 31 -44 -7 -31 -42 14 -41 13 -33 37
8 27 11 26 40 -6z m1325 17 c8 -5 12 -11 10 -13 -11 -8 -124 -46 -128 -42 -4
4 88 65 98 65 3 0 12 -4 20 -10z m220 -3 c0 -21 -12 -28 -27 -16 -19 16 -16
29 7 29 11 0 20 -6 20 -13z m186 5 c6 -4 13 -15 17 -24 9 -25 -23 -24 -56 2
l-26 21 5 -33 c4 -21 0 -40 -9 -53 -18 -24 -25 -19 -33 22 -5 24 -1 36 15 52
21 21 66 28 87 13z m-528 -20 c3 -10 -65 -52 -85 -52 -4 0 8 16 27 35 34 35
50 40 58 17z m292 3 c7 -9 10 -18 6 -22 -8 -9 -56 14 -56 27 0 15 36 12 50 -5z
m-996 -29 c-6 -16 -24 -23 -24 -8 0 10 22 33 27 28 2 -2 1 -11 -3 -20z m-471
-36 c10 -10 -7 -11 -83 -5 -132 10 -154 27 -27 22 61 -3 103 -9 110 -17z m307
-15 c0 -25 -14 -34 -24 -16 -8 12 3 41 15 41 5 0 9 -11 9 -25z m1020 15 c0
-15 -73 -30 -169 -34 -88 -3 -120 7 -63 20 15 3 41 10 57 14 43 12 175 12 175
0z m172 -26 c-5 -8 -21 -24 -37 -34 l-28 -18 35 -15 c33 -14 58 -50 44 -65 -4
-3 -28 3 -55 15 l-48 20 0 -39 c0 -54 -16 -68 -39 -33 -17 25 -17 28 -1 37 9
5 17 20 17 33 0 19 5 25 21 25 17 0 19 3 10 14 -9 10 -8 16 3 25 8 7 12 18 10
26 -6 14 13 22 54 24 18 1 21 -2 14 -15z m-1237 -5 c4 -6 5 -12 2 -15 -7 -7
-37 7 -37 17 0 13 27 11 35 -2z m129 -13 c-7 -30 18 -80 51 -102 25 -16 37
-42 13 -27 -7 4 -51 10 -97 13 -59 3 -86 9 -89 19 -4 11 9 12 69 6 70 -6 73
-6 52 10 -23 16 -30 55 -17 89 10 25 25 19 18 -8z m-404 4 c0 -15 -137 -77
-187 -85 -36 -6 -42 -4 -48 14 -11 34 10 55 67 67 69 15 168 17 168 4z m-290
-30 c0 -5 -4 -10 -10 -10 -5 0 -10 5 -10 10 0 6 5 10 10 10 6 0 10 -4 10 -10z
m450 -9 c0 -12 -37 -24 -50 -16 -20 12 -10 25 20 25 17 0 30 -4 30 -9z m-487
-20 c-4 -18 -60 -47 -70 -37 -5 5 56 56 67 56 4 0 6 -9 3 -19z m615 3 c17 -3
32 -11 32 -16 0 -6 -13 -8 -32 -4 -18 4 -48 9 -66 13 -18 3 -35 10 -38 15 -7
10 31 7 104 -8z m-251 -30 c-3 -3 -20 -4 -39 -2 l-33 4 35 15 c30 13 36 14 38
2 2 -8 2 -17 -1 -19z m52 22 c13 -16 4 -49 -13 -43 -14 4 -21 57 -8 57 5 0 15
-6 21 -14z m551 -14 c0 -26 -15 -52 -31 -52 -4 0 -2 18 3 40 12 46 28 53 28
12z m389 12 c7 -6 -11 -24 -23 -24 -8 0 -24 9 -37 20 l-24 20 40 -6 c22 -4 42
-8 44 -10z m-1288 -13 c0 8 4 4 10 -9 10 -25 1 -50 -25 -72 -14 -11 -16 -6
-16 46 1 54 2 57 15 40 11 -15 15 -16 16 -5z m429 1 c-1 -16 -18 -33 -38 -37
-29 -5 -29 19 0 39 20 14 38 13 38 -2z m35 -2 c3 -5 -1 -10 -9 -10 -9 0 -16 5
-16 10 0 6 4 10 9 10 6 0 13 -4 16 -10z m685 0 c0 -5 -4 -10 -10 -10 -5 0 -10
5 -10 10 0 6 5 10 10 10 6 0 10 -4 10 -10z m225 -2 c35 -16 31 -30 -7 -26 -22
2 -34 9 -36 21 -4 20 7 21 43 5z m-55 -10 c0 -19 -18 -43 -25 -36 -9 9 4 48
16 48 5 0 9 -6 9 -12z m-214 -30 c3 -5 4 -12 1 -15 -8 -7 -117 19 -117 28 0
21 102 10 116 -13z m154 12 c18 -34 8 -73 -22 -90 -22 -12 -30 -12 -40 -2 -10
10 -6 15 20 24 37 14 39 19 12 43 -11 10 -20 24 -20 32 0 21 38 15 50 -7z
m-952 -2 c18 -18 14 -28 -11 -28 -23 0 -47 17 -47 32 0 12 45 9 58 -4z m217
-5 c10 -14 26 -17 84 -15 87 3 94 -13 9 -21 -67 -6 -118 11 -118 38 0 20 10
19 25 -2z m615 2 c0 -9 -6 -12 -15 -9 -8 4 -15 10 -15 15 0 5 7 9 15 9 8 0 15
-7 15 -15z m-789 -18 c-1 -12 -15 -9 -19 4 -3 6 1 10 8 8 6 -3 11 -8 11 -12z
m71 -22 c13 -17 9 -25 -11 -25 -24 0 -45 25 -37 46 5 14 9 14 24 3 9 -8 20
-18 24 -24z m641 6 c8 -8 -2 -11 -33 -11 -55 0 -90 9 -90 23 0 13 109 2 123
-12z m317 9 c0 -5 -13 -10 -30 -10 -16 0 -30 5 -30 10 0 6 14 10 30 10 17 0
30 -4 30 -10z m-75 -10 c-3 -5 -10 -10 -16 -10 -5 0 -9 5 -9 10 0 6 7 10 16
10 8 0 12 -4 9 -10z m-929 -34 c7 -29 -4 -69 -16 -61 -5 3 -11 19 -15 36 l-7
31 -22 -21 c-25 -24 -36 -26 -36 -9 0 22 33 48 61 48 22 0 30 -6 35 -24z m984
-1 c9 -11 10 -19 3 -26 -14 -14 -53 6 -53 26 0 20 34 19 50 0z m-60 -24 c0
-37 -26 -61 -35 -32 -7 22 10 61 25 61 6 0 10 -13 10 -29z"/>
<path d="M795 2939 c-4 -6 -5 -12 -2 -15 2 -3 7 2 10 11 7 17 1 20 -8 4z"/>
<path d="M2451 2922 c-6 -12 -16 -20 -22 -17 -16 10 -10 -42 7 -56 9 -7 20
-22 24 -34 9 -20 9 -20 9 1 1 11 10 29 21 39 22 20 27 47 7 39 -8 -3 -17 7
-23 23 l-10 28 -13 -23z m19 -22 c0 -5 -4 -10 -10 -10 -5 0 -10 5 -10 10 0 6
5 10 10 10 6 0 10 -4 10 -10z m-26 -25 c3 -8 1 -15 -4 -15 -6 0 -10 7 -10 15
0 8 2 15 4 15 2 0 6 -7 10 -15z m46 -9 c0 -2 -7 -6 -15 -10 -8 -3 -15 -1 -15
4 0 6 7 10 15 10 8 0 15 -2 15 -4z"/>
<path d="M760 2901 c-25 -7 -25 -7 -2 -13 33 -9 28 -32 -5 -24 -24 5 -25 5
-10 -5 10 -6 30 -8 44 -4 24 6 24 7 9 24 -9 10 -13 21 -9 24 3 4 4 7 2 6 -2
-1 -15 -4 -29 -8z"/>
<path d="M1364 2785 c-146 -26 -276 -78 -391 -156 -74 -50 -203 -188 -249
-265 -305 -517 -25 -1139 584 -1291 48 -12 110 -17 217 -17 181 0 267 19 420
94 184 90 319 221 405 395 70 140 92 231 92 380 0 246 -90 448 -280 626 -205
193 -519 285 -798 234z m344 -21 c341 -70 615 -326 698 -649 24 -93 24 -283 1
-380 -42 -171 -169 -363 -312 -472 -163 -124 -325 -182 -530 -190 -276 -11
-493 69 -682 250 -179 172 -265 368 -265 602 0 226 88 431 254 592 146 141
284 210 513 257 53 10 252 5 323 -10z"/>
<path d="M1418 2733 c7 -3 16 -2 19 1 4 3 -2 6 -13 5 -11 0 -14 -3 -6 -6z"/>
<path d="M1411 2671 c-11 -7 -9 -12 10 -22 21 -11 22 -10 12 3 -7 8 -10 18 -6
21 9 10 1 8 -16 -2z"/>
<path d="M1450 2660 c0 -12 7 -20 18 -20 14 0 15 2 2 10 -13 9 -13 11 0 20 13
8 12 10 -2 10 -11 0 -18 -8 -18 -20z"/>
<path d="M1502 2660 c0 -14 2 -19 5 -12 2 6 2 18 0 25 -3 6 -5 1 -5 -13z"/>
<path d="M1521 2663 c-1 -16 5 -23 17 -23 10 0 13 3 6 8 -6 4 -14 14 -17 22
-4 10 -6 8 -6 -7z"/>
<path d="M1571 2674 c-1 -6 6 -17 14 -24 12 -10 15 -9 15 4 0 10 -4 15 -9 12
-5 -4 -12 0 -14 6 -4 8 -6 9 -6 2z"/>
<path d="M1624 2659 c0 -10 4 -19 8 -19 4 0 8 6 8 14 0 8 -4 17 -8 20 -4 2 -8
-4 -8 -15z"/>
<path d="M1344 2663 c-13 -5 -6 -43 7 -43 14 0 23 30 13 39 -5 5 -14 7 -20 4z
m13 -25 c-3 -8 -6 -5 -6 6 -1 11 2 17 5 13 3 -3 4 -12 1 -19z"/>
<path d="M1662 2650 c0 -14 2 -19 5 -12 2 6 2 18 0 25 -3 6 -5 1 -5 -13z"/>
<path d="M1310 2650 c0 -5 -6 -7 -14 -4 -11 4 -13 0 -9 -17 4 -13 8 -18 10
-12 3 7 10 10 18 7 10 -4 12 0 8 15 -6 22 -13 28 -13 11z"/>
<path d="M1686 2643 c-6 -14 -5 -15 5 -6 7 7 10 15 7 18 -3 3 -9 -2 -12 -12z"/>
<path d="M1725 2639 c-4 -6 -5 -12 -2 -15 2 -3 7 2 10 11 7 17 1 20 -8 4z"/>
<path d="M1753 2634 c-7 -20 12 -41 22 -23 5 8 4 10 -3 5 -7 -4 -12 -1 -12 9
0 10 5 13 12 9 7 -4 8 -3 4 4 -10 16 -15 15 -23 -4z"/>
<path d="M1253 2628 c4 -11 2 -18 -5 -18 -6 0 -9 -3 -5 -6 3 -3 13 -2 22 3 15
9 15 11 -1 24 -16 12 -17 12 -11 -3z"/>
<path d="M1181 2611 c-8 -5 -11 -16 -7 -26 7 -18 28 -16 32 3 1 7 0 8 -3 2 -2
-5 -9 -7 -14 -4 -6 3 -5 11 2 20 13 16 10 18 -10 5z"/>
<path d="M1815 2610 c-8 -13 3 -30 18 -29 9 0 9 2 0 6 -18 7 -16 21 5 26 15 4
15 5 0 6 -9 0 -20 -3 -23 -9z"/>
<path d="M1855 2589 c-4 -6 -5 -12 -2 -15 2 -3 7 2 10 11 7 17 1 20 -8 4z"/>
<path d="M1883 2593 c4 -3 1 -13 -6 -22 -11 -14 -10 -14 5 -2 16 12 16 31 1
31 -4 0 -3 -3 0 -7z"/>
<path d="M1138 2582 c-13 -5 -15 -11 -8 -22 6 -9 10 -10 10 -3 0 7 7 10 15 7
11 -5 13 -2 9 10 -3 9 -7 16 -8 15 0 0 -9 -3 -18 -7z"/>
<path d="M1332 2570 c-213 -56 -401 -222 -476 -420 -88 -236 -36 -483 142
-672 363 -385 1030 -249 1199 245 104 304 -50 653 -353 797 -147 71 -355 91
-512 50z m413 -34 c210 -72 380 -244 439 -445 23 -80 21 -98 -11 -105 -16 -4
-48 -3 -72 2 -43 7 -45 9 -57 55 -40 156 -175 298 -329 347 -22 7 -43 18 -47
24 -5 6 -8 1 -8 -12 0 -13 -5 -32 -10 -43 -8 -15 -7 -25 6 -42 l16 -22 -6 26
c-3 14 0 33 7 43 11 15 18 13 85 -18 39 -20 72 -38 72 -42 0 -3 -7 -3 -16 0
-8 3 -12 2 -9 -4 3 -5 -4 -14 -17 -21 -19 -10 -25 -8 -45 17 -26 33 -31 26 -8
-10 15 -23 14 -25 -11 -45 -15 -12 -30 -21 -33 -21 -4 0 -38 -22 -76 -50 -38
-27 -72 -46 -76 -42 -11 11 -87 256 -82 265 2 4 24 7 49 7 28 0 43 4 39 10 -3
6 -31 10 -61 10 -41 0 -54 4 -54 15 0 26 -38 17 -77 -19 -21 -18 -61 -45 -89
-59 -65 -33 -153 -113 -194 -177 -65 -101 -90 -258 -60 -369 13 -48 9 -57 -16
-43 -10 5 -13 12 -6 16 13 8 4 46 -11 46 -6 0 -20 -9 -32 -20 -12 -12 -38 -23
-57 -26 -33 -6 -35 -4 -42 26 -11 59 -6 201 10 264 33 130 116 258 222 341 65
52 196 121 247 131 39 7 65 -11 65 -46 0 -12 4 -19 10 -15 6 4 6 15 0 31 -20
52 -15 54 145 50 100 -2 134 -7 200 -30z m-335 -110 c0 -15 -21 -26 -48 -26
-14 1 -12 5 7 20 27 23 41 25 41 6z m46 -133 c20 -54 43 -113 50 -132 21 -52
17 -63 -42 -111 -55 -45 -232 -225 -269 -274 -19 -25 -23 -26 -87 -20 -66 7
-68 7 -80 43 -22 60 -16 216 11 283 41 106 164 241 236 261 11 3 45 14 75 26
30 11 58 20 62 21 3 0 23 -44 44 -97z m452 -56 c59 -63 97 -133 117 -219 22
-94 23 -91 -55 -117 -49 -15 -70 -27 -71 -39 0 -10 -5 -6 -11 11 -5 15 -14 27
-20 27 -6 0 -7 -8 -3 -17 4 -10 9 -32 12 -50 3 -17 12 -34 20 -37 8 -3 12 -2
9 3 -5 8 113 55 120 48 6 -6 -19 -83 -41 -127 -30 -59 -85 -128 -85 -106 0 9
-5 16 -11 16 -5 0 -7 4 -4 10 3 6 -1 7 -9 4 -9 -3 -16 -1 -16 4 0 6 10 12 23
14 19 3 22 10 25 50 3 44 1 48 -23 54 -14 3 -30 14 -35 23 -8 14 -9 13 -10 -6
0 -18 6 -23 25 -23 23 0 25 -4 25 -46 0 -44 -1 -46 -25 -40 -20 5 -25 3 -25
-13 0 -10 9 -25 19 -32 28 -20 18 -81 -13 -77 -13 2 -21 -2 -21 -11 0 -32 27
-19 88 42 70 69 119 156 138 245 7 36 16 53 30 57 10 4 32 17 47 30 15 12 39
25 52 26 25 4 25 3 22 -61 -5 -144 -68 -277 -187 -396 -44 -44 -106 -95 -138
-113 -56 -32 -59 -32 -72 -15 -13 18 -14 18 -9 -2 4 -16 -1 -24 -23 -32 -114
-46 -296 -56 -425 -23 -74 19 -210 81 -223 101 -4 6 9 10 35 10 23 0 70 11
105 25 61 25 64 25 121 10 32 -8 94 -14 139 -14 l80 2 -95 7 c-128 10 -260 60
-320 120 -19 19 -16 57 10 120 12 29 13 29 94 29 44 0 142 10 216 21 160 24
150 23 150 7 0 -7 13 -52 28 -99 l28 -87 -65 -4 -66 -3 73 -2 c65 -2 74 -4 81
-24 12 -30 5 -36 -65 -58 -33 -10 -49 -19 -37 -19 30 -1 114 27 133 45 12 12
12 14 -3 14 -15 0 -22 18 -18 43 1 4 -17 53 -39 109 -23 55 -40 102 -38 103 2
1 32 9 68 17 60 12 65 15 62 38 -2 14 -5 26 -7 28 -2 2 -28 -4 -59 -13 -31 -9
-63 -15 -72 -13 -18 3 -116 260 -105 275 3 5 40 36 82 70 74 60 77 62 87 40
10 -21 11 -21 11 5 1 22 11 34 49 58 26 16 52 30 58 30 6 0 34 -24 62 -53z
m-317 -312 c31 -86 39 -119 30 -125 -18 -10 -171 -32 -278 -39 l-92 -6 16 25
c33 51 90 118 176 204 71 70 91 86 98 74 5 -9 27 -68 50 -133z m-694 -161 c-3
-3 -12 -4 -19 -1 -8 3 -5 6 6 6 11 1 17 -2 13 -5z m83 -40 c60 -14 68 -20 93
-59 l28 -44 -17 -50 c-9 -28 -14 -69 -12 -91 2 -22 1 -40 -3 -40 -10 0 -93 92
-127 142 -31 45 -72 130 -72 149 0 13 37 11 110 -7z m160 -30 c0 -5 -7 -19
-15 -30 -14 -19 -15 -18 -34 6 -11 13 -18 27 -16 30 6 10 65 5 65 -6z m140
-210 c39 -20 38 -24 -6 -24 -26 0 -43 8 -65 29 -40 41 -37 58 6 31 19 -12 48
-28 65 -36z"/>
<path d="M1505 2522 c0 -19 5 -37 11 -39 6 -2 8 10 6 32 -6 47 -17 52 -17 7z"/>
<path d="M1440 2525 c0 -14 4 -25 9 -25 4 0 6 11 3 25 -2 14 -6 25 -8 25 -2 0
-4 -11 -4 -25z"/>
<path d="M1570 2512 c0 -6 5 -14 11 -17 5 -4 8 -19 4 -34 -6 -28 17 -72 32
-58 4 5 0 13 -9 18 -12 7 -15 18 -11 42 3 23 0 37 -11 46 -10 8 -16 9 -16 3z"/>
<path d="M1325 2450 c3 -5 11 -10 16 -10 6 0 7 5 4 10 -3 6 -11 10 -16 10 -6
0 -7 -4 -4 -10z"/>
<path d="M1877 2389 c4 -15 0 -26 -12 -35 -18 -13 -17 -14 7 -14 18 0 28 -7
32 -22 l7 -23 9 23 c8 18 15 22 32 17 21 -5 21 -5 6 8 -11 9 -15 21 -11 36 5
21 4 22 -16 11 -19 -9 -26 -9 -41 5 -18 16 -18 16 -13 -6z"/>
<path d="M1259 2313 c-13 -16 -12 -17 4 -4 9 7 17 15 17 17 0 8 -8 3 -21 -13z"/>
<path d="M1230 2270 c-6 -11 -8 -20 -6 -20 3 0 10 9 16 20 6 11 8 20 6 20 -3
0 -10 -9 -16 -20z"/>
<path d="M1196 2205 c-9 -26 -7 -32 5 -12 6 10 9 21 6 23 -2 3 -7 -2 -11 -11z"/>
<path d="M1780 2189 c0 -6 5 -20 11 -31 9 -16 7 -28 -7 -54 -15 -28 -16 -36
-5 -46 10 -11 12 -9 9 8 -1 12 5 31 15 42 17 18 17 25 7 56 -11 34 -30 49 -30
25z"/>
<path d="M1826 2013 c4 -21 8 -40 10 -42 2 -2 -3 -12 -12 -22 -12 -13 -13 -22
-5 -36 9 -16 10 -16 11 5 0 12 7 25 15 28 10 4 13 15 10 30 -3 13 -7 35 -10
49 -9 41 -27 30 -19 -12z"/>
<path d="M1923 1710 c0 -25 2 -35 4 -22 2 12 2 32 0 45 -2 12 -4 2 -4 -23z"/>
<path d="M1803 1665 c0 -27 2 -38 4 -22 2 15 2 37 0 50 -2 12 -4 0 -4 -28z"/>
<path d="M1330 1666 c0 -2 8 -10 18 -17 15 -13 16 -12 3 4 -13 16 -21 21 -21
13z"/>
<path d="M1400 1615 c0 -7 61 -37 66 -33 2 3 -12 12 -31 21 -19 9 -35 15 -35
12z"/>
<path d="M1791 1584 c0 -11 3 -14 6 -6 3 7 2 16 -1 19 -3 4 -6 -2 -5 -13z"/>
<path d="M1510 1565 c19 -7 44 -14 55 -14 11 0 0 7 -25 15 -57 17 -77 17 -30
-1z"/>
<path d="M1768 1553 c6 -2 18 -2 25 0 6 3 1 5 -13 5 -14 0 -19 -2 -12 -5z"/>
<path d="M1852 1470 c0 -14 2 -19 5 -12 2 6 2 18 0 25 -3 6 -5 1 -5 -13z"/>
<path d="M1805 1441 c-3 -5 -2 -12 3 -15 5 -3 9 1 9 9 0 17 -3 19 -12 6z"/>
<path d="M1631 1404 c0 -11 3 -14 6 -6 3 7 2 16 -1 19 -3 4 -6 -2 -5 -13z"/>
<path d="M1760 1391 c0 -11 3 -22 8 -24 4 -3 7 6 7 19 0 13 -3 24 -7 24 -5 0
-8 -9 -8 -19z"/>
<path d="M1692 1380 c0 -14 2 -19 5 -12 2 6 2 18 0 25 -3 6 -5 1 -5 -13z"/>
<path d="M1815 1389 c-4 -6 -5 -12 -2 -15 2 -3 7 2 10 11 7 17 1 20 -8 4z"/>
<path d="M1906 2572 c-4 -7 -2 -12 4 -12 6 0 8 -5 4 -12 -4 -7 -3 -8 4 -4 7 4
12 1 12 -6 0 -9 3 -9 10 2 14 22 12 33 -4 27 -8 -3 -16 -1 -19 6 -2 8 -5 8
-11 -1z"/>
<path d="M1100 2561 c0 -5 5 -13 10 -16 6 -3 10 -2 10 4 0 5 -4 13 -10 16 -5
3 -10 2 -10 -4z"/>
<path d="M1080 2545 c0 -17 -2 -17 -10 -5 -5 8 -10 11 -10 5 0 -22 15 -33 27
-20 7 7 8 17 2 26 -7 11 -9 10 -9 -6z"/>
<path d="M1955 2540 c-3 -5 -1 -10 5 -10 6 0 8 -5 4 -12 -4 -6 -3 -8 3 -5 6 4
13 0 17 -8 7 -20 22 -19 30 1 6 15 4 15 -10 3 -15 -12 -16 -11 -10 9 6 18 4
21 -10 15 -12 -4 -15 -3 -10 5 4 7 3 12 -3 12 -5 0 -13 -4 -16 -10z"/>
<path d="M1027 2524 c-10 -10 13 -45 25 -38 7 4 5 10 -6 16 -9 5 -14 13 -11
19 7 10 2 12 -8 3z"/>
<path d="M986 2492 c-3 -5 1 -15 10 -22 12 -11 17 -11 27 0 9 10 9 11 0 6 -6
-3 -16 1 -21 10 -5 10 -12 12 -16 6z"/>
<path d="M2034 2484 c5 -12 2 -15 -9 -10 -10 3 -13 2 -10 -5 4 -5 12 -8 18 -6
13 4 18 37 5 37 -6 0 -7 -7 -4 -16z"/>
<path d="M970 2459 c0 -5 -4 -7 -10 -4 -16 10 -12 -11 5 -25 13 -11 14 -10 9
4 -5 13 -2 15 12 9 17 -6 17 -5 5 10 -16 20 -21 21 -21 6z"/>
<path d="M2070 2460 c14 -9 7 -14 -13 -11 -5 1 -6 -3 -2 -9 5 -8 11 -8 21 1
15 12 10 29 -9 29 -7 0 -6 -4 3 -10z"/>
<path d="M2089 2433 c-13 -16 -12 -17 4 -4 9 7 17 15 17 17 0 8 -8 3 -21 -13z"/>
<path d="M930 2436 c0 -2 8 -10 18 -17 15 -13 16 -12 3 4 -13 16 -21 21 -21
13z"/>
<path d="M903 2404 c-7 -19 11 -39 26 -30 16 10 13 33 -4 40 -9 3 -18 -1 -22
-10z m27 -15 c0 -5 -4 -9 -10 -9 -5 0 -10 7 -10 16 0 8 5 12 10 9 6 -3 10 -10
10 -16z"/>
<path d="M2102 2403 c4 -21 33 -25 33 -3 0 8 -8 16 -18 18 -14 3 -18 -1 -15
-15z m28 -3 c0 -5 -4 -10 -10 -10 -5 0 -10 5 -10 10 0 6 5 10 10 10 6 0 10 -4
10 -10z"/>
<path d="M2140 2375 c-12 -15 -12 -17 -1 -10 11 6 13 4 8 -8 -8 -22 7 -22 24
0 8 9 9 14 2 10 -7 -4 -13 0 -15 9 -3 15 -4 15 -18 -1z"/>
<path d="M883 2373 c4 -7 0 -13 -9 -15 -15 -3 -15 -4 1 -18 11 -8 16 -10 12
-3 -4 7 0 13 9 15 15 3 15 4 -1 18 -11 8 -16 10 -12 3z"/>
<path d="M837 2322 c-3 -4 3 -13 13 -20 15 -9 19 -8 25 6 3 9 3 13 -1 9 -4 -4
-13 -2 -20 4 -7 5 -15 6 -17 1z"/>
<path d="M2200 2279 c-12 -8 -10 -9 9 -4 17 5 22 4 16 -5 -5 -9 -4 -11 4 -6 6
4 9 12 6 17 -8 12 -16 11 -35 -2z"/>
<path d="M800 2259 c0 -6 25 -19 35 -19 1 0 5 6 8 13 3 7 -4 12 -19 12 -13 0
-24 -3 -24 -6z"/>
<path d="M2219 2237 c6 -8 7 -18 3 -23 -4 -4 1 -2 11 5 23 18 22 31 -4 31 -17
0 -19 -3 -10 -13z"/>
<path d="M787 2233 c-12 -19 16 -33 33 -15 13 14 12 15 -2 9 -9 -3 -18 -1 -21
6 -2 8 -5 8 -10 0z"/>
<path d="M2235 2200 c-3 -5 -1 -10 5 -10 6 0 8 -4 5 -10 -8 -13 5 -13 25 0 11
7 11 10 2 10 -7 0 -10 5 -7 10 3 6 -1 10 -9 10 -8 0 -18 -4 -21 -10z"/>
<path d="M775 2190 c3 -5 1 -10 -4 -10 -19 0 -12 -17 8 -23 14 -3 18 -1 14 9
-3 8 1 14 8 14 11 0 11 3 -1 10 -20 13 -33 13 -25 0z"/>
<path d="M2255 2150 c-3 -6 1 -7 9 -4 18 7 21 14 7 14 -6 0 -13 -4 -16 -10z"/>
<path d="M766 2134 c19 -15 18 -15 -4 -11 -12 3 -20 1 -16 -4 7 -13 31 -11 40
2 3 6 0 15 -7 20 -24 15 -34 10 -13 -7z"/>
<path d="M2280 2123 c0 -15 -2 -16 -10 -3 -5 8 -10 10 -10 4 0 -16 10 -23 26
-17 16 6 19 33 4 33 -5 0 -10 -8 -10 -17z"/>
<path d="M740 2096 c0 -2 7 -7 16 -10 8 -3 12 -2 9 4 -6 10 -25 14 -25 6z"/>
<path d="M2300 2091 c0 -5 -8 -12 -17 -14 -14 -4 -12 -5 5 -6 13 -1 22 5 22
14 0 8 -2 15 -5 15 -3 0 -5 -4 -5 -9z"/>
<path d="M730 2068 c0 -12 7 -18 23 -17 15 0 17 2 7 6 -8 3 -18 11 -22 17 -5
7 -8 4 -8 -6z"/>
<path d="M2287 2035 c6 -17 25 -15 31 3 2 7 -5 12 -17 12 -14 0 -19 -5 -14
-15z"/>
<path d="M722 2018 c2 -6 11 -13 19 -16 12 -3 12 -2 0 6 -11 8 -10 11 5 15 16
4 15 5 -4 6 -14 1 -22 -4 -20 -11z"/>
<path d="M2294 1990 c0 -14 7 -20 21 -19 11 0 14 3 7 6 -10 4 -10 8 -1 19 9
11 8 14 -8 14 -12 0 -19 -7 -19 -20z"/>
<path d="M725 1980 c4 -7 2 -16 -6 -21 -11 -7 -9 -9 8 -9 23 0 26 31 3 38 -8
3 -10 0 -5 -8z"/>
<path d="M1145 1289 c-11 -4 -16 -8 -11 -8 5 -1 2 -9 -5 -18 -8 -10 -9 -14 -2
-10 7 4 16 0 22 -10 9 -16 10 -16 11 -1 0 9 4 18 9 20 4 2 6 10 2 19 -4 12
-12 14 -26 8z"/>
<path d="M1880 1285 c0 -7 -6 -16 -12 -18 -8 -3 -6 -6 5 -6 9 -1 17 -9 17 -18
1 -17 1 -17 11 0 6 10 15 14 22 10 9 -5 8 -2 0 9 -7 8 -10 17 -8 20 3 3 -3 8
-15 11 -13 3 -20 0 -20 -8z"/>
<path d="M1287 1244 c-3 -10 -8 -29 -12 -41 -4 -14 -2 -23 4 -23 6 0 11 7 11
15 0 22 17 18 23 -5 8 -30 25 -24 35 13 11 39 7 47 -13 21 -8 -10 -15 -14 -15
-8 0 5 -6 19 -14 29 -13 18 -14 18 -19 -1z"/>
<path d="M1730 1228 c0 -20 -1 -21 -20 -3 -11 10 -23 16 -26 13 -8 -9 7 -78
17 -78 5 0 6 12 3 28 l-7 27 21 -25 21 -25 1 30 1 30 14 -25 c15 -26 19 -12 9
28 -8 28 -34 29 -34 0z"/>
<path d="M1365 1199 c-8 -35 -9 -34 28 -43 16 -4 27 -2 27 4 0 5 -9 10 -20 10
-28 0 -25 20 3 21 16 1 18 2 5 6 -10 2 -18 9 -18 15 0 6 9 8 20 5 11 -3 20 -1
20 4 0 5 -13 9 -29 9 -25 0 -31 -5 -36 -31z"/>
<path d="M1602 1214 c-22 -40 24 -82 55 -51 24 23 9 67 -22 67 -13 0 -28 -7
-33 -16z m48 -25 c0 -20 -24 -26 -35 -9 -8 13 14 42 26 34 5 -3 9 -14 9 -25z"/>
<path d="M1440 1206 c0 -8 9 -18 20 -21 11 -3 20 -11 20 -16 0 -6 -9 -7 -20
-4 -11 4 -20 2 -20 -4 0 -6 14 -11 30 -11 37 0 42 31 8 49 l-23 12 23 -5 c12
-2 22 0 22 5 0 5 -13 9 -30 9 -19 0 -30 -5 -30 -14z"/>
<path d="M1517 1206 c-12 -30 4 -56 34 -56 16 0 29 4 29 10 0 5 -10 9 -22 7
-17 -1 -23 3 -23 18 0 15 6 19 23 18 12 -2 22 2 22 7 0 15 -57 12 -63 -4z"/>
<path d="M2670 2760 c0 -5 5 -10 11 -10 5 0 7 5 4 10 -3 6 -8 10 -11 10 -2 0
-4 -4 -4 -10z"/>
<path d="M2771 2454 c0 -11 3 -14 6 -6 3 7 2 16 -1 19 -3 4 -6 -2 -5 -13z"/>
<path d="M2761 2414 c0 -11 3 -14 6 -6 3 7 2 16 -1 19 -3 4 -6 -2 -5 -13z"/>
<path d="M1830 1063 c0 -6 -3 -19 -6 -27 -5 -12 -2 -15 10 -10 14 5 16 -2 16
-50 0 -31 -4 -56 -10 -56 -5 0 -10 9 -10 19 0 11 -4 22 -9 25 -5 3 -7 16 -5
29 5 22 4 22 -6 -1 -7 -18 -15 -22 -32 -18 l-23 6 23 -11 c12 -7 22 -18 22
-24 0 -15 -28 -28 -42 -19 -15 10 -27 48 -16 55 5 3 2 9 -7 13 -15 5 -17 2
-11 -26 3 -17 14 -40 23 -50 14 -15 14 -22 4 -42 -8 -13 -10 -33 -6 -46 5 -15
2 -26 -6 -31 -10 -6 -10 -9 -2 -9 6 0 15 5 18 10 3 6 21 10 40 10 24 0 39 7
50 23 15 21 14 22 -12 27 -25 5 -26 6 -9 23 10 9 25 17 35 17 18 0 61 41 80
77 9 19 8 20 -10 16 -11 -3 -16 -9 -11 -12 6 -4 3 -15 -9 -29 -10 -13 -23 -20
-29 -17 -8 5 -6 13 6 26 15 17 15 19 1 19 -9 0 -20 15 -27 38 -13 39 -30 65
-30 45z m-30 -183 c0 -5 -4 -10 -10 -10 -5 0 -10 5 -10 10 0 6 5 10 10 10 6 0
10 -4 10 -10z m-28 -42 c-15 -15 -26 -4 -18 18 5 13 9 15 18 6 9 -9 9 -15 0
-24z m48 -8 c0 -5 -7 -10 -15 -10 -8 0 -15 5 -15 10 0 6 7 10 15 10 8 0 15 -4
15 -10z"/>
<path d="M2710 709 c-34 -14 -40 -26 -40 -86 0 -61 17 -52 -225 -112 -180 -45
-277 -76 -376 -122 l-68 -32 -88 17 c-233 43 -555 44 -791 0 l-93 -17 -77 36
c-114 54 -147 65 -382 126 l-215 56 -3 55 c-2 37 -8 59 -19 68 -23 17 -104 15
-131 -4 -21 -15 -22 -21 -22 -189 l0 -174 43 -24 c56 -33 146 -61 292 -92 148
-32 208 -49 308 -87 l77 -29 0 -40 c0 -33 4 -41 26 -49 58 -22 114 -10 164 35
20 18 47 25 130 36 138 17 446 17 588 0 98 -12 117 -18 149 -43 45 -35 71 -42
128 -34 45 7 45 8 45 47 0 37 3 41 44 59 71 30 230 76 381 111 150 33 221 58
267 90 l28 20 0 173 c0 158 -2 174 -19 190 -24 22 -87 29 -121 15z m36 -317
c-3 -2 -12 1 -21 8 -13 11 -15 9 -15 -11 0 -19 -2 -21 -10 -9 -8 12 -10 12
-16 -3 -8 -22 -40 -22 -54 1 -9 15 -10 14 -5 -5 4 -13 2 -23 -4 -23 -5 0 -13
14 -16 31 -5 21 -10 27 -15 19 -4 -7 -13 -9 -19 -6 -6 4 -11 2 -11 -3 0 -6 9
-11 20 -11 13 0 20 -7 20 -19 0 -22 -26 -36 -36 -19 -4 7 -10 5 -16 -6 -11
-19 -34 -21 -44 -4 -5 8 -2 9 9 5 10 -3 17 -3 17 2 0 5 -9 11 -20 14 -24 6
-27 35 -5 44 20 7 34 -6 17 -16 -8 -5 0 -11 25 -19 43 -13 58 -7 19 8 -15 5
-26 15 -24 22 6 16 62 31 67 17 2 -6 10 -1 18 10 19 27 41 27 54 -1 9 -21 9
-21 4 5 -6 29 3 35 23 15 9 -9 12 -8 13 8 0 13 5 9 15 -15 8 -18 13 -36 10
-39z m-2355 36 c1 -17 2 -19 6 -5 8 32 26 18 19 -15 l-6 -33 17 28 c24 36 37
29 41 -21 3 -40 -10 -57 -21 -28 -3 8 -15 12 -31 9 -20 -4 -28 0 -35 18 -7 18
-10 19 -10 7 -1 -10 -5 -18 -11 -18 -13 0 -13 10 1 49 13 36 28 41 30 9z m128
-19 c24 -8 31 -16 26 -28 -5 -13 -4 -14 6 -3 18 17 46 15 58 -5 6 -10 11 -12
11 -5 0 22 20 13 21 -10 1 -17 2 -19 6 -5 5 18 23 24 23 8 0 -5 -5 -22 -10
-38 -10 -27 -9 -27 6 -8 8 11 19 27 24 35 12 21 23 6 23 -30 0 -16 4 -27 9
-24 4 3 8 14 8 25 0 10 5 19 11 19 7 0 9 -11 6 -27 -3 -18 1 -32 11 -41 15
-12 13 -13 -17 -8 -19 3 -39 13 -46 23 -8 10 -14 12 -18 5 -11 -17 -47 -1 -48
22 -1 17 -2 17 -6 4 -5 -18 -23 -25 -23 -9 0 4 -11 6 -25 3 -19 -3 -27 1 -34
19 -8 21 -10 21 -10 5 -1 -14 -4 -17 -11 -10 -7 7 -8 19 -1 37 6 15 7 27 2 27
-5 0 -14 -13 -20 -30 -14 -42 -21 -37 -19 15 1 25 3 45 4 45 0 0 15 -5 33 -11z
m1947 -79 c4 -26 3 -31 -5 -20 -9 13 -11 12 -11 -4 0 -11 -3 -17 -6 -14 -3 4
-21 0 -40 -8 -27 -11 -34 -11 -34 -2 0 9 -3 8 -10 -2 -7 -12 -11 -10 -19 10
l-10 25 0 -28 c-1 -35 -29 -47 -48 -21 -21 29 -13 59 17 59 14 0 28 4 32 9 4
6 13 5 21 -3 13 -10 16 -8 19 11 4 21 6 20 22 -12 l17 -35 -6 33 c-7 34 2 41
24 20 11 -10 13 -10 7 0 -9 15 3 37 15 25 5 -5 11 -24 15 -43z m23 19 c13 -38
13 -39 3 -39 -5 0 -13 16 -19 35 -14 44 1 47 16 4z m-229 -50 c0 -6 -7 -9 -15
-5 -10 3 -15 -1 -15 -13 0 -25 11 -33 27 -20 10 9 13 8 13 -4 0 -22 -27 -29
-45 -11 -16 16 -20 46 -8 57 11 11 43 8 43 -4z m-903 -65 c-1 -19 -5 -34 -9
-34 -4 0 -8 5 -8 10 0 6 -5 10 -11 10 -5 0 -8 -4 -4 -9 3 -5 1 -12 -5 -16 -6
-4 -10 9 -10 34 0 38 12 53 36 44 7 -2 12 -20 11 -39z m32 14 c1 37 13 42 29
10 l11 -23 0 24 c1 18 4 21 14 12 10 -8 17 -7 25 1 12 12 42 4 42 -11 0 -5 -9
-7 -20 -4 -15 4 -20 0 -20 -16 0 -13 6 -21 18 -21 14 0 15 2 2 10 -13 8 -12
10 3 10 22 0 22 -29 1 -37 -11 -4 -22 1 -30 12 -13 17 -14 17 -14 2 0 -22 -16
-22 -29 1 -10 16 -10 16 -11 0 0 -11 -8 -18 -20 -18 -17 0 -20 6 -19 43 l2 42
7 -35 7 -35 2 33z m195 8 c-1 -9 2 -16 7 -16 5 0 9 -9 9 -21 0 -16 -5 -20 -27
-17 -23 2 -28 7 -25 28 1 14 4 31 7 38 7 19 30 9 29 -12z m96 2 c0 -6 -8 -7
-17 -4 -17 6 -17 5 0 -8 20 -16 22 -42 4 -49 -22 -8 -35 6 -35 38 0 17 5 33
11 37 13 8 37 -1 37 -14z m-390 3 c0 -5 -8 -12 -17 -14 -13 -3 -10 -5 7 -6 24
-2 24 -2 6 -16 -17 -13 -18 -15 -3 -15 9 0 17 -4 17 -10 0 -5 -11 -10 -25 -10
-22 0 -25 4 -25 40 0 33 3 40 20 40 11 0 20 -4 20 -9z m447 -7 c2 -7 -4 -11
-14 -10 -10 0 -18 -6 -18 -14 0 -9 7 -14 19 -12 11 2 17 -1 14 -10 -3 -7 -13
-13 -24 -13 -20 0 -31 33 -20 61 7 17 37 15 43 -2z m33 -1 c0 -13 2 -15 8 -5
13 20 73 11 83 -13 6 -17 8 -17 8 -2 1 20 15 21 93 5 55 -11 78 -27 41 -29
-11 0 -13 -3 -5 -6 17 -7 15 -23 -3 -23 -8 0 -15 -4 -15 -9 0 -6 -9 -9 -21 -8
-18 1 -20 6 -15 35 3 23 1 32 -7 29 -7 -2 -13 -16 -15 -30 -2 -15 -8 -27 -14
-27 -6 0 -8 12 -5 30 4 16 2 32 -3 35 -6 4 -13 -7 -16 -24 -7 -32 -19 -40 -27
-18 -4 9 -8 8 -16 -3 -8 -12 -11 -7 -11 20 0 29 -4 36 -20 37 -11 1 -20 -2
-20 -8 0 -5 8 -10 18 -10 16 -1 16 -2 0 -6 -22 -5 -24 -23 -3 -23 8 0 15 -4
15 -10 0 -21 -42 -10 -48 12 -5 21 -6 21 -13 2 -5 -13 -8 -7 -8 24 -1 23 4 42
9 42 6 0 10 -8 10 -17z m-588 -25 l1 -33 4 33 c4 27 8 32 31 31 17 -1 21 -3
10 -6 -10 -2 -18 -9 -18 -14 0 -6 4 -8 9 -4 5 3 12 1 16 -5 3 -5 -1 -10 -9
-10 -9 0 -16 -4 -16 -10 0 -5 8 -10 17 -10 25 0 7 -12 -24 -16 -15 -1 -33 2
-40 8 -10 8 -13 6 -13 -6 0 -31 -18 -7 -22 29 -4 38 7 45 28 18 12 -16 12 -16
7 5 -3 13 -1 22 6 22 6 0 12 -15 13 -32z m-74 4 c2 -7 -2 -10 -12 -6 -19 7
-23 -31 -4 -42 8 -5 9 -2 5 9 -4 11 -1 17 8 17 19 0 19 -36 0 -44 -18 -6 -45
19 -45 43 0 34 38 52 48 23z m-74 -19 c-3 9 -2 17 4 17 10 0 26 -60 17 -68 -2
-3 -12 1 -22 9 -15 12 -16 12 -10 -3 3 -10 3 -18 -2 -18 -10 0 -21 34 -21 64
0 19 1 19 20 1 18 -17 20 -17 14 -2z m-58 -8 c-17 -13 -18 -15 -3 -15 22 0 22
-17 0 -23 -14 -4 -12 -5 5 -6 30 -1 28 -21 -2 -21 -18 0 -25 7 -30 31 -7 38
-1 49 27 49 22 -1 22 -1 3 -15z m1080 0 c17 17 44 9 44 -12 0 -12 -3 -13 -13
-4 -16 13 -27 5 -27 -20 0 -12 5 -16 15 -13 8 4 15 2 15 -4 0 -5 -6 -12 -14
-15 -15 -6 -29 6 -39 33 -4 12 -6 11 -6 -2 -1 -10 -6 -18 -11 -18 -6 0 -8 11
-4 28 9 38 18 50 22 30 3 -16 5 -16 18 -3z"/>
<path d="M2640 401 c0 -12 6 -21 16 -21 9 0 14 7 12 17 -5 25 -28 28 -28 4z"/>
<path d="M560 349 c0 -24 23 -21 28 4 2 10 -3 17 -12 17 -10 0 -16 -9 -16 -21z"/>
<path d="M2290 291 c0 -12 6 -21 16 -21 9 0 14 7 12 17 -5 25 -28 28 -28 4z"/>
<path d="M1320 250 c0 -5 5 -10 10 -10 6 0 10 5 10 10 0 6 -4 10 -10 10 -5 0
-10 -4 -10 -10z"/>
<path d="M1645 220 c3 -5 8 -10 11 -10 2 0 4 5 4 10 0 6 -5 10 -11 10 -5 0 -7
-4 -4 -10z"/>
<path d="M1962 200 c0 -14 2 -19 5 -12 2 6 2 18 0 25 -3 6 -5 1 -5 -13z"/>
</g>
</svg>
