<?xml version="1.0" encoding="UTF-8"?>
<!DOCTYPE svg PUBLIC "-//W3C//DTD SVG 1.1//EN" "http://www.w3.org/Graphics/SVG/1.1/DTD/svg11.dtd">
<svg xmlns="http://www.w3.org/2000/svg" version="1.1" width="430px" height="581px" style="shape-rendering:geometricPrecision; text-rendering:geometricPrecision; image-rendering:optimizeQuality; fill-rule:evenodd; clip-rule:evenodd" xmlns:xlink="http://www.w3.org/1999/xlink">
<g><path style="opacity:1" fill="#2f3291" d="M 402.5,21.5 C 390.297,29.0999 378.63,37.4332 367.5,46.5C 365.22,47.6401 362.886,48.8068 360.5,50C 353.584,54.9448 346.917,60.1115 340.5,65.5C 329.942,71.7287 319.942,78.7287 310.5,86.5C 301.218,92.4516 292.218,98.7849 283.5,105.5C 274.2,111.477 265.2,117.81 256.5,124.5C 230.778,142.021 205.444,160.021 180.5,178.5C 177.448,180.178 174.115,180.845 170.5,180.5C 163.433,177.137 156.099,174.137 148.5,171.5C 146.485,170.076 144.152,169.41 141.5,169.5C 126.016,162.783 110.016,157.45 93.5,153.5C 92.5707,152.685 91.5707,151.852 90.5,151C 82.1944,148.398 73.8611,145.898 65.5,143.5C 54.1519,139.107 42.6519,134.774 31,130.5C 30.5,130.167 30,129.833 29.5,129.5C 30.2427,128.818 30.9094,128.151 31.5,127.5C 39.0125,126.385 46.3458,124.551 53.5,122C 64.3405,118.463 75.0072,114.63 85.5,110.5C 116.364,102.207 146.697,92.5398 176.5,81.5C 181.246,81.1611 185.58,79.8278 189.5,77.5C 201.494,74.5901 213.161,70.9234 224.5,66.5C 233.834,64.5879 242.834,61.9212 251.5,58.5C 252.568,57.5655 253.901,57.2322 255.5,57.5C 256.167,57.5 256.833,57.5 257.5,57.5C 260.152,57.5905 262.485,56.9238 264.5,55.5C 265.71,55.0679 266.71,54.4013 267.5,53.5C 273.869,52.744 279.869,51.0774 285.5,48.5C 307.446,42.5992 329.112,35.9325 350.5,28.5C 373.013,22.0003 395.513,15.3336 418,8.5C 419.722,8.61066 419.888,9.11066 418.5,10C 412.706,13.309 407.373,17.1423 402.5,21.5 Z"/></g>
<g><path style="opacity:0.333" fill="#d0d0e6" d="M 402.5,21.5 C 407.373,17.1423 412.706,13.309 418.5,10C 419.888,9.11066 419.722,8.61066 418,8.5C 395.513,15.3336 373.013,22.0003 350.5,28.5C 350.611,27.8826 350.944,27.3826 351.5,27C 375.23,19.9851 398.896,12.8184 422.5,5.5C 424.271,6.03539 424.604,6.86872 423.5,8C 417.221,11.946 411.221,16.2794 405.5,21C 404.552,21.4828 403.552,21.6495 402.5,21.5 Z"/></g>
<g><path style="opacity:0.169" fill="#cfcfe6" d="M 402.5,21.5 C 391.65,31.0224 379.984,39.3557 367.5,46.5C 378.63,37.4332 390.297,29.0999 402.5,21.5 Z"/></g>
<g><path style="opacity:0.42" fill="#cacae3" d="M 350.5,28.5 C 329.112,35.9325 307.446,42.5992 285.5,48.5C 286.808,47.7677 288.142,46.9344 289.5,46C 309.701,39.6548 330.034,33.8214 350.5,28.5 Z"/></g>
<g><path style="opacity:0.337" fill="#cacae3" d="M 285.5,48.5 C 279.869,51.0774 273.869,52.744 267.5,53.5C 273.181,51.0561 279.181,49.3894 285.5,48.5 Z"/></g>
<g><path style="opacity:0.039" fill="#e6e6f1" d="M 267.5,53.5 C 266.71,54.4013 265.71,55.0679 264.5,55.5C 261.848,55.4095 259.515,56.0762 257.5,57.5C 256.833,57.5 256.167,57.5 255.5,57.5C 255.611,56.8826 255.944,56.3826 256.5,56C 260.07,54.6905 263.737,53.8572 267.5,53.5 Z"/></g>
<g><path style="opacity:0.098" fill="#d5d5e9" d="M 367.5,46.5 C 362.021,51.1361 356.354,55.6361 350.5,60C 347.513,62.492 344.18,64.3253 340.5,65.5C 346.917,60.1115 353.584,54.9448 360.5,50C 362.886,48.8068 365.22,47.6401 367.5,46.5 Z"/></g>
<g><path style="opacity:0.894" fill="#6a6ab0" d="M 264.5,55.5 C 262.485,56.9238 260.152,57.5905 257.5,57.5C 259.515,56.0762 261.848,55.4095 264.5,55.5 Z"/></g>
<g><path style="opacity:0.42" fill="#cfcfe5" d="M 251.5,58.5 C 242.834,61.9212 233.834,64.5879 224.5,66.5C 233.031,62.7772 242.031,60.1106 251.5,58.5 Z"/></g>
<g><path style="opacity:0.455" fill="#c3c3df" d="M 224.5,66.5 C 213.161,70.9234 201.494,74.5901 189.5,77.5C 200.772,72.8552 212.439,69.1885 224.5,66.5 Z"/></g>
<g><path style="opacity:0.118" fill="#cfcfe6" d="M 340.5,65.5 C 339.375,67.1288 338.041,68.6288 336.5,70C 328.199,76.1454 319.533,81.6454 310.5,86.5C 319.942,78.7287 329.942,71.7287 340.5,65.5 Z"/></g>
<g><path style="opacity:0.565" fill="#c2c2df" d="M 189.5,77.5 C 185.58,79.8278 181.246,81.1611 176.5,81.5C 180.491,79.3941 184.824,78.0608 189.5,77.5 Z"/></g>
<g><path style="opacity:0.071" fill="#d4d4e8" d="M 310.5,86.5 C 310.586,87.4959 310.252,88.3292 309.5,89C 302.28,92.888 295.614,97.5547 289.5,103C 287.593,104.122 285.593,104.955 283.5,105.5C 292.218,98.7849 301.218,92.4516 310.5,86.5 Z"/></g>
<g><path style="opacity:0.471" fill="#c9c9e2" d="M 176.5,81.5 C 146.697,92.5398 116.364,102.207 85.5,110.5C 115.549,100.263 145.882,90.5961 176.5,81.5 Z"/></g>
<g><path style="opacity:0.173" fill="#d0d0e6" d="M 283.5,105.5 C 283.586,106.496 283.252,107.329 282.5,108C 274.557,112.944 266.891,118.277 259.5,124C 258.552,124.483 257.552,124.649 256.5,124.5C 265.2,117.81 274.2,111.477 283.5,105.5 Z"/></g>
<g><path style="opacity:0.427" fill="#bfbfdd" d="M 85.5,110.5 C 75.0072,114.63 64.3405,118.463 53.5,122C 46.3458,124.551 39.0125,126.385 31.5,127.5C 49.0734,120.932 67.0734,115.265 85.5,110.5 Z"/></g>
<g><path style="opacity:0.031" fill="#cfcfe5" d="M 31.5,127.5 C 30.9094,128.151 30.2427,128.818 29.5,129.5C 30,129.833 30.5,130.167 31,130.5C 42.6519,134.774 54.1519,139.107 65.5,143.5C 51.9204,140.253 38.9204,135.753 26.5,130C 27.385,127.843 29.0516,127.01 31.5,127.5 Z"/></g>
<g><path style="opacity:0.098" fill="#cfcfe5" d="M 65.5,143.5 C 73.8611,145.898 82.1944,148.398 90.5,151C 91.5707,151.852 92.5707,152.685 93.5,153.5C 84.4376,150.98 75.4376,148.146 66.5,145C 65.944,144.617 65.6107,144.117 65.5,143.5 Z"/></g>
<g><path style="opacity:1" fill="#ec1e25" d="M 310.5,162.5 C 308.125,167.953 306.125,173.619 304.5,179.5C 302.552,181.32 301.552,183.654 301.5,186.5C 301.167,188.5 300.833,190.5 300.5,192.5C 299.883,192.611 299.383,192.944 299,193.5C 290.845,217.499 283.012,241.499 275.5,265.5C 273.416,268.053 272.083,271.053 271.5,274.5C 269.426,280.389 267.759,286.389 266.5,292.5C 262.443,301.025 259.443,310.025 257.5,319.5C 256.883,319.611 256.383,319.944 256,320.5C 255.505,322.473 255.338,324.473 255.5,326.5C 254.883,326.611 254.383,326.944 254,327.5C 252.269,335.338 250.103,343.005 247.5,350.5C 247.737,351.791 247.404,352.791 246.5,353.5C 242.341,360.966 239.341,368.966 237.5,377.5C 235.917,380.387 234.417,383.387 233,386.5C 217.373,432.716 201.373,478.716 185,524.5C 184.506,526.134 184.34,527.801 184.5,529.5C 183.326,530.514 182.66,531.847 182.5,533.5C 181.883,533.611 181.383,533.944 181,534.5C 180.5,521.171 180.333,507.837 180.5,494.5C 180.867,481.501 181.2,468.501 181.5,455.5C 182.038,383.823 183.205,312.156 185,240.5C 198.295,231.69 211.129,222.357 223.5,212.5C 233.722,206.606 243.389,199.94 252.5,192.5C 255.135,191.189 257.469,189.522 259.5,187.5C 273.133,178.523 286.466,169.19 299.5,159.5C 303.799,156.887 308.132,154.22 312.5,151.5C 312.833,151.833 313.167,152.167 313.5,152.5C 312.091,155.727 311.091,159.06 310.5,162.5 Z"/></g>
<g><path style="opacity:0.161" fill="#cecfe5" d="M 256.5,124.5 C 256.586,125.496 256.252,126.329 255.5,127C 232.833,143 210.167,159 187.5,175C 185.114,176.193 182.78,177.36 180.5,178.5C 205.444,160.021 230.778,142.021 256.5,124.5 Z"/></g>
<g><path style="opacity:0.361" fill="#fcc8c9" d="M 310.5,162.5 C 311.091,159.06 312.091,155.727 313.5,152.5C 313.167,152.167 312.833,151.833 312.5,151.5C 308.132,154.22 303.799,156.887 299.5,159.5C 303.397,155.54 307.731,152.04 312.5,149C 313.448,148.517 314.448,148.351 315.5,148.5C 314.991,153.703 313.324,158.37 310.5,162.5 Z"/></g>
<g><path style="opacity:0.149" fill="#cccce4" d="M 93.5,153.5 C 110.016,157.45 126.016,162.783 141.5,169.5C 142.5,170.167 143.5,170.833 144.5,171.5C 127.163,166.278 110.163,160.278 93.5,153.5 Z"/></g>
<g><path style="opacity:0.847" fill="#7576b6" d="M 141.5,169.5 C 144.152,169.41 146.485,170.076 148.5,171.5C 147.167,171.5 145.833,171.5 144.5,171.5C 143.5,170.833 142.5,170.167 141.5,169.5 Z"/></g>
<g><path style="opacity:0.11" fill="#fcd2d3" d="M 299.5,159.5 C 286.466,169.19 273.133,178.523 259.5,187.5C 271.957,177.064 285.29,167.73 299.5,159.5 Z"/></g>
<g><path style="opacity:0.173" fill="#d2d2e7" d="M 144.5,171.5 C 145.833,171.5 147.167,171.5 148.5,171.5C 156.099,174.137 163.433,177.137 170.5,180.5C 161.66,177.887 152.993,174.887 144.5,171.5 Z"/></g>
<g><path style="opacity:0.045" fill="#dbdaec" d="M 180.5,178.5 C 177.971,182.964 174.638,183.631 170.5,180.5C 174.115,180.845 177.448,180.178 180.5,178.5 Z"/></g>
<g><path style="opacity:0.827" fill="#f36869" d="M 304.5,179.5 C 304.065,182.157 303.065,184.491 301.5,186.5C 301.552,183.654 302.552,181.32 304.5,179.5 Z"/></g>
<g><path style="opacity:0.149" fill="#fddbdc" d="M 259.5,187.5 C 257.469,189.522 255.135,191.189 252.5,192.5C 253.948,189.736 256.281,188.069 259.5,187.5 Z"/></g>
<g><path style="opacity:0.014" fill="#fddbdb" d="M 310.5,162.5 C 308.714,170.809 306.381,178.976 303.5,187C 303.141,189.296 302.141,191.129 300.5,192.5C 300.833,190.5 301.167,188.5 301.5,186.5C 303.065,184.491 304.065,182.157 304.5,179.5C 306.125,173.619 308.125,167.953 310.5,162.5 Z"/></g>
<g><path style="opacity:0.173" fill="#fcd1d2" d="M 252.5,192.5 C 243.389,199.94 233.722,206.606 223.5,212.5C 228.945,208.595 234.279,204.428 239.5,200C 243.562,196.971 247.895,194.471 252.5,192.5 Z"/></g>
<g><path style="opacity:0.275" fill="#fcc2c3" d="M 223.5,212.5 C 211.129,222.357 198.295,231.69 185,240.5C 183.205,312.156 182.038,383.823 181.5,455.5C 180.833,461.5 180.167,467.5 179.5,473.5C 180.667,395.493 182.167,317.493 184,239.5C 197.065,230.254 210.232,221.254 223.5,212.5 Z"/></g>
<g><path style="opacity:0.106" fill="#fdd3d4" d="M 300.5,192.5 C 292.484,219.881 283.484,246.881 273.5,273.5C 273.963,270.779 274.629,268.112 275.5,265.5C 283.012,241.499 290.845,217.499 299,193.5C 299.383,192.944 299.883,192.611 300.5,192.5 Z"/></g>
<g><path style="opacity:0.749" fill="#f5787a" d="M 275.5,265.5 C 274.629,268.112 273.963,270.779 273.5,273.5C 272.833,273.833 272.167,274.167 271.5,274.5C 272.083,271.053 273.416,268.053 275.5,265.5 Z"/></g>
<g><path style="opacity:0.184" fill="#fcc2c3" d="M 273.5,273.5 C 271.98,279.561 270.147,285.561 268,291.5C 267.617,292.056 267.117,292.389 266.5,292.5C 267.759,286.389 269.426,280.389 271.5,274.5C 272.167,274.167 272.833,273.833 273.5,273.5 Z"/></g>
<g><path style="opacity:0.306" fill="#fdc9c9" d="M 266.5,292.5 C 264.648,300.552 262.481,308.552 260,316.5C 259.478,319.281 258.311,321.615 256.5,323.5C 256.833,322.167 257.167,320.833 257.5,319.5C 259.443,310.025 262.443,301.025 266.5,292.5 Z"/></g>
<g><path style="opacity:0.847" fill="#f77d7d" d="M 257.5,319.5 C 257.167,320.833 256.833,322.167 256.5,323.5C 256.737,324.791 256.404,325.791 255.5,326.5C 255.338,324.473 255.505,322.473 256,320.5C 256.383,319.944 256.883,319.611 257.5,319.5 Z"/></g>
<g><path style="opacity:0.11" fill="#fcc7c7" d="M 255.5,326.5 C 254.316,332.549 252.816,338.549 251,344.5C 250.284,346.879 249.117,348.879 247.5,350.5C 250.103,343.005 252.269,335.338 254,327.5C 254.383,326.944 254.883,326.611 255.5,326.5 Z"/></g>
<g><path style="opacity:0.004" fill="#fdd3d4" d="M 246.5,353.5 C 244.567,362.01 241.567,370.01 237.5,377.5C 239.341,368.966 242.341,360.966 246.5,353.5 Z"/></g>
<g><path style="opacity:0.027" fill="#fdcccd" d="M 237.5,377.5 C 220.606,428.519 202.939,479.186 184.5,529.5C 184.34,527.801 184.506,526.134 185,524.5C 201.373,478.716 217.373,432.716 233,386.5C 234.417,383.387 235.917,380.387 237.5,377.5 Z"/></g>
<g><path style="opacity:0.441" fill="#f7999b" d="M 181.5,455.5 C 181.2,468.501 180.867,481.501 180.5,494.5C 180.167,494.5 179.833,494.5 179.5,494.5C 179.5,487.5 179.5,480.5 179.5,473.5C 180.167,467.5 180.833,461.5 181.5,455.5 Z"/></g>
<g><path style="opacity:0.557" fill="#f47a7e" d="M 179.5,494.5 C 179.833,494.5 180.167,494.5 180.5,494.5C 180.333,507.837 180.5,521.171 181,534.5C 181.383,533.944 181.883,533.611 182.5,533.5C 181.928,535.255 181.094,536.922 180,538.5C 179.5,530.841 179.334,523.174 179.5,515.5C 179.5,508.5 179.5,501.5 179.5,494.5 Z"/></g>
<g><path style="opacity:0.373" fill="#fcd7d8" d="M 179.5,515.5 C 179.334,523.174 179.5,530.841 180,538.5C 181.094,536.922 181.928,535.255 182.5,533.5C 182.66,531.847 183.326,530.514 184.5,529.5C 183.834,534.832 182.167,539.832 179.5,544.5C 178.808,543.975 178.308,543.308 178,542.5C 177.843,533.329 178.343,524.329 179.5,515.5 Z"/></g>
</svg>
